{
.appVersion = "1231";
copyright = "Copyright © 2019 by Red Hat. All rights reserved.";
customParameters = (
{
name = description;
value = "Copyright (c) 2019 by Red Hat. All rights reserved.";
},
{
name = license;
value = "This Font Software is licensed under the SIL Open Font License, Version 1.1. This license is available with a FAQ at: http://scripts.sil.org/OFL";
},
{
name = licenseURL;
value = "http://scripts.sil.org/OFL";
}
);
date = "2019-04-22 16:27:40 +0000";
designer = "Liz Wetzel, Aaron Williamson, Russ McMullin";
designerURL = "https://www.redhat.com/en/open-source-stories/because-we-had-to";
disablesAutomaticAlignment = 1;
familyName = "Because We Organize";
featurePrefixes = (
{
automatic = 1;
code = "languagesystem DFLT dflt;\012";
name = Languagesystems;
}
);
features = (
{
code = "sub a a' by A.ss01;\012sub b b' by B.ss01;\012sub c c' by C.ss01;\012sub d d' by D.ss01;\012sub e e' by E.ss01;\012sub f f' by F.ss01;\012sub g g' by G.ss01;\012sub h h' by H.ss01;\012sub i i' by I.ss01;\012sub j j' by J.ss01;\012sub k k' by K.ss01;\012sub l l' by L.ss01;\012sub m m' by M.ss01;\012sub n n' by N.ss01;\012sub o o' by O.ss01;\012sub p p' by P.ss01;\012sub q q' by Q.ss01;\012sub r r' by R.ss01;\012sub s s' by S.ss01;\012sub t t' by T.ss01;\012sub u u' by U.ss01;\012sub v v' by V.ss01;\012sub w w' by W.ss01;\012sub x x' by X.ss01;\012sub z z' by Z.ss01;\012sub A A' by A.ss01;\012sub B B' by B.ss01;\012sub C C' by C.ss01;\012sub D D' by D.ss01;\012sub E E' by E.ss01;\012sub F F' by F.ss01;\012sub G G' by G.ss01;\012sub H H' by H.ss01;\012sub I I' by I.ss01;\012sub J J' by J.ss01;\012sub K K' by K.ss01;\012sub L L' by L.ss01;\012sub M M' by M.ss01;\012sub N N' by N.ss01;\012sub O O' by O.ss01;\012sub P P' by P.ss01;\012sub Q Q' by Q.ss01;\012sub R R' by R.ss01;\012sub S S' by S.ss01;\012sub T T' by T.ss01;\012sub U U' by U.ss01;\012sub V V' by V.ss01;\012sub W W' by W.ss01;\012sub X X' by X.ss01;\012sub Z Z' by Z.ss01;";
name = calt;
}
);
fontMaster = (
{

glyphs = (
{
glyphname = A;
lastChange = "2019-03-20 22:35:49 +0000";
layers = (
{
hints = (
{
place = "{69, 91}";
type = Stem;
},
{
horizontal = 1;
place = "{344, 70}";
type = Stem;
}
);
layerId = UUID0;
paths = (
{
closed = 1;
nodes = (
"458 308 OFFCURVE",
"522 324 OFFCURVE",
"560 352 CURVE SMOOTH",
"571 360 OFFCURVE",
"585 371 OFFCURVE",
"585 386 CURVE SMOOTH",
"585 389 OFFCURVE",
"584 393 OFFCURVE",
"583 396 CURVE SMOOTH",
"578 409 OFFCURVE",
"548 410 OFFCURVE",
"534 410 CURVE SMOOTH",
"521 410 OFFCURVE",
"501 402 OFFCURVE",
"485 399 CURVE SMOOTH",
"449 391 OFFCURVE",
"414 381 OFFCURVE",
"369 372 CURVE",
"350 450 OFFCURVE",
"323 523 OFFCURVE",
"307 595 CURVE SMOOTH",
"297 640 OFFCURVE",
"282 654 OFFCURVE",
"235 654 CURVE SMOOTH",
"172 654 OFFCURVE",
"185 622 OFFCURVE",
"151 544 CURVE",
"144 480 OFFCURVE",
"124 413 OFFCURVE",
"114 348 CURVE",
"111 312 OFFCURVE",
"103 289 OFFCURVE",
"63 278 CURVE SMOOTH",
"41 271 OFFCURVE",
"24 261 OFFCURVE",
"24 248 CURVE SMOOTH",
"24 228 OFFCURVE",
"52 210 OFFCURVE",
"80 189 CURVE",
"85 186 LINE",
"77 122 OFFCURVE",
"68 87 OFFCURVE",
"68 44 CURVE SMOOTH",
"68 18 OFFCURVE",
"71 -10 OFFCURVE",
"109 -10 CURVE SMOOTH",
"159 -10 OFFCURVE",
"153 165 OFFCURVE",
"171 229 CURVE",
"215 243 OFFCURVE",
"234 268 OFFCURVE",
"325 273 CURVE",
"364 205 OFFCURVE",
"400 145 OFFCURVE",
"447 93 CURVE SMOOTH",
"459 79 OFFCURVE",
"492 59 OFFCURVE",
"510 59 CURVE SMOOTH",
"529 59 OFFCURVE",
"556 71 OFFCURVE",
"556 86 CURVE SMOOTH",
"556 118 OFFCURVE",
"534 135 OFFCURVE",
"509 150 CURVE",
"470 180 OFFCURVE",
"418 251 OFFCURVE",
"402 297 CURVE",
"408 298 LINE"
);
},
{
closed = 1;
nodes = (
"237 550 LINE",
"251 518 OFFCURVE",
"291 374 OFFCURVE",
"291 358 CURVE SMOOTH",
"291 346 OFFCURVE",
"271 344 OFFCURVE",
"238 337 CURVE",
"185 321 LINE"
);
}
);
width = 612;
}
);
unicode = 0041;
},
{
glyphname = B;
lastChange = "2019-03-20 22:35:49 +0000";
layers = (
{
hints = (
{
horizontal = 1;
place = "{0, 72}";
type = Stem;
},
{
horizontal = 1;
place = "{250, 82}";
type = Stem;
}
);
layerId = UUID0;
paths = (
{
closed = 1;
nodes = (
"424 414 OFFCURVE",
"451 456 OFFCURVE",
"451 503 CURVE SMOOTH",
"451 573 OFFCURVE",
"385 630 OFFCURVE",
"267 630 CURVE SMOOTH",
"179 630 OFFCURVE",
"24 582 OFFCURVE",
"24 533 CURVE SMOOTH",
"24 487 OFFCURVE",
"73 512 OFFCURVE",
"89 493 CURVE",
"94 450 OFFCURVE",
"99 407 OFFCURVE",
"105 363 CURVE SMOOTH",
"111 310 OFFCURVE",
"126 254 OFFCURVE",
"126 201 CURVE SMOOTH",
"126 182 OFFCURVE",
"123 163 OFFCURVE",
"123 145 CURVE SMOOTH",
"123 82 OFFCURVE",
"167 -16 OFFCURVE",
"199 -16 CURVE SMOOTH",
"214 -16 OFFCURVE",
"253 -2 OFFCURVE",
"283 -2 CURVE SMOOTH",
"431 -2 OFFCURVE",
"684 63 OFFCURVE",
"684 182 CURVE SMOOTH",
"684 240 OFFCURVE",
"606 298 OFFCURVE",
"532 324 CURVE SMOOTH",
"485 340 OFFCURVE",
"435 345 OFFCURVE",
"377 356 CURVE",
"381 357 LINE"
);
},
{
closed = 1;
nodes = (
"264 112 OFFCURVE",
"245 140 OFFCURVE",
"203 140 CURVE",
"186 247 LINE",
"254 264 OFFCURVE",
"320 277 OFFCURVE",
"385 277 CURVE SMOOTH",
"451 277 OFFCURVE",
"541 264 OFFCURVE",
"594 211 CURVE SMOOTH",
"603 202 OFFCURVE",
"608 193 OFFCURVE",
"608 183 CURVE SMOOTH",
"608 121 OFFCURVE",
"398 68 OFFCURVE",
"291 68 CURVE SMOOTH",
"261 68 LINE",
"265 71 LINE"
);
},
{
closed = 1;
nodes = (
"136 535 LINE",
"173 548 OFFCURVE",
"213 559 OFFCURVE",
"254 559 CURVE SMOOTH",
"321 559 OFFCURVE",
"372 532 OFFCURVE",
"372 497 CURVE SMOOTH",
"372 433 OFFCURVE",
"268 345 OFFCURVE",
"173 328 CURVE",
"173 328 LINE"
);
}
);
width = 712;
}
);
unicode = 0042;
},
{
glyphname = C;
lastChange = "2019-03-20 22:35:49 +0000";
layers = (
{
hints = (
{
horizontal = 1;
place = "{481, 61}";
type = Stem;
}
);
layerId = UUID0;
paths = (
{
closed = 1;
nodes = (
"345 87 OFFCURVE",
"466 151 OFFCURVE",
"466 205 CURVE SMOOTH",
"466 221 OFFCURVE",
"448 237 OFFCURVE",
"435 237 CURVE SMOOTH",
"419 237 OFFCURVE",
"405 220 OFFCURVE",
"391 208 CURVE SMOOTH",
"351 173 OFFCURVE",
"310 156 OFFCURVE",
"269 156 CURVE SMOOTH",
"190 156 OFFCURVE",
"91 233 OFFCURVE",
"91 332 CURVE SMOOTH",
"91 410 OFFCURVE",
"130 466 OFFCURVE",
"203 480 CURVE SMOOTH",
"220 483 OFFCURVE",
"243 493 OFFCURVE",
"243 511 CURVE",
"238 530 OFFCURVE",
"220 543 OFFCURVE",
"202 543 CURVE SMOOTH",
"134 543 OFFCURVE",
"57 477 OFFCURVE",
"36 413 CURVE SMOOTH",
"27 385 OFFCURVE",
"22 358 OFFCURVE",
"22 331 CURVE SMOOTH",
"22 202 OFFCURVE",
"127 87 OFFCURVE",
"271 87 CURVE SMOOTH",
"271 87 LINE"
);
}
);
width = 489;
}
);
unicode = 0043;
},
{
glyphname = D;
lastChange = "2019-03-20 22:35:49 +0000";
layers = (
{
hints = (
{
place = "{423, 72}";
type = Stem;
},
{
horizontal = 1;
place = "{-38, 21}";
target = up;
type = BottomGhost;
}
);
layerId = UUID0;
paths = (
{
closed = 1;
nodes = (
"478 478 OFFCURVE",
"231 528 OFFCURVE",
"68 561 CURVE SMOOTH",
"64 562 OFFCURVE",
"60 562 OFFCURVE",
"56 562 CURVE SMOOTH",
"37 562 OFFCURVE",
"25 549 OFFCURVE",
"25 530 CURVE SMOOTH",
"25 515 OFFCURVE",
"49 456 OFFCURVE",
"59 422 CURVE",
"70 335 OFFCURVE",
"81 247 OFFCURVE",
"88 160 CURVE",
"88 147 LINE SMOOTH",
"88 129 OFFCURVE",
"86 110 OFFCURVE",
"86 92 CURVE SMOOTH",
"86 60 OFFCURVE",
"119 -38 OFFCURVE",
"154 -38 CURVE SMOOTH",
"163 -38 OFFCURVE",
"174 -30 OFFCURVE",
"178 -22 CURVE SMOOTH",
"192 4 OFFCURVE",
"216 5 OFFCURVE",
"239 14 CURVE",
"359 50 OFFCURVE",
"490 146 OFFCURVE",
"495 274 CURVE",
"495 274 LINE"
);
},
{
closed = 1;
nodes = (
"121 480 LINE",
"150 471 OFFCURVE",
"174 468 OFFCURVE",
"197 461 CURVE SMOOTH",
"294 431 OFFCURVE",
"423 364 OFFCURVE",
"423 269 CURVE SMOOTH",
"423 167 OFFCURVE",
"284 93 OFFCURVE",
"171 67 CURVE",
"171 67 LINE"
);
}
);
width = 518;
}
);
unicode = 0044;
},
{
glyphname = E;
lastChange = "2019-03-20 22:35:49 +0000";
layers = (
{
hints = (
{
place = "{26, 373}";
type = Stem;
}
);
layerId = UUID0;
paths = (
{
closed = 1;
nodes = (
"107 433 LINE",
"177 459 OFFCURVE",
"238 481 OFFCURVE",
"299 507 CURVE SMOOTH",
"313 513 OFFCURVE",
"326 526 OFFCURVE",
"326 540 CURVE SMOOTH",
"326 554 OFFCURVE",
"313 572 OFFCURVE",
"299 572 CURVE SMOOTH",
"278 572 OFFCURVE",
"257 555 OFFCURVE",
"238 548 CURVE SMOOTH",
"185 528 OFFCURVE",
"134 507 OFFCURVE",
"84 491 CURVE SMOOTH",
"41 477 OFFCURVE",
"25 466 OFFCURVE",
"25 432 CURVE SMOOTH",
"25 426 OFFCURVE",
"26 419 OFFCURVE",
"27 412 CURVE SMOOTH",
"39 341 OFFCURVE",
"49 273 OFFCURVE",
"60 203 CURVE SMOOTH",
"73 119 OFFCURVE",
"71 -4 OFFCURVE",
"151 -4 CURVE SMOOTH",
"209 -4 OFFCURVE",
"310 35 OFFCURVE",
"365 71 CURVE",
"380 85 OFFCURVE",
"402 114 OFFCURVE",
"402 131 CURVE SMOOTH",
"402 157 OFFCURVE",
"393 164 OFFCURVE",
"378 164 CURVE SMOOTH",
"365 164 OFFCURVE",
"351 159 OFFCURVE",
"345 153 CURVE",
"296 92 OFFCURVE",
"226 87 OFFCURVE",
"156 63 CURVE",
"130 128 OFFCURVE",
"133 187 OFFCURVE",
"125 246 CURVE",
"185 278 OFFCURVE",
"302 325 OFFCURVE",
"302 377 CURVE SMOOTH",
"302 396 OFFCURVE",
"289 406 OFFCURVE",
"261 406 CURVE",
"249 403 OFFCURVE",
"239 392 OFFCURVE",
"228 384 CURVE SMOOTH",
"195 362 OFFCURVE",
"162 343 OFFCURVE",
"117 316 CURVE",
"117 316 LINE"
);
}
);
width = 423;
}
);
unicode = 0045;
},
{
glyphname = F;
lastChange = "2019-03-20 22:35:49 +0000";
layers = (
{
hints = (
{
place = "{24, 78}";
type = Stem;
},
{
place = "{46, 80}";
type = Stem;
},
{
horizontal = 1;
place = "{314, 60}";
type = Stem;
},
{
horizontal = 1;
place = "{522, 72}";
type = Stem;
}
);
layerId = UUID0;
paths = (
{
closed = 1;
nodes = (
"127 522 OFFCURVE",
"153 523 OFFCURVE",
"179 523 CURVE SMOOTH",
"193 523 LINE SMOOTH",
"274 523 OFFCURVE",
"354 513 OFFCURVE",
"428 472 CURVE SMOOTH",
"436 468 OFFCURVE",
"444 466 OFFCURVE",
"452 466 CURVE SMOOTH",
"465 466 OFFCURVE",
"478 473 OFFCURVE",
"478 493 CURVE SMOOTH",
"478 566 OFFCURVE",
"302 595 OFFCURVE",
"196 595 CURVE SMOOTH",
"60 595 OFFCURVE",
"22 576 OFFCURVE",
"22 488 CURVE SMOOTH",
"22 344 OFFCURVE",
"36 194 OFFCURVE",
"44 49 CURVE",
"44 31 OFFCURVE",
"50 -17 OFFCURVE",
"82 -17 CURVE",
"116 -11 OFFCURVE",
"124 34 OFFCURVE",
"124 59 CURVE SMOOTH",
"124 137 OFFCURVE",
"114 217 OFFCURVE",
"110 292 CURVE",
"199 309 OFFCURVE",
"287 323 OFFCURVE",
"376 323 CURVE SMOOTH",
"410 323 OFFCURVE",
"444 321 OFFCURVE",
"478 314 CURVE",
"494 314 OFFCURVE",
"517 320 OFFCURVE",
"521 335 CURVE SMOOTH",
"521 337 OFFCURVE",
"522 338 OFFCURVE",
"522 340 CURVE SMOOTH",
"522 355 OFFCURVE",
"506 369 OFFCURVE",
"495 374 CURVE SMOOTH",
"477 382 OFFCURVE",
"444 389 OFFCURVE",
"424 390 CURVE",
"319 387 OFFCURVE",
"218 381 OFFCURVE",
"112 362 CURVE",
"102 513 LINE"
);
}
);
width = 549;
}
);
unicode = 0046;
},
{
glyphname = G;
lastChange = "2019-03-20 22:35:49 +0000";
layers = (
{
hints = (
{
place = "{654, 66}";
type = Stem;
},
{
horizontal = 1;
place = "{446, 76}";
type = Stem;
}
);
layerId = UUID0;
paths = (
{
closed = 1;
nodes = (
"655 229 OFFCURVE",
"642 108 OFFCURVE",
"694 16 CURVE SMOOTH",
"697 10 OFFCURVE",
"710 7 OFFCURVE",
"722 7 CURVE SMOOTH",
"741 7 OFFCURVE",
"749 24 OFFCURVE",
"749 42 CURVE",
"713 138 OFFCURVE",
"729 239 OFFCURVE",
"720 337 CURVE",
"720 386 OFFCURVE",
"716 466 OFFCURVE",
"674 466 CURVE SMOOTH",
"638 466 OFFCURVE",
"623 432 OFFCURVE",
"597 416 CURVE",
"551 381 OFFCURVE",
"483 333 OFFCURVE",
"438 333 CURVE SMOOTH",
"395 333 OFFCURVE",
"330 383 OFFCURVE",
"262 383 CURVE SMOOTH",
"233 383 OFFCURVE",
"205 359 OFFCURVE",
"205 329 CURVE SMOOTH",
"205 220 OFFCURVE",
"424 305 OFFCURVE",
"424 189 CURVE SMOOTH",
"424 132 OFFCURVE",
"358 94 OFFCURVE",
"299 94 CURVE SMOOTH",
"191 94 OFFCURVE",
"99 170 OFFCURVE",
"99 282 CURVE SMOOTH",
"99 359 OFFCURVE",
"144 456 OFFCURVE",
"199 456 CURVE SMOOTH",
"212 456 OFFCURVE",
"226 443 OFFCURVE",
"243 443 CURVE SMOOTH",
"269 443 OFFCURVE",
"272 452 OFFCURVE",
"272 462 CURVE SMOOTH",
"272 471 LINE SMOOTH",
"272 511 OFFCURVE",
"229 523 OFFCURVE",
"199 523 CURVE SMOOTH",
"89 523 OFFCURVE",
"23 374 OFFCURVE",
"23 281 CURVE SMOOTH",
"23 240 OFFCURVE",
"34 198 OFFCURVE",
"59 156 CURVE SMOOTH",
"113 63 OFFCURVE",
"197 23 OFFCURVE",
"301 23 CURVE SMOOTH",
"385 23 OFFCURVE",
"491 76 OFFCURVE",
"491 187 CURVE SMOOTH",
"491 209 OFFCURVE",
"480 234 OFFCURVE",
"480 258 CURVE",
"648 350 LINE"
);
}
);
width = 773;
}
);
unicode = 0047;
},
{
glyphname = H;
lastChange = "2019-03-20 22:35:49 +0000";
layers = (
{
hints = (
{
place = "{480, 53}";
type = Stem;
}
);
layerId = UUID0;
paths = (
{
closed = 1;
nodes = (
"407 284 OFFCURVE",
"420 180 OFFCURVE",
"441 77 CURVE",
"451 42 OFFCURVE",
"479 -12 OFFCURVE",
"506 -12 CURVE SMOOTH",
"519 -12 OFFCURVE",
"533 -2 OFFCURVE",
"533 26 CURVE SMOOTH",
"533 74 OFFCURVE",
"500 126 OFFCURVE",
"492 177 CURVE SMOOTH",
"473 300 OFFCURVE",
"463 424 OFFCURVE",
"446 550 CURVE SMOOTH",
"443 572 OFFCURVE",
"435 594 OFFCURVE",
"411 594 CURVE SMOOTH",
"368 594 OFFCURVE",
"358 515 OFFCURVE",
"338 468 CURVE SMOOTH",
"314 413 OFFCURVE",
"274 378 OFFCURVE",
"213 356 CURVE",
"197 407 OFFCURVE",
"182 508 OFFCURVE",
"135 508 CURVE SMOOTH",
"101 508 OFFCURVE",
"85 409 OFFCURVE",
"82 390 CURVE",
"82 361 OFFCURVE",
"101 344 OFFCURVE",
"123 333 CURVE",
"98 333 OFFCURVE",
"76 339 OFFCURVE",
"55 339 CURVE SMOOTH",
"37 339 OFFCURVE",
"17 329 OFFCURVE",
"17 316 CURVE SMOOTH",
"17 267 OFFCURVE",
"91 262 OFFCURVE",
"143 258 CURVE SMOOTH",
"147 258 OFFCURVE",
"151 257 OFFCURVE",
"155 257 CURVE",
"167 175 OFFCURVE",
"177 43 OFFCURVE",
"226 43 CURVE SMOOTH",
"255 43 OFFCURVE",
"264 64 OFFCURVE",
"264 77 CURVE SMOOTH",
"264 90 OFFCURVE",
"258 106 OFFCURVE",
"255 120 CURVE SMOOTH",
"243 172 OFFCURVE",
"231 226 OFFCURVE",
"222 270 CURVE",
"391 388 LINE"
);
}
);
width = 560;
}
);
unicode = 0048;
},
{
glyphname = I;
lastChange = "2019-03-20 22:35:49 +0000";
layers = (
{
hints = (
{
place = "{24, 117}";
type = Stem;
},
{
horizontal = 1;
place = "{101, 370}";
type = Stem;
}
);
layerId = UUID0;
paths = (
{
closed = 1;
nodes = (
"37 443 OFFCURVE",
"47 267 OFFCURVE",
"60 185 CURVE SMOOTH",
"65 151 OFFCURVE",
"78 100 OFFCURVE",
"108 100 CURVE SMOOTH",
"134 100 OFFCURVE",
"142 117 OFFCURVE",
"142 131 CURVE SMOOTH",
"142 137 OFFCURVE",
"141 143 OFFCURVE",
"140 150 CURVE SMOOTH",
"120 245 OFFCURVE",
"103 435 OFFCURVE",
"88 529 CURVE",
"84 547 OFFCURVE",
"78 568 OFFCURVE",
"59 568 CURVE SMOOTH",
"45 568 OFFCURVE",
"24 555 OFFCURVE",
"24 532 CURVE",
"24 532 LINE"
);
}
);
width = 168;
}
);
unicode = 0049;
},
{
glyphname = J;
lastChange = "2019-03-20 22:35:49 +0000";
layers = (
{
hints = (
{
place = "{24, 63}";
type = Stem;
},
{
place = "{237, 65}";
type = Stem;
}
);
layerId = UUID0;
paths = (
{
closed = 1;
nodes = (
"141 131 OFFCURVE",
"121 195 OFFCURVE",
"88 266 CURVE SMOOTH",
"80 283 OFFCURVE",
"65 296 OFFCURVE",
"50 296 CURVE SMOOTH",
"28 296 OFFCURVE",
"24 276 OFFCURVE",
"24 255 CURVE SMOOTH",
"24 247 OFFCURVE",
"26 235 OFFCURVE",
"28 228 CURVE",
"73 141 OFFCURVE",
"118 -14 OFFCURVE",
"201 -14 CURVE SMOOTH",
"263 -14 OFFCURVE",
"277 40 OFFCURVE",
"282 83 CURVE SMOOTH",
"290 150 OFFCURVE",
"301 259 OFFCURVE",
"301 330 CURVE SMOOTH",
"301 339 LINE SMOOTH",
"300 436 OFFCURVE",
"285 584 OFFCURVE",
"220 584 CURVE SMOOTH",
"198 584 OFFCURVE",
"192 572 OFFCURVE",
"192 547 CURVE SMOOTH",
"192 516 OFFCURVE",
"212 487 OFFCURVE",
"217 458 CURVE SMOOTH",
"224 413 OFFCURVE",
"230 339 OFFCURVE",
"230 294 CURVE SMOOTH",
"230 255 OFFCURVE",
"225 190 OFFCURVE",
"219 149 CURVE SMOOTH",
"215 124 OFFCURVE",
"208 98 OFFCURVE",
"204 72 CURVE",
"195 65 LINE"
);
}
);
width = 328;
}
);
unicode = 004A;
},
{
glyphname = K;
lastChange = "2019-03-20 22:35:49 +0000";
layers = (
{
hints = (
{
place = "{26, 70}";
type = Stem;
}
);
layerId = UUID0;
paths = (
{
closed = 1;
nodes = (
"89 279 OFFCURVE",
"89 368 OFFCURVE",
"89 456 CURVE SMOOTH",
"89 478 OFFCURVE",
"88 504 OFFCURVE",
"58 504 CURVE SMOOTH",
"29 504 OFFCURVE",
"23 472 OFFCURVE",
"23 438 CURVE SMOOTH",
"23 418 OFFCURVE",
"25 396 OFFCURVE",
"25 380 CURVE SMOOTH",
"25 288 OFFCURVE",
"30 171 OFFCURVE",
"47 68 CURVE SMOOTH",
"51 42 OFFCURVE",
"82 11 OFFCURVE",
"102 11 CURVE SMOOTH",
"134 11 OFFCURVE",
"156 66 OFFCURVE",
"175 92 CURVE SMOOTH",
"184 105 OFFCURVE",
"206 112 OFFCURVE",
"218 118 CURVE",
"350 132 OFFCURVE",
"481 144 OFFCURVE",
"611 157 CURVE SMOOTH",
"639 160 OFFCURVE",
"676 151 OFFCURVE",
"676 192 CURVE SMOOTH",
"676 221 OFFCURVE",
"651 226 OFFCURVE",
"629 226 CURVE SMOOTH",
"622 226 OFFCURVE",
"614 225 OFFCURVE",
"608 225 CURVE SMOOTH",
"234 194 LINE",
"281 282 OFFCURVE",
"313 337 OFFCURVE",
"344 417 CURVE SMOOTH",
"347 425 OFFCURVE",
"349 433 OFFCURVE",
"349 441 CURVE SMOOTH",
"349 455 OFFCURVE",
"338 475 OFFCURVE",
"311 475 CURVE SMOOTH",
"293 475 OFFCURVE",
"287 457 OFFCURVE",
"278 439 CURVE SMOOTH",
"240 363 OFFCURVE",
"200 290 OFFCURVE",
"161 216 CURVE SMOOTH",
"152 199 OFFCURVE",
"142 183 OFFCURVE",
"122 183 CURVE SMOOTH",
"115 183 OFFCURVE",
"103 184 OFFCURVE",
"101 192 CURVE",
"101 192 LINE"
);
}
);
width = 697;
}
);
unicode = 004B;
},
{
glyphname = L;
lastChange = "2019-03-20 22:35:49 +0000";
layers = (
{
hints = (
{
place = "{27, 69}";
type = Stem;
},
{
place = "{37, 69}";
type = Stem;
},
{
horizontal = 1;
place = "{151, 52}";
type = Stem;
},
{
horizontal = 1;
place = "{524, -20}";
target = down;
type = TopGhost;
}
);
layerId = UUID0;
paths = (
{
closed = 1;
nodes = (
"25 223 OFFCURVE",
"26 203 OFFCURVE",
"26 171 CURVE SMOOTH",
"26 57 OFFCURVE",
"51 7 OFFCURVE",
"136 7 CURVE SMOOTH",
"147 7 OFFCURVE",
"159 9 OFFCURVE",
"172 9 CURVE",
"290 47 OFFCURVE",
"406 84 OFFCURVE",
"523 124 CURVE SMOOTH",
"544 131 OFFCURVE",
"569 149 OFFCURVE",
"569 172 CURVE SMOOTH",
"569 188 OFFCURVE",
"551 197 OFFCURVE",
"537 197 CURVE",
"525 195 OFFCURVE",
"506 190 OFFCURVE",
"495 183 CURVE",
"380 142 OFFCURVE",
"274 100 OFFCURVE",
"149 72 CURVE SMOOTH",
"145 71 OFFCURVE",
"141 71 OFFCURVE",
"137 71 CURVE SMOOTH",
"98 71 OFFCURVE",
"94 114 OFFCURVE",
"94 162 CURVE SMOOTH",
"94 271 OFFCURVE",
"105 381 OFFCURVE",
"105 490 CURVE SMOOTH",
"105 506 OFFCURVE",
"102 520 OFFCURVE",
"84 520 CURVE SMOOTH",
"54 520 OFFCURVE",
"40 490 OFFCURVE",
"37 457 CURVE SMOOTH",
"31 392 OFFCURVE",
"24 328 OFFCURVE",
"24 261 CURVE",
"24 261 LINE"
);
}
);
width = 595;
}
);
unicode = 004C;
},
{
glyphname = M;
lastChange = "2019-03-20 22:35:49 +0000";
layers = (
{
hints = (
{
place = "{30, 77}";
type = Stem;
}
);
layerId = UUID0;
paths = (
{
closed = 1;
nodes = (
"250 442 OFFCURVE",
"236 512 OFFCURVE",
"182 512 CURVE SMOOTH",
"153 512 OFFCURVE",
"127 485 OFFCURVE",
"98 446 CURVE",
"89 469 OFFCURVE",
"86 497 OFFCURVE",
"60 497 CURVE SMOOTH",
"23 497 OFFCURVE",
"22 462 OFFCURVE",
"22 440 CURVE SMOOTH",
"22 309 OFFCURVE",
"26 185 OFFCURVE",
"26 62 CURVE SMOOTH",
"26 30 OFFCURVE",
"39 -19 OFFCURVE",
"69 -19 CURVE",
"101 -11 OFFCURVE",
"105 30 OFFCURVE",
"105 56 CURVE SMOOTH",
"105 75 LINE SMOOTH",
"105 166 OFFCURVE",
"126 342 OFFCURVE",
"174 406 CURVE",
"190 336 OFFCURVE",
"204 220 OFFCURVE",
"208 149 CURVE SMOOTH",
"210 115 OFFCURVE",
"208 48 OFFCURVE",
"245 48 CURVE SMOOTH",
"279 48 OFFCURVE",
"290 102 OFFCURVE",
"301 140 CURVE SMOOTH",
"327 233 OFFCURVE",
"346 328 OFFCURVE",
"385 420 CURVE",
"396 423 LINE",
"407 302 OFFCURVE",
"418 180 OFFCURVE",
"463 50 CURVE",
"470 23 OFFCURVE",
"501 -2 OFFCURVE",
"530 -6 CURVE",
"545 -6 OFFCURVE",
"568 6 OFFCURVE",
"568 22 CURVE SMOOTH",
"568 28 OFFCURVE",
"565 40 OFFCURVE",
"559 46 CURVE",
"510 79 OFFCURVE",
"506 130 OFFCURVE",
"496 180 CURVE SMOOTH",
"478 273 OFFCURVE",
"475 365 OFFCURVE",
"458 460 CURVE",
"449 490 OFFCURVE",
"437 523 OFFCURVE",
"394 523 CURVE SMOOTH",
"324 523 OFFCURVE",
"288 377 OFFCURVE",
"267 327 CURVE",
"267 327 LINE"
);
}
);
width = 595;
}
);
unicode = 004D;
},
{
glyphname = N;
lastChange = "2019-03-20 22:35:49 +0000";
layers = (
{
hints = (
{
place = "{24, 78}";
type = Stem;
}
);
layerId = UUID0;
paths = (
{
closed = 1;
nodes = (
"280 73 OFFCURVE",
"233 120 OFFCURVE",
"220 146 CURVE SMOOTH",
"189 206 OFFCURVE",
"161 268 OFFCURVE",
"133 330 CURVE SMOOTH",
"114 372 OFFCURVE",
"100 458 OFFCURVE",
"54 458 CURVE SMOOTH",
"49 458 OFFCURVE",
"24 431 OFFCURVE",
"24 416 CURVE SMOOTH",
"24 412 OFFCURVE",
"25 409 OFFCURVE",
"25 404 CURVE SMOOTH",
"24 274 OFFCURVE",
"22 144 OFFCURVE",
"22 13 CURVE SMOOTH",
"22 -8 OFFCURVE",
"25 -39 OFFCURVE",
"65 -39 CURVE SMOOTH",
"107 -39 OFFCURVE",
"104 80 OFFCURVE",
"111 187 CURVE",
"154 119 OFFCURVE",
"219 0 OFFCURVE",
"288 0 CURVE SMOOTH",
"379 0 OFFCURVE",
"390 170 OFFCURVE",
"399 301 CURVE SMOOTH",
"402 339 LINE",
"403 343 OFFCURVE",
"404 350 OFFCURVE",
"404 353 CURVE SMOOTH",
"404 368 OFFCURVE",
"390 400 OFFCURVE",
"372 400 CURVE SMOOTH",
"360 400 OFFCURVE",
"344 384 OFFCURVE",
"338 374 CURVE SMOOTH",
"332 362 OFFCURVE",
"334 348 OFFCURVE",
"333 333 CURVE SMOOTH",
"328 281 OFFCURVE",
"326 228 OFFCURVE",
"318 175 CURVE SMOOTH",
"314 146 OFFCURVE",
"307 109 OFFCURVE",
"297 80 CURVE SMOOTH",
"296 76 OFFCURVE",
"294 73 OFFCURVE",
"287 73 CURVE SMOOTH",
"287 73 LINE"
);
}
);
width = 432;
}
);
unicode = 004E;
},
{
glyphname = O;
lastChange = "2019-03-20 22:35:49 +0000";
layers = (
{
hints = (
{
place = "{22, 68}";
type = Stem;
},
{
horizontal = 1;
place = "{-38, 73}";
type = Stem;
}
);
layerId = UUID0;
paths = (
{
closed = 1;
nodes = (
"390 -38 OFFCURVE",
"465 94 OFFCURVE",
"465 197 CURVE SMOOTH",
"465 242 OFFCURVE",
"454 290 OFFCURVE",
"433 336 CURVE SMOOTH",
"424 355 OFFCURVE",
"408 372 OFFCURVE",
"408 395 CURVE SMOOTH",
"408 406 OFFCURVE",
"413 414 OFFCURVE",
"413 423 CURVE SMOOTH",
"413 471 OFFCURVE",
"301 505 OFFCURVE",
"255 505 CURVE SMOOTH",
"199 505 OFFCURVE",
"147 481 OFFCURVE",
"108 434 CURVE SMOOTH",
"54 370 OFFCURVE",
"21 263 OFFCURVE",
"21 184 CURVE SMOOTH",
"22 63 OFFCURVE",
"132 -38 OFFCURVE",
"258 -38 CURVE SMOOTH",
"258 -38 LINE"
);
},
{
closed = 1;
nodes = (
"395 101 OFFCURVE",
"337 31 OFFCURVE",
"255 31 CURVE SMOOTH",
"162 31 OFFCURVE",
"89 111 OFFCURVE",
"89 201 CURVE SMOOTH",
"89 298 OFFCURVE",
"166 429 OFFCURVE",
"242 429 CURVE SMOOTH",
"331 429 OFFCURVE",
"395 260 OFFCURVE",
"395 197 CURVE SMOOTH",
"395 197 LINE"
);
}
);
width = 491;
}
);
unicode = 004F;
},
{
glyphname = P;
lastChange = "2019-03-20 22:35:49 +0000";
layers = (
{
hints = (
{
place = "{123, 69}";
type = Stem;
},
{
place = "{138, 68}";
type = Stem;
},
{
horizontal = 1;
place = "{231, 62}";
type = Stem;
},
{
horizontal = 1;
place = "{437, 74}";
type = Stem;
}
);
layerId = UUID0;
paths = (
{
closed = 1;
nodes = (
"100 291 OFFCURVE",
"87 294 OFFCURVE",
"76 294 CURVE SMOOTH",
"74 294 OFFCURVE",
"24 289 OFFCURVE",
"24 266 CURVE SMOOTH",
"24 232 OFFCURVE",
"73 225 OFFCURVE",
"124 209 CURVE",
"124 188 OFFCURVE",
"123 166 OFFCURVE",
"123 144 CURVE SMOOTH",
"123 103 OFFCURVE",
"129 -25 OFFCURVE",
"178 -25 CURVE SMOOTH",
"206 -25 OFFCURVE",
"216 -8 OFFCURVE",
"216 3 CURVE SMOOTH",
"216 13 OFFCURVE",
"211 25 OFFCURVE",
"207 37 CURVE SMOOTH",
"194 72 OFFCURVE",
"190 107 OFFCURVE",
"190 143 CURVE SMOOTH",
"190 170 OFFCURVE",
"192 196 OFFCURVE",
"193 222 CURVE",
"297 245 OFFCURVE",
"434 302 OFFCURVE",
"434 398 CURVE SMOOTH",
"434 483 OFFCURVE",
"307 531 OFFCURVE",
"223 531 CURVE SMOOTH",
"173 531 OFFCURVE",
"63 520 OFFCURVE",
"63 478 CURVE",
"65 464 OFFCURVE",
"80 445 OFFCURVE",
"92 441 CURVE",
"98 437 OFFCURVE",
"109 438 OFFCURVE",
"119 436 CURVE",
"118 290 LINE"
);
},
{
closed = 1;
nodes = (
"188 312 OFFCURVE",
"186 327 OFFCURVE",
"186 342 CURVE SMOOTH",
"186 356 OFFCURVE",
"188 372 OFFCURVE",
"188 386 CURVE SMOOTH",
"188 408 OFFCURVE",
"184 430 OFFCURVE",
"164 448 CURVE",
"187 454 OFFCURVE",
"211 457 OFFCURVE",
"234 457 CURVE SMOOTH",
"297 457 OFFCURVE",
"362 434 OFFCURVE",
"362 395 CURVE SMOOTH",
"362 359 OFFCURVE",
"284 310 OFFCURVE",
"195 296 CURVE",
"195 296 LINE"
);
}
);
width = 458;
}
);
unicode = 0050;
},
{
glyphname = Q;
lastChange = "2019-03-20 22:35:49 +0000";
layers = (
{
hints = (
{
place = "{24, 382}";
type = Stem;
}
);
layerId = UUID0;
paths = (
{
closed = 1;
nodes = (
"365 106 OFFCURVE",
"403 161 OFFCURVE",
"403 234 CURVE SMOOTH",
"403 316 OFFCURVE",
"348 421 OFFCURVE",
"285 424 CURVE",
"277 425 OFFCURVE",
"270 425 OFFCURVE",
"262 425 CURVE SMOOTH",
"127 425 OFFCURVE",
"24 318 OFFCURVE",
"24 182 CURVE SMOOTH",
"24 75 OFFCURVE",
"96 5 OFFCURVE",
"198 5 CURVE SMOOTH",
"223 5 OFFCURVE",
"246 8 OFFCURVE",
"262 9 CURVE",
"299 -37 OFFCURVE",
"351 -114 OFFCURVE",
"384 -114 CURVE SMOOTH",
"396 -114 OFFCURVE",
"410 -106 OFFCURVE",
"410 -88 CURVE SMOOTH",
"410 -52 OFFCURVE",
"357 8 OFFCURVE",
"327 50 CURVE",
"327 50 LINE"
);
},
{
closed = 1;
nodes = (
"220 81 OFFCURVE",
"208 80 OFFCURVE",
"196 80 CURVE SMOOTH",
"131 80 OFFCURVE",
"93 115 OFFCURVE",
"93 177 CURVE SMOOTH",
"93 254 OFFCURVE",
"132 317 OFFCURVE",
"204 344 CURVE",
"249 300 OFFCURVE",
"266 296 OFFCURVE",
"317 294 CURVE",
"327 271 OFFCURVE",
"333 249 OFFCURVE",
"333 226 CURVE SMOOTH",
"333 192 OFFCURVE",
"320 158 OFFCURVE",
"292 123 CURVE",
"266 170 OFFCURVE",
"246 234 OFFCURVE",
"217 234 CURVE SMOOTH",
"192 234 OFFCURVE",
"183 214 OFFCURVE",
"183 201 CURVE SMOOTH",
"183 173 OFFCURVE",
"214 119 OFFCURVE",
"233 83 CURVE",
"233 83 LINE"
);
}
);
width = 434;
}
);
unicode = 0051;
},
{
glyphname = R;
lastChange = "2019-03-20 22:35:49 +0000";
layers = (
{
hints = (
{
horizontal = 1;
place = "{129, 66}";
type = Stem;
},
{
horizontal = 1;
place = "{474, 71}";
type = Stem;
}
);
layerId = UUID0;
paths = (
{
closed = 1;
nodes = (
"205 112 OFFCURVE",
"246 107 OFFCURVE",
"287 107 CURVE SMOOTH",
"311 107 OFFCURVE",
"335 108 OFFCURVE",
"359 110 CURVE SMOOTH",
"426 116 OFFCURVE",
"436 113 OFFCURVE",
"504 120 CURVE",
"534 120 LINE SMOOTH",
"552 120 OFFCURVE",
"575 124 OFFCURVE",
"575 157 CURVE SMOOTH",
"575 175 OFFCURVE",
"557 186 OFFCURVE",
"521 186 CURVE SMOOTH",
"426 186 OFFCURVE",
"415 178 OFFCURVE",
"326 178 CURVE SMOOTH",
"302 178 OFFCURVE",
"277 181 OFFCURVE",
"243 182 CURVE",
"327 274 OFFCURVE",
"406 349 OFFCURVE",
"406 440 CURVE SMOOTH",
"406 504 OFFCURVE",
"355 544 OFFCURVE",
"276 544 CURVE SMOOTH",
"199 544 OFFCURVE",
"127 519 OFFCURVE",
"58 485 CURVE",
"40 480 OFFCURVE",
"26 459 OFFCURVE",
"26 448 CURVE SMOOTH",
"26 432 OFFCURVE",
"38 422 OFFCURVE",
"68 409 CURVE",
"77 302 OFFCURVE",
"87 198 OFFCURVE",
"98 97 CURVE SMOOTH",
"103 51 OFFCURVE",
"116 -23 OFFCURVE",
"154 -23 CURVE SMOOTH",
"179 -23 OFFCURVE",
"188 -6 OFFCURVE",
"188 8 CURVE SMOOTH",
"188 33 OFFCURVE",
"169 95 OFFCURVE",
"161 135 CURVE",
"161 135 LINE"
);
},
{
closed = 1;
nodes = (
"135 439 LINE",
"169 458 OFFCURVE",
"226 471 OFFCURVE",
"264 471 CURVE SMOOTH",
"309 471 OFFCURVE",
"332 462 OFFCURVE",
"332 434 CURVE SMOOTH",
"332 408 OFFCURVE",
"298 350 OFFCURVE",
"275 323 CURVE SMOOTH",
"239 279 OFFCURVE",
"201 238 OFFCURVE",
"153 187 CURVE",
"153 191 LINE"
);
}
);
width = 595;
}
);
unicode = 0052;
},
{
glyphname = S;
lastChange = "2019-03-20 22:35:49 +0000";
layers = (
{
hints = (
{
place = "{160, 72}";
type = Stem;
},
{
horizontal = 1;
place = "{-20, 71}";
type = Stem;
},
{
horizontal = 1;
place = "{502, 69}";
type = Stem;
}
);
layerId = UUID0;
paths = (
{
closed = 1;
nodes = (
"330 73 OFFCURVE",
"264 51 OFFCURVE",
"199 51 CURVE SMOOTH",
"160 51 OFFCURVE",
"122 59 OFFCURVE",
"83 81 CURVE",
"73 85 OFFCURVE",
"63 90 OFFCURVE",
"54 90 CURVE SMOOTH",
"39 90 OFFCURVE",
"25 71 OFFCURVE",
"25 58 CURVE SMOOTH",
"25 32 OFFCURVE",
"75 -4 OFFCURVE",
"109 -12 CURVE",
"134 -16 OFFCURVE",
"175 -20 OFFCURVE",
"202 -20 CURVE SMOOTH",
"304 -20 OFFCURVE",
"468 25 OFFCURVE",
"468 99 CURVE SMOOTH",
"468 160 OFFCURVE",
"377 212 OFFCURVE",
"329 266 CURVE",
"289 304 OFFCURVE",
"232 377 OFFCURVE",
"232 416 CURVE SMOOTH",
"232 454 OFFCURVE",
"268 502 OFFCURVE",
"304 502 CURVE SMOOTH",
"318 502 OFFCURVE",
"335 494 OFFCURVE",
"363 474 CURVE",
"372 469 OFFCURVE",
"385 462 OFFCURVE",
"395 462 CURVE SMOOTH",
"409 462 OFFCURVE",
"414 477 OFFCURVE",
"414 490 CURVE SMOOTH",
"414 542 OFFCURVE",
"351 571 OFFCURVE",
"310 571 CURVE SMOOTH",
"231 571 OFFCURVE",
"160 491 OFFCURVE",
"160 414 CURVE SMOOTH",
"160 321 OFFCURVE",
"262 234 OFFCURVE",
"332 162 CURVE SMOOTH",
"351 142 OFFCURVE",
"371 131 OFFCURVE",
"402 97 CURVE",
"402 97 LINE"
);
}
);
width = 489;
}
);
unicode = 0053;
},
{
glyphname = T;
lastChange = "2019-03-20 22:35:49 +0000";
layers = (
{
hints = (
{
place = "{247, 65}";
type = Stem;
},
{
place = "{255, 64}";
type = Stem;
},
{
horizontal = 1;
place = "{495, 88}";
type = Stem;
},
{
horizontal = 1;
place = "{499, 63}";
type = Stem;
}
);
layerId = UUID0;
paths = (
{
closed = 1;
nodes = (
"385 510 OFFCURVE",
"444 508 OFFCURVE",
"504 502 CURVE SMOOTH",
"510 501 OFFCURVE",
"517 500 OFFCURVE",
"523 500 CURVE SMOOTH",
"535 500 OFFCURVE",
"552 509 OFFCURVE",
"552 532 CURVE SMOOTH",
"552 580 OFFCURVE",
"456 581 OFFCURVE",
"412 581 CURVE",
"300 574 OFFCURVE",
"187 568 OFFCURVE",
"76 560 CURVE",
"59 560 OFFCURVE",
"35 542 OFFCURVE",
"35 532 CURVE SMOOTH",
"35 496 OFFCURVE",
"84 490 OFFCURVE",
"126 490 CURVE SMOOTH",
"151 490 OFFCURVE",
"173 492 OFFCURVE",
"180 492 CURVE SMOOTH",
"249 492 LINE",
"249 440 LINE SMOOTH",
"250 313 OFFCURVE",
"251 185 OFFCURVE",
"256 59 CURVE SMOOTH",
"258 14 OFFCURVE",
"278 -41 OFFCURVE",
"324 -41 CURVE",
"338 -39 OFFCURVE",
"343 -30 OFFCURVE",
"343 -19 CURVE SMOOTH",
"343 0 OFFCURVE",
"325 55 OFFCURVE",
"323 92 CURVE SMOOTH",
"317 208 OFFCURVE",
"315 325 OFFCURVE",
"313 441 CURVE",
"314 461 OFFCURVE",
"317 492 OFFCURVE",
"318 516 CURVE",
"318 516 LINE"
);
}
);
width = 568;
}
);
unicode = 0054;
},
{
glyphname = U;
lastChange = "2019-03-20 22:35:49 +0000";
layers = (
{
hints = (
{
place = "{28, 68}";
type = Stem;
},
{
place = "{259, 66}";
type = Stem;
},
{
horizontal = 1;
place = "{-140, 65}";
type = Stem;
}
);
layerId = UUID0;
paths = (
{
closed = 1;
nodes = (
"160 60 OFFCURVE",
"125 137 OFFCURVE",
"118 157 CURVE SMOOTH",
"99 218 OFFCURVE",
"92 281 OFFCURVE",
"92 343 CURVE SMOOTH",
"92 364 OFFCURVE",
"93 385 OFFCURVE",
"94 406 CURVE SMOOTH",
"94 423 LINE SMOOTH",
"94 436 OFFCURVE",
"92 456 OFFCURVE",
"89 465 CURVE SMOOTH",
"85 476 OFFCURVE",
"71 484 OFFCURVE",
"61 485 CURVE",
"43 485 OFFCURVE",
"28 458 OFFCURVE",
"28 443 CURVE",
"26 407 OFFCURVE",
"24 371 OFFCURVE",
"24 335 CURVE SMOOTH",
"24 219 OFFCURVE",
"41 107 OFFCURVE",
"112 25 CURVE SMOOTH",
"131 4 OFFCURVE",
"153 -6 OFFCURVE",
"174 -6 CURVE SMOOTH",
"199 -6 OFFCURVE",
"223 8 OFFCURVE",
"243 35 CURVE SMOOTH",
"255 51 OFFCURVE",
"273 83 OFFCURVE",
"282 102 CURVE",
"291 73 OFFCURVE",
"295 52 OFFCURVE",
"304 35 CURVE",
"318 -3 OFFCURVE",
"346 -62 OFFCURVE",
"366 -97 CURVE",
"378 -123 OFFCURVE",
"413 -144 OFFCURVE",
"441 -144 CURVE SMOOTH",
"447 -144 OFFCURVE",
"458 -142 OFFCURVE",
"463 -141 CURVE SMOOTH",
"478 -137 OFFCURVE",
"500 -126 OFFCURVE",
"501 -109 CURVE SMOOTH",
"501 -92 OFFCURVE",
"482 -76 OFFCURVE",
"469 -75 CURVE SMOOTH",
"427 -72 OFFCURVE",
"414 -44 OFFCURVE",
"400 -14 CURVE SMOOTH",
"391 5 OFFCURVE",
"379 39 OFFCURVE",
"373 60 CURVE SMOOTH",
"342 162 OFFCURVE",
"324 266 OFFCURVE",
"324 373 CURVE SMOOTH",
"324 398 OFFCURVE",
"325 424 OFFCURVE",
"327 449 CURVE SMOOTH",
"328 460 OFFCURVE",
"329 476 OFFCURVE",
"329 485 CURVE SMOOTH",
"329 495 OFFCURVE",
"328 510 OFFCURVE",
"327 521 CURVE",
"324 533 OFFCURVE",
"311 556 OFFCURVE",
"295 556 CURVE SMOOTH",
"279 556 OFFCURVE",
"265 537 OFFCURVE",
"261 524 CURVE SMOOTH",
"253 498 OFFCURVE",
"255 468 OFFCURVE",
"252 440 CURVE SMOOTH",
"243 351 OFFCURVE",
"235 261 OFFCURVE",
"223 171 CURVE SMOOTH",
"218 135 OFFCURVE",
"205 65 OFFCURVE",
"187 60 CURVE",
"187 60 LINE"
);
}
);
width = 523;
}
);
unicode = 0055;
},
{
glyphname = V;
lastChange = "2019-03-20 22:35:49 +0000";
layers = (
{
hints = (
{
place = "{281, 69}";
type = Stem;
}
);
layerId = UUID0;
paths = (
{
closed = 1;
nodes = (
"213 105 OFFCURVE",
"203 136 OFFCURVE",
"187 172 CURVE SMOOTH",
"154 245 OFFCURVE",
"126 318 OFFCURVE",
"96 392 CURVE",
"84 416 OFFCURVE",
"77 446 OFFCURVE",
"42 446 CURVE SMOOTH",
"28 446 OFFCURVE",
"23 430 OFFCURVE",
"23 413 CURVE SMOOTH",
"23 406 OFFCURVE",
"25 397 OFFCURVE",
"27 391 CURVE SMOOTH",
"65 294 OFFCURVE",
"104 198 OFFCURVE",
"145 105 CURVE SMOOTH",
"168 52 OFFCURVE",
"220 -4 OFFCURVE",
"256 -4 CURVE SMOOTH",
"345 -4 OFFCURVE",
"360 188 OFFCURVE",
"360 292 CURVE SMOOTH",
"360 300 LINE SMOOTH",
"360 368 OFFCURVE",
"359 496 OFFCURVE",
"314 496 CURVE SMOOTH",
"283 496 OFFCURVE",
"278 476 OFFCURVE",
"278 454 CURVE SMOOTH",
"278 442 OFFCURVE",
"282 427 OFFCURVE",
"282 415 CURVE SMOOTH",
"283 367 OFFCURVE",
"285 319 OFFCURVE",
"285 272 CURVE SMOOTH",
"285 198 OFFCURVE",
"275 147 OFFCURVE",
"259 69 CURVE",
"259 69 LINE"
);
}
);
width = 385;
}
);
unicode = 0056;
},
{
glyphname = W;
lastChange = "2019-03-20 22:35:49 +0000";
layers = (
{
hints = (
{
place = "{327, 71}";
type = Stem;
},
{
place = "{615, 67}";
type = Stem;
}
);
layerId = UUID0;
paths = (
{
closed = 1;
nodes = (
"465 50 OFFCURVE",
"505 8 OFFCURVE",
"560 8 CURVE SMOOTH",
"619 8 OFFCURVE",
"681 76 OFFCURVE",
"681 191 CURVE SMOOTH",
"681 274 OFFCURVE",
"675 357 OFFCURVE",
"666 440 CURVE SMOOTH",
"659 503 OFFCURVE",
"621 556 OFFCURVE",
"567 583 CURVE SMOOTH",
"563 585 OFFCURVE",
"557 586 OFFCURVE",
"551 586 CURVE SMOOTH",
"534 586 OFFCURVE",
"519 579 OFFCURVE",
"519 563 CURVE SMOOTH",
"519 550 OFFCURVE",
"527 534 OFFCURVE",
"534 530 CURVE SMOOTH",
"566 510 OFFCURVE",
"592 467 OFFCURVE",
"594 433 CURVE",
"602 370 OFFCURVE",
"609 270 OFFCURVE",
"610 208 CURVE",
"608 155 OFFCURVE",
"584 78 OFFCURVE",
"552 78 CURVE SMOOTH",
"524 78 OFFCURVE",
"476 137 OFFCURVE",
"456 180 CURVE",
"416 253 OFFCURVE",
"393 343 OFFCURVE",
"393 425 CURVE SMOOTH",
"393 459 OFFCURVE",
"381 499 OFFCURVE",
"357 499 CURVE SMOOTH",
"327 499 OFFCURVE",
"318 454 OFFCURVE",
"318 433 CURVE SMOOTH",
"318 364 OFFCURVE",
"321 295 OFFCURVE",
"321 226 CURVE SMOOTH",
"321 207 OFFCURVE",
"323 183 OFFCURVE",
"323 159 CURVE SMOOTH",
"323 109 OFFCURVE",
"305 33 OFFCURVE",
"278 25 CURVE SMOOTH",
"252 17 OFFCURVE",
"207 81 OFFCURVE",
"192 120 CURVE SMOOTH",
"159 208 OFFCURVE",
"134 300 OFFCURVE",
"108 391 CURVE SMOOTH",
"94 439 OFFCURVE",
"91 524 OFFCURVE",
"49 524 CURVE SMOOTH",
"25 524 OFFCURVE",
"17 507 OFFCURVE",
"17 492 CURVE SMOOTH",
"17 485 OFFCURVE",
"18 479 OFFCURVE",
"20 472 CURVE SMOOTH",
"44 351 OFFCURVE",
"76 221 OFFCURVE",
"128 94 CURVE SMOOTH",
"153 31 OFFCURVE",
"222 -47 OFFCURVE",
"277 -47 CURVE SMOOTH",
"311 -47 OFFCURVE",
"341 -25 OFFCURVE",
"360 15 CURVE SMOOTH",
"375 46 OFFCURVE",
"381 82 OFFCURVE",
"396 124 CURVE",
"401 124 LINE"
);
}
);
width = 707;
}
);
unicode = 0057;
},
{
glyphname = X;
lastChange = "2019-03-20 22:35:49 +0000";
layers = (
{
hints = (
{
horizontal = 1;
place = "{370, 58}";
type = Stem;
},
{
horizontal = 1;
place = "{534, -20}";
target = down;
type = TopGhost;
}
);
layerId = UUID0;
paths = (
{
closed = 1;
nodes = (
"351 129 OFFCURVE",
"387 81 OFFCURVE",
"440 25 CURVE SMOOTH",
"450 14 OFFCURVE",
"461 7 OFFCURVE",
"473 7 CURVE SMOOTH",
"490 7 OFFCURVE",
"505 26 OFFCURVE",
"505 39 CURVE SMOOTH",
"505 60 OFFCURVE",
"479 78 OFFCURVE",
"463 101 CURVE",
"419 150 OFFCURVE",
"374 203 OFFCURVE",
"329 255 CURVE",
"369 323 OFFCURVE",
"406 387 OFFCURVE",
"444 450 CURVE SMOOTH",
"451 462 OFFCURVE",
"463 485 OFFCURVE",
"463 495 CURVE SMOOTH",
"463 514 OFFCURVE",
"457 531 OFFCURVE",
"439 531 CURVE SMOOTH",
"412 531 OFFCURVE",
"390 496 OFFCURVE",
"378 471 CURVE",
"345 420 OFFCURVE",
"313 367 OFFCURVE",
"278 312 CURVE",
"215 363 OFFCURVE",
"149 425 OFFCURVE",
"76 425 CURVE SMOOTH",
"63 425 OFFCURVE",
"21 424 OFFCURVE",
"21 388 CURVE SMOOTH",
"21 375 OFFCURVE",
"43 363 OFFCURVE",
"52 363 CURVE SMOOTH",
"141 362 OFFCURVE",
"181 296 OFFCURVE",
"235 244 CURVE",
"178 162 OFFCURVE",
"127 82 OFFCURVE",
"71 3 CURVE SMOOTH",
"54 -21 OFFCURVE",
"30 -57 OFFCURVE",
"30 -78 CURVE SMOOTH",
"30 -93 OFFCURVE",
"36 -106 OFFCURVE",
"52 -106 CURVE SMOOTH",
"83 -106 OFFCURVE",
"110 -67 OFFCURVE",
"131 -37 CURVE SMOOTH",
"181 36 OFFCURVE",
"230 107 OFFCURVE",
"289 196 CURVE",
"289 196 LINE"
);
}
);
width = 529;
}
);
unicode = 0058;
},
{
glyphname = Y;
lastChange = "2019-03-20 22:35:49 +0000";
layers = (
{
hints = (
{
place = "{321, 71}";
type = Stem;
},
{
place = "{381, 60}";
type = Stem;
}
);
layerId = UUID0;
paths = (
{
closed = 1;
nodes = (
"253 439 OFFCURVE",
"199 482 OFFCURVE",
"144 526 CURVE SMOOTH",
"115 549 LINE SMOOTH",
"97 564 OFFCURVE",
"63 591 OFFCURVE",
"47 591 CURVE SMOOTH",
"31 591 OFFCURVE",
"9 584 OFFCURVE",
"9 567 CURVE SMOOTH",
"9 538 OFFCURVE",
"77 489 OFFCURVE",
"118 460 CURVE SMOOTH",
"174 420 OFFCURVE",
"229 373 OFFCURVE",
"290 339 CURVE",
"316 328 OFFCURVE",
"338 293 OFFCURVE",
"338 265 CURVE",
"344 191 OFFCURVE",
"352 117 OFFCURVE",
"363 42 CURVE SMOOTH",
"368 13 OFFCURVE",
"376 -29 OFFCURVE",
"408 -29 CURVE SMOOTH",
"421 -29 OFFCURVE",
"441 -3 OFFCURVE",
"441 7 CURVE SMOOTH",
"441 15 OFFCURVE",
"437 24 OFFCURVE",
"436 33 CURVE SMOOTH",
"422 167 OFFCURVE",
"406 300 OFFCURVE",
"392 434 CURVE",
"391 437 OFFCURVE",
"390 444 OFFCURVE",
"390 447 CURVE SMOOTH",
"390 476 OFFCURVE",
"404 493 OFFCURVE",
"404 516 CURVE SMOOTH",
"404 557 OFFCURVE",
"384 618 OFFCURVE",
"350 618 CURVE SMOOTH",
"320 618 OFFCURVE",
"317 582 OFFCURVE",
"317 550 CURVE SMOOTH",
"317 520 LINE",
"324 401 LINE"
);
}
);
width = 467;
}
);
unicode = 0059;
},
{
glyphname = Z;
lastChange = "2019-03-20 22:35:49 +0000";
layers = (
{
hints = (
{
place = "{268, 68}";
type = Stem;
},
{
horizontal = 1;
place = "{546, 73}";
type = Stem;
}
);
layerId = UUID0;
paths = (
{
closed = 1;
nodes = (
"225 293 OFFCURVE",
"195 204 OFFCURVE",
"161 115 CURVE SMOOTH",
"152 91 OFFCURVE",
"148 71 OFFCURVE",
"148 55 CURVE SMOOTH",
"148 6 OFFCURVE",
"183 -13 OFFCURVE",
"228 -13 CURVE SMOOTH",
"244 -13 OFFCURVE",
"270 -11 OFFCURVE",
"283 -6 CURVE SMOOTH",
"375 25 OFFCURVE",
"467 56 OFFCURVE",
"558 89 CURVE SMOOTH",
"592 101 OFFCURVE",
"609 120 OFFCURVE",
"609 134 CURVE SMOOTH",
"609 156 OFFCURVE",
"585 166 OFFCURVE",
"575 166 CURVE SMOOTH",
"561 166 OFFCURVE",
"546 158 OFFCURVE",
"532 153 CURVE SMOOTH",
"458 127 OFFCURVE",
"384 97 OFFCURVE",
"308 72 CURVE SMOOTH",
"284 64 OFFCURVE",
"240 48 OFFCURVE",
"221 48 CURVE SMOOTH",
"215 48 OFFCURVE",
"212 50 OFFCURVE",
"212 54 CURVE SMOOTH",
"212 89 OFFCURVE",
"318 316 OFFCURVE",
"332 450 CURVE SMOOTH",
"333 460 OFFCURVE",
"333 472 OFFCURVE",
"333 482 CURVE SMOOTH",
"333 553 OFFCURVE",
"322 619 OFFCURVE",
"253 619 CURVE SMOOTH",
"170 619 OFFCURVE",
"101 572 OFFCURVE",
"31 526 CURVE SMOOTH",
"26 523 OFFCURVE",
"24 512 OFFCURVE",
"24 502 CURVE SMOOTH",
"24 487 OFFCURVE",
"27 475 OFFCURVE",
"53 475 CURVE SMOOTH",
"64 475 OFFCURVE",
"97 490 OFFCURVE",
"113 499 CURVE",
"158 517 OFFCURVE",
"198 546 OFFCURVE",
"254 546 CURVE SMOOTH",
"267 546 OFFCURVE",
"268 513 OFFCURVE",
"268 493 CURVE SMOOTH",
"268 448 OFFCURVE",
"259 415 OFFCURVE",
"252 383 CURVE",
"252 383 LINE"
);
}
);
width = 633;
}
);
unicode = 005A;
},
{
glyphname = A.ss01;
lastChange = "2019-03-20 23:28:45 +0000";
layers = (
{
hints = (
{
place = "{57, 68}";
type = Stem;
},
{
place = "{332, 71}";
type = Stem;
}
);
layerId = UUID0;
paths = (
{
closed = 1;
nodes = (
"294 374 OFFCURVE",
"285 499 OFFCURVE",
"253 580 CURVE SMOOTH",
"244 603 OFFCURVE",
"226 613 OFFCURVE",
"207 613 CURVE SMOOTH",
"197 613 OFFCURVE",
"190 612 OFFCURVE",
"177 604 CURVE SMOOTH",
"120 570 OFFCURVE",
"101 525 OFFCURVE",
"96 457 CURVE SMOOTH",
"93 415 OFFCURVE",
"87 372 OFFCURVE",
"84 328 CURVE SMOOTH",
"82 294 OFFCURVE",
"81 271 OFFCURVE",
"45 258 CURVE SMOOTH",
"31 253 OFFCURVE",
"22 245 OFFCURVE",
"22 234 CURVE SMOOTH",
"22 218 OFFCURVE",
"41 200 OFFCURVE",
"67 191 CURVE",
"67 152 LINE SMOOTH",
"67 120 OFFCURVE",
"60 84 OFFCURVE",
"60 49 CURVE SMOOTH",
"60 32 OFFCURVE",
"65 -1 OFFCURVE",
"96 -1 CURVE SMOOTH",
"145 -1 OFFCURVE",
"143 141 OFFCURVE",
"156 198 CURVE SMOOTH",
"160 216 OFFCURVE",
"169 237 OFFCURVE",
"178 243 CURVE",
"206 258 OFFCURVE",
"230 278 OFFCURVE",
"265 278 CURVE",
"283 198 OFFCURVE",
"297 116 OFFCURVE",
"336 47 CURVE",
"346 34 OFFCURVE",
"380 28 OFFCURVE",
"387 28 CURVE SMOOTH",
"403 28 OFFCURVE",
"408 66 OFFCURVE",
"408 84 CURVE SMOOTH",
"408 93 OFFCURVE",
"400 103 OFFCURVE",
"396 109 CURVE",
"357 152 OFFCURVE",
"337 227 OFFCURVE",
"337 284 CURVE SMOOTH",
"337 300 OFFCURVE",
"349 328 OFFCURVE",
"349 344 CURVE SMOOTH",
"349 349 OFFCURVE",
"348 353 OFFCURVE",
"345 355 CURVE SMOOTH",
"335 362 LINE"
);
},
{
closed = 1;
nodes = (
"223 339 OFFCURVE",
"204 332 OFFCURVE",
"184 325 CURVE",
"182 336 OFFCURVE",
"182 346 OFFCURVE",
"182 358 CURVE SMOOTH",
"182 398 OFFCURVE",
"191 444 OFFCURVE",
"214 505 CURVE",
"250 350 LINE"
);
}
);
width = 423;
}
);
},
{
glyphname = B.ss01;
lastChange = "2019-03-20 23:28:45 +0000";
layers = (
{
hints = (
{
horizontal = 1;
place = "{552, 62}";
type = Stem;
}
);
layerId = UUID0;
paths = (
{
closed = 1;
nodes = (
"388 382 OFFCURVE",
"483 463 OFFCURVE",
"483 529 CURVE SMOOTH",
"483 576 OFFCURVE",
"437 614 OFFCURVE",
"360 614 CURVE SMOOTH",
"252 614 OFFCURVE",
"101 595 OFFCURVE",
"37 533 CURVE SMOOTH",
"28 524 OFFCURVE",
"21 515 OFFCURVE",
"21 504 CURVE SMOOTH",
"21 473 OFFCURVE",
"53 455 OFFCURVE",
"79 455 CURVE SMOOTH",
"101 455 OFFCURVE",
"153 471 OFFCURVE",
"153 489 CURVE",
"150 510 OFFCURVE",
"130 506 OFFCURVE",
"118 511 CURVE",
"130 516 OFFCURVE",
"136 518 OFFCURVE",
"149 522 CURVE",
"165 443 OFFCURVE",
"181 366 OFFCURVE",
"196 289 CURVE",
"161 266 OFFCURVE",
"112 243 OFFCURVE",
"112 209 CURVE SMOOTH",
"112 182 OFFCURVE",
"137 182 OFFCURVE",
"156 182 CURVE SMOOTH",
"174 182 OFFCURVE",
"191 188 OFFCURVE",
"208 193 CURVE",
"230 130 OFFCURVE",
"222 55 OFFCURVE",
"265 -12 CURVE",
"416 -12 OFFCURVE",
"515 44 OFFCURVE",
"594 153 CURVE SMOOTH",
"610 175 OFFCURVE",
"618 197 OFFCURVE",
"618 218 CURVE SMOOTH",
"618 272 OFFCURVE",
"568 303 OFFCURVE",
"480 303 CURVE SMOOTH",
"422 303 OFFCURVE",
"376 295 OFFCURVE",
"304 288 CURVE",
"316 299 OFFCURVE",
"329 308 OFFCURVE",
"337 317 CURVE SMOOTH",
"337 317 LINE"
);
},
{
closed = 1;
nodes = (
"333 234 OFFCURVE",
"397 249 OFFCURVE",
"459 249 CURVE SMOOTH",
"503 249 OFFCURVE",
"558 244 OFFCURVE",
"558 220 CURVE SMOOTH",
"558 212 OFFCURVE",
"554 203 OFFCURVE",
"546 192 CURVE SMOOTH",
"499 124 OFFCURVE",
"434 81 OFFCURVE",
"349 57 CURVE",
"340 77 OFFCURVE",
"333 99 OFFCURVE",
"325 124 CURVE",
"337 138 OFFCURVE",
"370 166 OFFCURVE",
"370 181 CURVE SMOOTH",
"370 193 OFFCURVE",
"344 203 OFFCURVE",
"333 203 CURVE SMOOTH",
"311 203 OFFCURVE",
"293 181 OFFCURVE",
"280 180 CURVE",
"279 191 OFFCURVE",
"274 200 OFFCURVE",
"273 216 CURVE",
"273 216 LINE"
);
},
{
closed = 1;
nodes = (
"255 544 OFFCURVE",
"295 549 OFFCURVE",
"336 549 CURVE SMOOTH",
"405 549 OFFCURVE",
"421 540 OFFCURVE",
"421 521 CURVE",
"420 512 OFFCURVE",
"416 502 OFFCURVE",
"407 488 CURVE SMOOTH",
"369 426 OFFCURVE",
"312 374 OFFCURVE",
"254 328 CURVE",
"253 331 OFFCURVE",
"252 339 OFFCURVE",
"252 340 CURVE",
"215 531 LINE"
);
}
);
width = 634;
}
);
},
{
glyphname = C.ss01;
lastChange = "2019-03-20 23:28:45 +0000";
layers = (
{
hints = (
{
horizontal = 1;
place = "{516, 21}";
target = up;
type = BottomGhost;
}
);
layerId = UUID0;
paths = (
{
closed = 1;
nodes = (
"384 525 OFFCURVE",
"385 536 OFFCURVE",
"385 543 CURVE SMOOTH",
"385 595 OFFCURVE",
"304 612 OFFCURVE",
"260 612 CURVE SMOOTH",
"110 612 OFFCURVE",
"18 426 OFFCURVE",
"18 298 CURVE SMOOTH",
"18 101 OFFCURVE",
"144 -11 OFFCURVE",
"328 -11 CURVE SMOOTH",
"431 -11 OFFCURVE",
"516 33 OFFCURVE",
"571 125 CURVE SMOOTH",
"599 171 OFFCURVE",
"634 220 OFFCURVE",
"634 279 CURVE SMOOTH",
"634 284 OFFCURVE",
"635 289 OFFCURVE",
"635 294 CURVE SMOOTH",
"635 300 OFFCURVE",
"634 305 OFFCURVE",
"628 311 CURVE SMOOTH",
"618 321 OFFCURVE",
"607 323 OFFCURVE",
"600 323 CURVE SMOOTH",
"551 323 OFFCURVE",
"528 210 OFFCURVE",
"489 156 CURVE SMOOTH",
"448 100 OFFCURVE",
"392 72 OFFCURVE",
"326 72 CURVE SMOOTH",
"185 72 OFFCURVE",
"101 167 OFFCURVE",
"101 297 CURVE SMOOTH",
"101 393 OFFCURVE",
"166 532 OFFCURVE",
"256 532 CURVE SMOOTH",
"303 532 OFFCURVE",
"332 512 OFFCURVE",
"355 512 CURVE SMOOTH",
"360 512 OFFCURVE",
"365 513 OFFCURVE",
"370 516 CURVE SMOOTH",
"370 516 LINE"
);
}
);
width = 654;
}
);
},
{
glyphname = D.ss01;
lastChange = "2019-03-20 23:28:45 +0000";
layers = (
{
hints = (
{
horizontal = 1;
place = "{2, 21}";
target = up;
type = BottomGhost;
},
{
horizontal = 1;
place = "{571, -20}";
target = down;
type = TopGhost;
}
);
layerId = UUID0;
paths = (
{
closed = 1;
nodes = (
"70 565 OFFCURVE",
"23 555 OFFCURVE",
"23 534 CURVE SMOOTH",
"23 517 OFFCURVE",
"37 491 OFFCURVE",
"48 478 CURVE SMOOTH",
"71 451 OFFCURVE",
"75 425 OFFCURVE",
"79 395 CURVE SMOOTH",
"96 262 OFFCURVE",
"127 128 OFFCURVE",
"136 -1 CURVE SMOOTH",
"139 -42 OFFCURVE",
"173 -79 OFFCURVE",
"212 -79 CURVE SMOOTH",
"219 -79 OFFCURVE",
"226 -78 OFFCURVE",
"234 -75 CURVE SMOOTH",
"375 -22 OFFCURVE",
"575 86 OFFCURVE",
"575 243 CURVE SMOOTH",
"575 291 OFFCURVE",
"554 338 OFFCURVE",
"510 383 CURVE SMOOTH",
"398 498 OFFCURVE",
"256 549 OFFCURVE",
"84 571 CURVE",
"84 571 LINE"
);
},
{
closed = 1;
nodes = (
"231 22 OFFCURVE",
"235 39 OFFCURVE",
"228 47 CURVE SMOOTH",
"153 141 OFFCURVE",
"161 256 OFFCURVE",
"143 363 CURVE SMOOTH",
"135 407 OFFCURVE",
"129 449 OFFCURVE",
"121 492 CURVE",
"134 492 LINE SMOOTH",
"283 492 OFFCURVE",
"511 345 OFFCURVE",
"511 238 CURVE SMOOTH",
"511 210 OFFCURVE",
"499 185 OFFCURVE",
"474 153 CURVE SMOOTH",
"414 76 OFFCURVE",
"334 27 OFFCURVE",
"234 -3 CURVE",
"234 -3 LINE"
);
}
);
width = 597;
}
);
},
{
glyphname = E.ss01;
lastChange = "2019-03-20 23:28:45 +0000";
layers = (
{
hints = (
{
place = "{40, 86}";
type = Stem;
}
);
layerId = UUID0;
paths = (
{
closed = 1;
nodes = (
"355 99 OFFCURVE",
"225 31 OFFCURVE",
"155 31 CURVE SMOOTH",
"130 31 OFFCURVE",
"126 54 OFFCURVE",
"126 84 CURVE SMOOTH",
"126 96 OFFCURVE",
"127 109 OFFCURVE",
"127 122 CURVE SMOOTH",
"127 157 OFFCURVE",
"128 192 OFFCURVE",
"128 230 CURVE",
"198 261 OFFCURVE",
"367 315 OFFCURVE",
"367 383 CURVE SMOOTH",
"367 398 OFFCURVE",
"355 408 OFFCURVE",
"341 408 CURVE SMOOTH",
"321 408 OFFCURVE",
"303 387 OFFCURVE",
"290 379 CURVE SMOOTH",
"249 351 OFFCURVE",
"174 318 OFFCURVE",
"124 307 CURVE",
"102 496 LINE",
"133 502 LINE SMOOTH",
"208 516 OFFCURVE",
"289 528 OFFCURVE",
"362 549 CURVE SMOOTH",
"413 563 OFFCURVE",
"450 601 OFFCURVE",
"450 618 CURVE SMOOTH",
"450 622 OFFCURVE",
"448 625 OFFCURVE",
"443 626 CURVE SMOOTH",
"417 630 LINE",
"62 552 LINE SMOOTH",
"36 546 OFFCURVE",
"28 525 OFFCURVE",
"28 498 CURVE SMOOTH",
"28 453 OFFCURVE",
"50 390 OFFCURVE",
"50 353 CURVE SMOOTH",
"50 323 OFFCURVE",
"42 289 OFFCURVE",
"42 256 CURVE SMOOTH",
"42 194 OFFCURVE",
"52 132 OFFCURVE",
"58 70 CURVE SMOOTH",
"64 -2 OFFCURVE",
"97 -41 OFFCURVE",
"158 -41 CURVE SMOOTH",
"257 -41 OFFCURVE",
"449 53 OFFCURVE",
"480 128 CURVE SMOOTH",
"482 134 OFFCURVE",
"483 147 OFFCURVE",
"483 155 CURVE SMOOTH",
"483 188 OFFCURVE",
"463 220 OFFCURVE",
"424 220 CURVE SMOOTH",
"402 220 OFFCURVE",
"394 204 OFFCURVE",
"394 195 CURVE SMOOTH",
"394 175 OFFCURVE",
"412 173 OFFCURVE",
"415 148 CURVE",
"415 148 LINE"
);
}
);
width = 499;
}
);
},
{
glyphname = F.ss01;
lastChange = "2019-03-20 23:28:45 +0000";
layers = (
{
hints = (
{
place = "{126, 76}";
type = Stem;
},
{
horizontal = 1;
place = "{537, 81}";
type = Stem;
}
);
layerId = UUID0;
paths = (
{
closed = 1;
nodes = (
"58 493 OFFCURVE",
"85 428 OFFCURVE",
"89 350 CURVE",
"69 336 OFFCURVE",
"23 357 OFFCURVE",
"8 307 CURVE",
"9 302 LINE",
"28 252 OFFCURVE",
"72 271 OFFCURVE",
"97 259 CURVE",
"97 255 OFFCURVE",
"105 -2 OFFCURVE",
"154 -2 CURVE SMOOTH",
"194 -2 OFFCURVE",
"198 66 OFFCURVE",
"198 86 CURVE SMOOTH",
"198 148 OFFCURVE",
"185 213 OFFCURVE",
"175 280 CURVE",
"274 314 OFFCURVE",
"363 341 OFFCURVE",
"448 378 CURVE SMOOTH",
"462 384 OFFCURVE",
"483 403 OFFCURVE",
"483 421 CURVE SMOOTH",
"483 423 OFFCURVE",
"482 425 OFFCURVE",
"482 427 CURVE SMOOTH",
"477 445 OFFCURVE",
"451 447 OFFCURVE",
"438 447 CURVE SMOOTH",
"436 447 OFFCURVE",
"435 446 OFFCURVE",
"433 446 CURVE SMOOTH",
"348 418 OFFCURVE",
"267 390 OFFCURVE",
"171 357 CURVE",
"171 538 LINE",
"256 538 OFFCURVE",
"332 538 OFFCURVE",
"409 545 CURVE SMOOTH",
"426 546 OFFCURVE",
"446 567 OFFCURVE",
"446 586 CURVE",
"443 606 OFFCURVE",
"416 617 OFFCURVE",
"398 617 CURVE SMOOTH",
"392 617 OFFCURVE",
"387 616 OFFCURVE",
"387 616 CURVE",
"327 617 OFFCURVE",
"264 618 OFFCURVE",
"203 618 CURVE SMOOTH",
"196 618 OFFCURVE",
"179 619 OFFCURVE",
"158 619 CURVE SMOOTH",
"112 619 OFFCURVE",
"49 614 OFFCURVE",
"47 583 CURVE",
"47 583 LINE"
);
}
);
width = 506;
}
);
},
{
glyphname = G.ss01;
lastChange = "2019-03-20 23:28:45 +0000";
layers = (
{
hints = (
{
horizontal = 1;
place = "{526, 21}";
target = up;
type = BottomGhost;
}
);
layerId = UUID0;
paths = (
{
closed = 1;
nodes = (
"665 55 OFFCURVE",
"598 97 OFFCURVE",
"588 143 CURVE SMOOTH",
"579 184 OFFCURVE",
"567 225 OFFCURVE",
"560 265 CURVE SMOOTH",
"547 337 OFFCURVE",
"542 411 OFFCURVE",
"528 483 CURVE SMOOTH",
"523 508 OFFCURVE",
"504 546 OFFCURVE",
"476 546 CURVE SMOOTH",
"454 546 OFFCURVE",
"443 521 OFFCURVE",
"434 508 CURVE SMOOTH",
"392 449 OFFCURVE",
"300 393 OFFCURVE",
"231 393 CURVE SMOOTH",
"189 393 OFFCURVE",
"149 401 OFFCURVE",
"107 411 CURVE",
"124 487 OFFCURVE",
"136 509 OFFCURVE",
"191 543 CURVE",
"206 537 OFFCURVE",
"221 526 OFFCURVE",
"237 526 CURVE SMOOTH",
"243 526 OFFCURVE",
"249 528 OFFCURVE",
"254 531 CURVE SMOOTH",
"266 538 OFFCURVE",
"267 547 OFFCURVE",
"267 557 CURVE SMOOTH",
"267 600 OFFCURVE",
"233 615 OFFCURVE",
"202 615 CURVE",
"79 608 OFFCURVE",
"17 433 OFFCURVE",
"17 325 CURVE SMOOTH",
"17 213 OFFCURVE",
"70 53 OFFCURVE",
"224 53 CURVE SMOOTH",
"305 53 OFFCURVE",
"395 120 OFFCURVE",
"395 207 CURVE SMOOTH",
"395 251 OFFCURVE",
"369 297 OFFCURVE",
"321 340 CURVE",
"367 369 OFFCURVE",
"413 396 OFFCURVE",
"462 425 CURVE",
"477 313 OFFCURVE",
"504 202 OFFCURVE",
"532 92 CURVE SMOOTH",
"543 48 OFFCURVE",
"582 -8 OFFCURVE",
"611 -8 CURVE SMOOTH",
"626 -8 OFFCURVE",
"666 1 OFFCURVE",
"666 29 CURVE",
"666 29 LINE"
);
},
{
closed = 1;
nodes = (
"262 320 OFFCURVE",
"323 256 OFFCURVE",
"323 219 CURVE SMOOTH",
"323 171 OFFCURVE",
"271 128 OFFCURVE",
"226 128 CURVE SMOOTH",
"185 128 OFFCURVE",
"134 168 OFFCURVE",
"115 207 CURVE SMOOTH",
"97 242 OFFCURVE",
"94 282 OFFCURVE",
"83 331 CURVE",
"119 327 OFFCURVE",
"148 321 OFFCURVE",
"175 321 CURVE SMOOTH",
"184 321 OFFCURVE",
"190 320 OFFCURVE",
"197 320 CURVE SMOOTH",
"197 320 LINE"
);
}
);
width = 689;
}
);
},
{
glyphname = H.ss01;
lastChange = "2019-03-20 23:28:45 +0000";
layers = (
{
hints = (
{
place = "{20, 1}";
type = Stem;
},
{
place = "{149, 76}";
type = Stem;
},
{
place = "{294, 71}";
type = Stem;
}
);
layerId = UUID0;
paths = (
{
closed = 1;
nodes = (
"468 4 OFFCURVE",
"470 10 OFFCURVE",
"470 17 CURVE SMOOTH",
"470 29 OFFCURVE",
"464 42 OFFCURVE",
"462 51 CURVE SMOOTH",
"450 92 OFFCURVE",
"434 131 OFFCURVE",
"427 170 CURVE SMOOTH",
"404 303 OFFCURVE",
"387 438 OFFCURVE",
"365 572 CURVE SMOOTH",
"362 588 OFFCURVE",
"357 616 OFFCURVE",
"337 616 CURVE SMOOTH",
"318 616 OFFCURVE",
"300 594 OFFCURVE",
"295 579 CURVE",
"280 505 OFFCURVE",
"223 478 OFFCURVE",
"154 445 CURVE",
"141 500 OFFCURVE",
"130 585 OFFCURVE",
"93 585 CURVE SMOOTH",
"70 585 OFFCURVE",
"60 566 OFFCURVE",
"60 545 CURVE SMOOTH",
"60 508 OFFCURVE",
"75 470 OFFCURVE",
"84 435 CURVE",
"62 424 OFFCURVE",
"44 417 OFFCURVE",
"26 410 CURVE",
"26 410 OFFCURVE",
"22 402 OFFCURVE",
"22 392 CURVE SMOOTH",
"22 388 OFFCURVE",
"22 384 OFFCURVE",
"24 380 CURVE SMOOTH",
"33 358 OFFCURVE",
"70 362 OFFCURVE",
"99 351 CURVE",
"117 268 OFFCURVE",
"127 171 OFFCURVE",
"150 83 CURVE SMOOTH",
"154 67 OFFCURVE",
"169 46 OFFCURVE",
"189 46 CURVE SMOOTH",
"215 46 OFFCURVE",
"226 76 OFFCURVE",
"226 95 CURVE SMOOTH",
"226 115 OFFCURVE",
"219 135 OFFCURVE",
"215 154 CURVE SMOOTH",
"199 227 OFFCURVE",
"182 299 OFFCURVE",
"168 372 CURVE",
"307 447 LINE",
"333 323 OFFCURVE",
"354 199 OFFCURVE",
"380 75 CURVE",
"390 40 OFFCURVE",
"419 -5 OFFCURVE",
"447 -5 CURVE SMOOTH",
"452 -5 OFFCURVE",
"457 -3 OFFCURVE",
"462 0 CURVE SMOOTH",
"462 0 LINE"
);
}
);
width = 482;
}
);
},
{
glyphname = I.ss01;
lastChange = "2019-03-20 23:28:45 +0000";
layers = (
{
hints = (
{
place = "{20, 69}";
type = Stem;
}
);
layerId = UUID0;
paths = (
{
closed = 1;
nodes = (
"28 432 OFFCURVE",
"37 292 OFFCURVE",
"50 155 CURVE SMOOTH",
"55 101 OFFCURVE",
"80 3 OFFCURVE",
"122 3 CURVE SMOOTH",
"140 3 OFFCURVE",
"152 15 OFFCURVE",
"152 37 CURVE SMOOTH",
"152 89 OFFCURVE",
"125 142 OFFCURVE",
"120 191 CURVE SMOOTH",
"108 309 OFFCURVE",
"101 428 OFFCURVE",
"90 549 CURVE",
"90 563 LINE SMOOTH",
"90 583 OFFCURVE",
"87 616 OFFCURVE",
"55 616 CURVE SMOOTH",
"27 616 OFFCURVE",
"23 584 OFFCURVE",
"21 568 CURVE",
"21 568 LINE"
);
}
);
width = 169;
}
);
},
{
glyphname = J.ss01;
lastChange = "2019-03-20 23:28:45 +0000";
layers = (
{
hints = (
{
place = "{20, 63}";
type = Stem;
},
{
place = "{192, 65}";
type = Stem;
}
);
layerId = UUID0;
paths = (
{
closed = 1;
nodes = (
"20 213 OFFCURVE",
"22 203 OFFCURVE",
"24 196 CURVE",
"58 127 OFFCURVE",
"93 3 OFFCURVE",
"172 3 CURVE SMOOTH",
"226 3 OFFCURVE",
"237 50 OFFCURVE",
"241 81 CURVE SMOOTH",
"248 133 OFFCURVE",
"256 221 OFFCURVE",
"256 280 CURVE SMOOTH",
"256 289 LINE SMOOTH",
"255 369 OFFCURVE",
"244 488 OFFCURVE",
"186 488 CURVE SMOOTH",
"166 488 OFFCURVE",
"159 478 OFFCURVE",
"159 459 CURVE SMOOTH",
"159 432 OFFCURVE",
"177 405 OFFCURVE",
"181 383 CURVE SMOOTH",
"187 349 OFFCURVE",
"192 290 OFFCURVE",
"192 253 CURVE SMOOTH",
"192 193 OFFCURVE",
"181 130 OFFCURVE",
"171 76 CURVE",
"165 75 LINE",
"117 128 OFFCURVE",
"89 262 OFFCURVE",
"44 262 CURVE SMOOTH",
"22 262 OFFCURVE",
"17 239 OFFCURVE",
"17 222 CURVE",
"20 219 LINE"
);
}
);
width = 277;
}
);
},
{
glyphname = K.ss01;
lastChange = "2019-03-20 23:28:45 +0000";
layers = (
{
hints = (
{
place = "{121, 73}";
type = Stem;
},
{
place = "{231, 62}";
type = Stem;
},
{
horizontal = 1;
place = "{0, 21}";
target = up;
type = BottomGhost;
}
);
layerId = UUID0;
paths = (
{
closed = 1;
nodes = (
"503 214 OFFCURVE",
"404 169 OFFCURVE",
"334 169 CURVE SMOOTH",
"294 169 OFFCURVE",
"252 175 OFFCURVE",
"208 190 CURVE",
"274 385 LINE SMOOTH",
"279 401 OFFCURVE",
"291 420 OFFCURVE",
"291 439 CURVE SMOOTH",
"291 454 OFFCURVE",
"276 469 OFFCURVE",
"260 469 CURVE SMOOTH",
"222 469 OFFCURVE",
"219 438 OFFCURVE",
"205 421 CURVE SMOOTH",
"185 396 OFFCURVE",
"172 369 OFFCURVE",
"145 350 CURVE",
"129 419 OFFCURVE",
"112 487 OFFCURVE",
"99 553 CURVE",
"91 584 OFFCURVE",
"82 615 OFFCURVE",
"45 615 CURVE SMOOTH",
"27 615 OFFCURVE",
"18 596 OFFCURVE",
"18 580 CURVE SMOOTH",
"18 575 LINE",
"38 478 OFFCURVE",
"63 380 OFFCURVE",
"82 282 CURVE SMOOTH",
"97 205 OFFCURVE",
"104 125 OFFCURVE",
"119 46 CURVE SMOOTH",
"122 27 OFFCURVE",
"135 -2 OFFCURVE",
"158 -2 CURVE SMOOTH",
"179 -2 OFFCURVE",
"187 24 OFFCURVE",
"191 41 CURVE SMOOTH",
"196 62 OFFCURVE",
"197 91 OFFCURVE",
"201 111 CURVE",
"229 108 OFFCURVE",
"254 103 OFFCURVE",
"278 103 CURVE SMOOTH",
"350 103 OFFCURVE",
"431 112 OFFCURVE",
"500 124 CURVE SMOOTH",
"529 129 OFFCURVE",
"582 165 OFFCURVE",
"582 192 CURVE SMOOTH",
"582 209 OFFCURVE",
"565 214 OFFCURVE",
"552 214 CURVE SMOOTH",
"552 214 LINE"
);
}
);
width = 603;
}
);
},
{
glyphname = L.ss01;
lastChange = "2019-03-20 23:28:45 +0000";
layers = (
{
hints = (
{
place = "{65, 70}";
type = Stem;
}
);
layerId = UUID0;
paths = (
{
closed = 1;
nodes = (
"133 150 OFFCURVE",
"133 225 OFFCURVE",
"128 295 CURVE SMOOTH",
"120 391 OFFCURVE",
"108 484 OFFCURVE",
"98 577 CURVE SMOOTH",
"96 593 OFFCURVE",
"86 614 OFFCURVE",
"63 614 CURVE SMOOTH",
"36 614 OFFCURVE",
"20 581 OFFCURVE",
"20 560 CURVE SMOOTH",
"20 550 OFFCURVE",
"23 541 OFFCURVE",
"25 532 CURVE SMOOTH",
"62 374 OFFCURVE",
"58 226 OFFCURVE",
"65 70 CURVE SMOOTH",
"67 21 OFFCURVE",
"79 3 OFFCURVE",
"118 3 CURVE SMOOTH",
"126 3 OFFCURVE",
"135 4 OFFCURVE",
"147 7 CURVE SMOOTH",
"234 24 OFFCURVE",
"323 45 OFFCURVE",
"403 65 CURVE SMOOTH",
"432 72 OFFCURVE",
"466 88 OFFCURVE",
"466 121 CURVE SMOOTH",
"466 140 OFFCURVE",
"446 148 OFFCURVE",
"428 148 CURVE SMOOTH",
"415 148 OFFCURVE",
"402 138 OFFCURVE",
"392 135 CURVE SMOOTH",
"313 115 OFFCURVE",
"228 96 OFFCURVE",
"135 71 CURVE",
"135 71 LINE"
);
}
);
width = 484;
}
);
},
{
glyphname = M.ss01;
lastChange = "2019-03-20 23:28:45 +0000";
layers = (
{
hints = (
{
place = "{24, 77}";
type = Stem;
},
{
place = "{180, 70}";
type = Stem;
},
{
horizontal = 1;
place = "{-79, 21}";
target = up;
type = BottomGhost;
}
);
layerId = UUID0;
paths = (
{
closed = 1;
nodes = (
"169 487 OFFCURVE",
"157 591 OFFCURVE",
"101 591 CURVE SMOOTH",
"84 591 OFFCURVE",
"52 586 OFFCURVE",
"25 574 CURVE",
"25 84 LINE SMOOTH",
"25 32 OFFCURVE",
"30 -51 OFFCURVE",
"72 -51 CURVE SMOOTH",
"103 -51 OFFCURVE",
"108 -23 OFFCURVE",
"108 3 CURVE SMOOTH",
"108 84 OFFCURVE",
"101 167 OFFCURVE",
"101 249 CURVE SMOOTH",
"101 311 OFFCURVE",
"102 372 OFFCURVE",
"102 435 CURVE",
"126 391 OFFCURVE",
"135 344 OFFCURVE",
"143 299 CURVE SMOOTH",
"157 226 OFFCURVE",
"167 72 OFFCURVE",
"214 72 CURVE SMOOTH",
"257 72 OFFCURVE",
"250 164 OFFCURVE",
"256 207 CURVE SMOOTH",
"267 294 OFFCURVE",
"278 381 OFFCURVE",
"294 468 CURVE SMOOTH",
"301 506 OFFCURVE",
"331 567 OFFCURVE",
"357 567 CURVE SMOOTH",
"381 567 OFFCURVE",
"416 461 OFFCURVE",
"429 403 CURVE SMOOTH",
"464 245 OFFCURVE",
"472 79 OFFCURVE",
"546 -74 CURVE SMOOTH",
"551 -85 OFFCURVE",
"567 -111 OFFCURVE",
"586 -111 CURVE SMOOTH",
"598 -111 OFFCURVE",
"606 -100 OFFCURVE",
"606 -90 CURVE SMOOTH",
"606 -72 OFFCURVE",
"601 -58 OFFCURVE",
"600 -56 CURVE SMOOTH",
"553 45 OFFCURVE",
"549 154 OFFCURVE",
"526 259 CURVE SMOOTH",
"505 356 OFFCURVE",
"477 450 OFFCURVE",
"448 547 CURVE SMOOTH",
"435 591 OFFCURVE",
"407 633 OFFCURVE",
"352 633 CURVE SMOOTH",
"294 633 OFFCURVE",
"258 567 OFFCURVE",
"241 521 CURVE",
"228 478 OFFCURVE",
"214 436 OFFCURVE",
"199 386 CURVE",
"199 386 LINE"
);
}
);
width = 631;
}
);
},
{
glyphname = N.ss01;
lastChange = "2019-03-20 23:28:45 +0000";
layers = (
{
hints = (
{
place = "{22, 71}";
type = Stem;
},
{
place = "{22, 82}";
type = Stem;
},
{
place = "{275, 76}";
type = Stem;
}
);
layerId = UUID0;
paths = (
{
closed = 1;
nodes = (
"195 142 OFFCURVE",
"121 354 OFFCURVE",
"94 465 CURVE SMOOTH",
"89 484 OFFCURVE",
"99 523 OFFCURVE",
"58 523 CURVE SMOOTH",
"27 523 OFFCURVE",
"22 500 OFFCURVE",
"22 481 CURVE SMOOTH",
"22 474 OFFCURVE",
"23 468 OFFCURVE",
"23 463 CURVE SMOOTH",
"21 371 OFFCURVE",
"20 280 OFFCURVE",
"20 189 CURVE SMOOTH",
"20 155 OFFCURVE",
"21 122 OFFCURVE",
"21 88 CURVE SMOOTH",
"21 77 OFFCURVE",
"18 64 OFFCURVE",
"18 50 CURVE SMOOTH",
"18 35 OFFCURVE",
"25 2 OFFCURVE",
"60 2 CURVE SMOOTH",
"100 2 OFFCURVE",
"104 68 OFFCURVE",
"104 148 CURVE SMOOTH",
"104 215 LINE",
"149 136 OFFCURVE",
"190 72 OFFCURVE",
"241 72 CURVE SMOOTH",
"331 72 OFFCURVE",
"353 350 OFFCURVE",
"353 436 CURVE SMOOTH",
"353 477 LINE SMOOTH",
"353 537 OFFCURVE",
"349 611 OFFCURVE",
"304 611 CURVE SMOOTH",
"282 611 OFFCURVE",
"277 600 OFFCURVE",
"277 590 CURVE SMOOTH",
"277 540 OFFCURVE",
"286 490 OFFCURVE",
"286 440 CURVE SMOOTH",
"286 336 OFFCURVE",
"252 142 OFFCURVE",
"237 142 CURVE SMOOTH",
"237 142 LINE"
);
}
);
width = 373;
}
);
},
{
glyphname = O.ss01;
lastChange = "2019-03-20 23:28:45 +0000";
layers = (
{
hints = (
{
place = "{18, 70}";
type = Stem;
},
{
place = "{200, 69}";
type = Stem;
},
{
horizontal = 1;
place = "{0, 65}";
type = Stem;
}
);
layerId = UUID0;
paths = (
{
closed = 1;
nodes = (
"56 259 OFFCURVE",
"18 192 OFFCURVE",
"18 120 CURVE SMOOTH",
"18 48 OFFCURVE",
"65 0 OFFCURVE",
"124 0 CURVE SMOOTH",
"205 0 OFFCURVE",
"269 81 OFFCURVE",
"269 160 CURVE SMOOTH",
"269 203 OFFCURVE",
"248 244 OFFCURVE",
"237 283 CURVE SMOOTH",
"226 321 OFFCURVE",
"200 337 OFFCURVE",
"163 337 CURVE SMOOTH",
"140 337 OFFCURVE",
"118 333 OFFCURVE",
"88 331 CURVE",
"88 331 LINE"
);
},
{
closed = 1;
nodes = (
"181 220 OFFCURVE",
"200 184 OFFCURVE",
"200 151 CURVE SMOOTH",
"200 111 OFFCURVE",
"165 65 OFFCURVE",
"122 65 CURVE SMOOTH",
"112 65 OFFCURVE",
"88 86 OFFCURVE",
"88 112 CURVE SMOOTH",
"88 167 OFFCURVE",
"102 215 OFFCURVE",
"145 257 CURVE",
"145 257 LINE"
);
}
);
width = 287;
}
);
},
{
glyphname = P.ss01;
lastChange = "2019-03-20 23:28:45 +0000";
layers = (
{
hints = (
{
place = "{78, 62}";
type = Stem;
},
{
place = "{325, 70}";
type = Stem;
},
{
horizontal = 1;
place = "{0, 21}";
target = up;
type = BottomGhost;
}
);
layerId = UUID0;
paths = (
{
closed = 1;
nodes = (
"269 236 OFFCURVE",
"395 325 OFFCURVE",
"395 418 CURVE SMOOTH",
"395 527 OFFCURVE",
"237 570 OFFCURVE",
"67 604 CURVE",
"59 604 OFFCURVE",
"53 606 OFFCURVE",
"46 606 CURVE SMOOTH",
"32 606 OFFCURVE",
"22 593 OFFCURVE",
"22 581 CURVE SMOOTH",
"22 568 OFFCURVE",
"30 551 OFFCURVE",
"40 547 CURVE SMOOTH",
"71 535 OFFCURVE",
"68 512 OFFCURVE",
"70 486 CURVE SMOOTH",
"73 443 OFFCURVE",
"78 401 OFFCURVE",
"78 357 CURVE SMOOTH",
"78 319 OFFCURVE",
"23 294 OFFCURVE",
"23 259 CURVE SMOOTH",
"23 239 OFFCURVE",
"34 222 OFFCURVE",
"63 208 CURVE SMOOTH",
"96 192 OFFCURVE",
"101 170 OFFCURVE",
"108 138 CURVE SMOOTH",
"117 99 OFFCURVE",
"128 61 OFFCURVE",
"143 23 CURVE SMOOTH",
"149 8 OFFCURVE",
"174 0 OFFCURVE",
"188 0 CURVE SMOOTH",
"225 0 OFFCURVE",
"240 56 OFFCURVE",
"240 91 CURVE SMOOTH",
"240 97 OFFCURVE",
"242 104 OFFCURVE",
"242 111 CURVE SMOOTH",
"242 128 OFFCURVE",
"226 136 OFFCURVE",
"212 136 CURVE SMOOTH",
"200 136 OFFCURVE",
"188 131 OFFCURVE",
"177 129 CURVE",
"165 195 LINE"
);
},
{
closed = 1;
nodes = (
"151 320 OFFCURVE",
"140 369 OFFCURVE",
"140 417 CURVE SMOOTH",
"140 448 OFFCURVE",
"144 478 OFFCURVE",
"157 509 CURVE",
"225 509 OFFCURVE",
"325 460 OFFCURVE",
"325 413 CURVE SMOOTH",
"325 356 OFFCURVE",
"242 291 OFFCURVE",
"154 266 CURVE",
"154 266 LINE"
);
}
);
width = 412;
}
);
},
{
glyphname = Q.ss01;
lastChange = "2019-03-20 23:28:45 +0000";
layers = (
{
hints = (
{
place = "{20, 319}";
type = Stem;
}
);
layerId = UUID0;
paths = (
{
closed = 1;
nodes = (
"307 175 OFFCURVE",
"338 226 OFFCURVE",
"338 283 CURVE SMOOTH",
"338 349 OFFCURVE",
"291 436 OFFCURVE",
"237 439 CURVE SMOOTH",
"231 439 OFFCURVE",
"225 440 OFFCURVE",
"219 440 CURVE SMOOTH",
"95 440 OFFCURVE",
"20 348 OFFCURVE",
"20 231 CURVE SMOOTH",
"20 148 OFFCURVE",
"85 96 OFFCURVE",
"167 96 CURVE SMOOTH",
"184 96 OFFCURVE",
"201 98 OFFCURVE",
"215 99 CURVE",
"244 64 OFFCURVE",
"281 9 OFFCURVE",
"315 9 CURVE SMOOTH",
"329 9 OFFCURVE",
"343 15 OFFCURVE",
"343 29 CURVE SMOOTH",
"343 59 OFFCURVE",
"299 104 OFFCURVE",
"277 136 CURVE",
"278 133 LINE"
);
},
{
closed = 1;
nodes = (
"175 170 OFFCURVE",
"168 169 OFFCURVE",
"161 169 CURVE SMOOTH",
"112 169 OFFCURVE",
"86 196 OFFCURVE",
"86 242 CURVE SMOOTH",
"86 300 OFFCURVE",
"114 347 OFFCURVE",
"169 366 CURVE",
"214 337 OFFCURVE",
"219 335 OFFCURVE",
"258 333 CURVE",
"265 316 OFFCURVE",
"269 299 OFFCURVE",
"269 283 CURVE SMOOTH",
"269 260 OFFCURVE",
"261 236 OFFCURVE",
"243 209 CURVE",
"223 246 OFFCURVE",
"210 296 OFFCURVE",
"182 296 CURVE SMOOTH",
"157 296 OFFCURVE",
"148 276 OFFCURVE",
"148 264 CURVE SMOOTH",
"148 238 OFFCURVE",
"170 201 OFFCURVE",
"183 171 CURVE",
"183 171 LINE"
);
}
);
width = 361;
}
);
},
{
glyphname = R.ss01;
lastChange = "2019-03-20 23:28:45 +0000";
layers = (
{
hints = (
{
place = "{354, 77}";
type = Stem;
},
{
horizontal = 1;
place = "{114, 74}";
type = Stem;
},
{
horizontal = 1;
place = "{544, 72}";
type = Stem;
}
);
layerId = UUID0;
paths = (
{
closed = 1;
nodes = (
"305 180 OFFCURVE",
"385 132 OFFCURVE",
"516 116 CURVE SMOOTH",
"525 115 OFFCURVE",
"537 114 OFFCURVE",
"549 114 CURVE SMOOTH",
"579 114 OFFCURVE",
"612 121 OFFCURVE",
"612 157 CURVE SMOOTH",
"612 184 OFFCURVE",
"580 186 OFFCURVE",
"557 188 CURVE",
"473 188 OFFCURVE",
"395 235 OFFCURVE",
"317 257 CURVE SMOOTH",
"308 259 OFFCURVE",
"300 262 OFFCURVE",
"285 267 CURVE",
"349 331 OFFCURVE",
"431 418 OFFCURVE",
"431 493 CURVE SMOOTH",
"431 565 OFFCURVE",
"366 616 OFFCURVE",
"263 616 CURVE SMOOTH",
"152 616 OFFCURVE",
"21 566 OFFCURVE",
"21 491 CURVE SMOOTH",
"21 462 OFFCURVE",
"48 433 OFFCURVE",
"99 427 CURVE",
"102 401 LINE SMOOTH",
"117 281 OFFCURVE",
"131 169 OFFCURVE",
"153 51 CURVE SMOOTH",
"157 31 OFFCURVE",
"166 5 OFFCURVE",
"197 5 CURVE SMOOTH",
"228 5 OFFCURVE",
"237 22 OFFCURVE",
"237 33 CURVE SMOOTH",
"237 45 OFFCURVE",
"231 59 OFFCURVE",
"228 69 CURVE SMOOTH",
"218 106 OFFCURVE",
"214 140 OFFCURVE",
"202 186 CURVE",
"202 186 LINE"
);
},
{
closed = 1;
nodes = (
"180 380 OFFCURVE",
"171 451 OFFCURVE",
"162 529 CURVE",
"203 534 OFFCURVE",
"235 544 OFFCURVE",
"267 544 CURVE SMOOTH",
"327 544 OFFCURVE",
"354 524 OFFCURVE",
"354 493 CURVE SMOOTH",
"354 430 OFFCURVE",
"275 348 OFFCURVE",
"190 302 CURVE",
"190 302 LINE"
);
}
);
width = 677;
}
);
},
{
glyphname = S.ss01;
lastChange = "2019-03-20 23:28:45 +0000";
layers = (
{
hints = (
{
place = "{180, 61}";
type = Stem;
}
);
layerId = UUID0;
paths = (
{
closed = 1;
nodes = (
"18 72 OFFCURVE",
"17 67 OFFCURVE",
"17 63 CURVE SMOOTH",
"17 -2 OFFCURVE",
"74 -11 OFFCURVE",
"127 -11 CURVE SMOOTH",
"203 -11 OFFCURVE",
"344 34 OFFCURVE",
"344 106 CURVE SMOOTH",
"344 157 OFFCURVE",
"278 194 OFFCURVE",
"238 228 CURVE SMOOTH",
"174 282 OFFCURVE",
"102 332 OFFCURVE",
"102 411 CURVE SMOOTH",
"102 456 OFFCURVE",
"126 499 OFFCURVE",
"174 534 CURVE",
"174 525 OFFCURVE",
"178 477 OFFCURVE",
"205 477 CURVE SMOOTH",
"242 477 OFFCURVE",
"242 514 OFFCURVE",
"242 543 CURVE SMOOTH",
"242 590 OFFCURVE",
"217 613 OFFCURVE",
"185 613 CURVE SMOOTH",
"104 613 OFFCURVE",
"30 503 OFFCURVE",
"30 413 CURVE SMOOTH",
"30 303 OFFCURVE",
"122 238 OFFCURVE",
"196 172 CURVE SMOOTH",
"219 151 OFFCURVE",
"244 133 OFFCURVE",
"269 112 CURVE",
"222 79 OFFCURVE",
"174 65 OFFCURVE",
"124 65 CURVE SMOOTH",
"101 65 OFFCURVE",
"69 87 OFFCURVE",
"44 87 CURVE SMOOTH",
"36 87 OFFCURVE",
"29 84 OFFCURVE",
"23 79 CURVE",
"23 79 LINE"
);
}
);
width = 361;
}
);
},
{
glyphname = T.ss01;
lastChange = "2019-03-20 23:28:45 +0000";
layers = (
{
hints = (
{
place = "{228, 83}";
type = Stem;
},
{
horizontal = 1;
place = "{-8, 21}";
target = up;
type = BottomGhost;
},
{
horizontal = 1;
place = "{524, 21}";
target = up;
type = BottomGhost;
}
);
layerId = UUID0;
paths = (
{
closed = 1;
nodes = (
"195 545 OFFCURVE",
"159 497 OFFCURVE",
"122 497 CURVE SMOOTH",
"102 497 OFFCURVE",
"67 506 OFFCURVE",
"46 506 CURVE SMOOTH",
"39 506 OFFCURVE",
"33 505 OFFCURVE",
"30 502 CURVE SMOOTH",
"22 495 OFFCURVE",
"21 483 OFFCURVE",
"21 472 CURVE SMOOTH",
"21 432 OFFCURVE",
"68 427 OFFCURVE",
"129 427 CURVE SMOOTH",
"148 427 OFFCURVE",
"167 428 OFFCURVE",
"187 428 CURVE",
"203 358 OFFCURVE",
"197 263 OFFCURVE",
"205 180 CURVE SMOOTH",
"210 128 OFFCURVE",
"217 75 OFFCURVE",
"230 24 CURVE SMOOTH",
"234 7 OFFCURVE",
"255 -14 OFFCURVE",
"277 -14 CURVE SMOOTH",
"306 -14 OFFCURVE",
"315 21 OFFCURVE",
"315 62 CURVE SMOOTH",
"315 75 OFFCURVE",
"313 88 OFFCURVE",
"308 99 CURVE SMOOTH",
"265 198 OFFCURVE",
"278 306 OFFCURVE",
"267 413 CURVE",
"267 427 OFFCURVE",
"271 438 OFFCURVE",
"274 448 CURVE",
"330 461 OFFCURVE",
"388 469 OFFCURVE",
"441 486 CURVE SMOOTH",
"495 503 OFFCURVE",
"587 542 OFFCURVE",
"587 576 CURVE SMOOTH",
"587 588 OFFCURVE",
"587 609 OFFCURVE",
"573 609 CURVE SMOOTH",
"572 609 OFFCURVE",
"571 608 OFFCURVE",
"569 608 CURVE SMOOTH",
"552 604 LINE SMOOTH",
"482 588 OFFCURVE",
"435 563 OFFCURVE",
"366 543 CURVE SMOOTH",
"342 536 OFFCURVE",
"319 528 OFFCURVE",
"298 528 CURVE SMOOTH",
"273 528 OFFCURVE",
"234 545 OFFCURVE",
"220 545 CURVE SMOOTH",
"220 545 LINE"
);
}
);
width = 603;
}
);
},
{
glyphname = U.ss01;
lastChange = "2019-03-20 23:28:45 +0000";
layers = (
{
hints = (
{
place = "{20, 92}";
type = Stem;
}
);
layerId = UUID0;
paths = (
{
closed = 1;
nodes = (
"385 62 OFFCURVE",
"366 117 OFFCURVE",
"357 175 CURVE SMOOTH",
"338 288 OFFCURVE",
"328 400 OFFCURVE",
"311 512 CURVE SMOOTH",
"308 531 OFFCURVE",
"313 553 OFFCURVE",
"304 572 CURVE SMOOTH",
"294 593 OFFCURVE",
"276 617 OFFCURVE",
"257 617 CURVE SMOOTH",
"243 617 OFFCURVE",
"223 596 OFFCURVE",
"216 577 CURVE SMOOTH",
"206 550 OFFCURVE",
"203 523 OFFCURVE",
"201 496 CURVE",
"187 388 OFFCURVE",
"178 280 OFFCURVE",
"167 172 CURVE",
"162 143 OFFCURVE",
"161 117 OFFCURVE",
"138 89 CURVE",
"102 170 OFFCURVE",
"89 237 OFFCURVE",
"89 316 CURVE SMOOTH",
"89 366 OFFCURVE",
"95 416 OFFCURVE",
"104 467 CURVE SMOOTH",
"106 482 OFFCURVE",
"112 498 OFFCURVE",
"112 513 CURVE SMOOTH",
"112 526 OFFCURVE",
"99 538 OFFCURVE",
"83 538 CURVE SMOOTH",
"53 538 OFFCURVE",
"42 505 OFFCURVE",
"39 483 CURVE SMOOTH",
"30 423 OFFCURVE",
"18 362 OFFCURVE",
"18 302 CURVE SMOOTH",
"18 206 OFFCURVE",
"47 12 OFFCURVE",
"132 12 CURVE SMOOTH",
"228 12 OFFCURVE",
"242 192 OFFCURVE",
"252 239 CURVE",
"283 166 OFFCURVE",
"294 85 OFFCURVE",
"349 25 CURVE",
"377 0 OFFCURVE",
"399 -11 OFFCURVE",
"415 -11 CURVE SMOOTH",
"431 -11 OFFCURVE",
"462 -11 OFFCURVE",
"481 20 CURVE SMOOTH",
"482 21 OFFCURVE",
"483 23 OFFCURVE",
"483 25 CURVE SMOOTH",
"483 33 OFFCURVE",
"476 47 OFFCURVE",
"464 48 CURVE",
"464 48 LINE"
);
}
);
width = 487;
}
);
},
{
glyphname = V.ss01;
lastChange = "2019-03-20 23:28:45 +0000";
layers = (
{
hints = (
{
place = "{20, 400}";
type = Stem;
},
{
horizontal = 1;
place = "{-2, 21}";
target = up;
type = BottomGhost;
}
);
layerId = UUID0;
paths = (
{
closed = 1;
nodes = (
"295 168 OFFCURVE",
"293 167 OFFCURVE",
"289 165 CURVE",
"253 245 OFFCURVE",
"216 327 OFFCURVE",
"178 407 CURVE SMOOTH",
"153 459 OFFCURVE",
"120 558 OFFCURVE",
"73 558 CURVE SMOOTH",
"49 558 OFFCURVE",
"20 532 OFFCURVE",
"20 498 CURVE SMOOTH",
"20 479 OFFCURVE",
"29 464 OFFCURVE",
"44 458 CURVE SMOOTH",
"88 441 OFFCURVE",
"90 404 OFFCURVE",
"106 368 CURVE SMOOTH",
"149 270 OFFCURVE",
"193 171 OFFCURVE",
"240 72 CURVE SMOOTH",
"256 37 OFFCURVE",
"290 -2 OFFCURVE",
"320 -2 CURVE SMOOTH",
"353 -2 OFFCURVE",
"371 37 OFFCURVE",
"374 71 CURVE SMOOTH",
"389 238 OFFCURVE",
"404 403 OFFCURVE",
"420 570 CURVE",
"420 589 OFFCURVE",
"404 615 OFFCURVE",
"392 617 CURVE",
"372 617 OFFCURVE",
"351 603 OFFCURVE",
"344 588 CURVE SMOOTH",
"333 564 OFFCURVE",
"331 537 OFFCURVE",
"328 512 CURVE SMOOTH",
"328 509 OFFCURVE",
"327 507 OFFCURVE",
"324 476 CURVE SMOOTH",
"314 373 OFFCURVE",
"304 272 OFFCURVE",
"295 169 CURVE",
"295 169 LINE"
);
}
);
width = 438;
}
);
},
{
glyphname = W.ss01;
lastChange = "2019-03-20 23:28:45 +0000";
layers = (
{
hints = (
{
place = "{23, 61}";
type = Stem;
},
{
place = "{381, 67}";
type = Stem;
}
);
layerId = UUID0;
paths = (
{
closed = 1;
nodes = (
"292 95 OFFCURVE",
"328 2 OFFCURVE",
"407 2 CURVE SMOOTH",
"493 2 OFFCURVE",
"518 136 OFFCURVE",
"518 220 CURVE SMOOTH",
"518 309 OFFCURVE",
"490 396 OFFCURVE",
"449 481 CURVE",
"445 487 OFFCURVE",
"427 502 OFFCURVE",
"409 502 CURVE SMOOTH",
"393 502 OFFCURVE",
"384 484 OFFCURVE",
"384 468 CURVE SMOOTH",
"384 450 OFFCURVE",
"398 438 OFFCURVE",
"400 424 CURVE",
"422 351 OFFCURVE",
"450 279 OFFCURVE",
"450 205 CURVE SMOOTH",
"450 158 OFFCURVE",
"438 69 OFFCURVE",
"413 69 CURVE SMOOTH",
"381 69 OFFCURVE",
"353 120 OFFCURVE",
"343 156 CURVE SMOOTH",
"320 233 OFFCURVE",
"304 311 OFFCURVE",
"287 388 CURVE",
"279 413 OFFCURVE",
"282 465 OFFCURVE",
"237 465 CURVE SMOOTH",
"195 465 OFFCURVE",
"193 423 OFFCURVE",
"191 397 CURVE SMOOTH",
"188 362 OFFCURVE",
"174 121 OFFCURVE",
"153 121 CURVE",
"140 195 OFFCURVE",
"122 274 OFFCURVE",
"111 351 CURVE SMOOTH",
"100 426 OFFCURVE",
"97 504 OFFCURVE",
"86 580 CURVE SMOOTH",
"84 594 OFFCURVE",
"80 621 OFFCURVE",
"62 621 CURVE SMOOTH",
"32 621 OFFCURVE",
"22 590 OFFCURVE",
"22 561 CURVE SMOOTH",
"22 552 OFFCURVE",
"23 543 OFFCURVE",
"24 535 CURVE SMOOTH",
"30 469 OFFCURVE",
"33 401 OFFCURVE",
"44 335 CURVE SMOOTH",
"60 244 OFFCURVE",
"83 154 OFFCURVE",
"104 64 CURVE SMOOTH",
"109 41 OFFCURVE",
"125 14 OFFCURVE",
"163 14 CURVE SMOOTH",
"238 14 OFFCURVE",
"236 116 OFFCURVE",
"247 180 CURVE",
"247 180 LINE"
);
}
);
width = 534;
}
);
},
{
glyphname = X.ss01;
lastChange = "2019-03-20 23:28:45 +0000";
layers = (
{
hints = (
{
place = "{24, 284}";
type = Stem;
},
{
horizontal = 1;
place = "{4, 21}";
target = up;
type = BottomGhost;
}
);
layerId = UUID0;
paths = (
{
closed = 1;
nodes = (
"203 185 OFFCURVE",
"224 148 OFFCURVE",
"259 117 CURVE SMOOTH",
"267 110 OFFCURVE",
"281 102 OFFCURVE",
"293 102 CURVE SMOOTH",
"299 102 OFFCURVE",
"304 104 OFFCURVE",
"308 108 CURVE SMOOTH",
"312 113 OFFCURVE",
"314 119 OFFCURVE",
"314 124 CURVE SMOOTH",
"314 134 OFFCURVE",
"307 145 OFFCURVE",
"302 153 CURVE SMOOTH",
"269 207 OFFCURVE",
"197 277 OFFCURVE",
"197 314 CURVE SMOOTH",
"197 324 OFFCURVE",
"200 336 OFFCURVE",
"205 348 CURVE SMOOTH",
"232 417 OFFCURVE",
"258 487 OFFCURVE",
"283 558 CURVE SMOOTH",
"286 567 OFFCURVE",
"292 581 OFFCURVE",
"292 593 CURVE SMOOTH",
"292 604 OFFCURVE",
"284 614 OFFCURVE",
"274 614 CURVE SMOOTH",
"265 614 OFFCURVE",
"256 609 OFFCURVE",
"252 605 CURVE",
"217 530 OFFCURVE",
"183 457 OFFCURVE",
"147 376 CURVE",
"124 404 OFFCURVE",
"94 457 OFFCURVE",
"56 457 CURVE SMOOTH",
"49 457 OFFCURVE",
"32 448 OFFCURVE",
"32 432 CURVE SMOOTH",
"32 427 OFFCURVE",
"34 420 OFFCURVE",
"39 413 CURVE SMOOTH",
"109 323 OFFCURVE",
"117 330 OFFCURVE",
"117 296 CURVE SMOOTH",
"117 267 OFFCURVE",
"65 138 OFFCURVE",
"31 31 CURVE SMOOTH",
"30 29 OFFCURVE",
"30 27 OFFCURVE",
"30 25 CURVE SMOOTH",
"30 15 OFFCURVE",
"33 -2 OFFCURVE",
"44 -7 CURVE SMOOTH",
"46 -8 OFFCURVE",
"48 -8 OFFCURVE",
"50 -8 CURVE SMOOTH",
"60 -8 OFFCURVE",
"73 -2 OFFCURVE",
"81 5 CURVE",
"118 75 OFFCURVE",
"138 144 OFFCURVE",
"167 229 CURVE",
"168 235 LINE"
);
}
);
width = 324;
}
);
},
{
glyphname = Y.ss01;
lastChange = "2019-03-20 23:28:45 +0000";
layers = (
{
hints = (
{
place = "{214, 99}";
type = Stem;
}
);
layerId = UUID0;
paths = (
{
closed = 1;
nodes = (
"27 511 OFFCURVE",
"27 507 OFFCURVE",
"27 504 CURVE SMOOTH",
"27 497 OFFCURVE",
"30 493 OFFCURVE",
"35 488 CURVE SMOOTH",
"79 439 OFFCURVE",
"121 384 OFFCURVE",
"173 341 CURVE SMOOTH",
"206 313 OFFCURVE",
"215 288 OFFCURVE",
"215 246 CURVE SMOOTH",
"215 187 OFFCURVE",
"220 130 OFFCURVE",
"229 72 CURVE SMOOTH",
"233 49 OFFCURVE",
"250 27 OFFCURVE",
"265 9 CURVE",
"271 4 OFFCURVE",
"280 3 OFFCURVE",
"288 3 CURVE SMOOTH",
"300 3 LINE SMOOTH",
"308 3 OFFCURVE",
"313 14 OFFCURVE",
"313 20 CURVE SMOOTH",
"313 53 OFFCURVE",
"283 81 OFFCURVE",
"280 110 CURVE SMOOTH",
"273 167 OFFCURVE",
"271 220 OFFCURVE",
"268 266 CURVE",
"289 290 OFFCURVE",
"312 295 OFFCURVE",
"312 319 CURVE SMOOTH",
"312 322 OFFCURVE",
"312 325 OFFCURVE",
"311 328 CURVE SMOOTH",
"306 353 OFFCURVE",
"292 355 OFFCURVE",
"268 366 CURVE",
"271 440 OFFCURVE",
"276 492 OFFCURVE",
"280 576 CURVE SMOOTH",
"281 592 LINE SMOOTH",
"281 602 OFFCURVE",
"273 612 OFFCURVE",
"258 612 CURVE SMOOTH",
"203 612 OFFCURVE",
"215 457 OFFCURVE",
"209 384 CURVE",
"169 413 OFFCURVE",
"136 457 OFFCURVE",
"107 497 CURVE SMOOTH",
"101 505 LINE SMOOTH",
"89 521 OFFCURVE",
"74 532 OFFCURVE",
"55 532 CURVE SMOOTH",
"45 532 OFFCURVE",
"34 532 OFFCURVE",
"29 516 CURVE SMOOTH",
"29 516 LINE"
);
}
);
width = 340;
}
);
},
{
glyphname = Z.ss01;
lastChange = "2019-03-20 23:28:45 +0000";
layers = (
{
hints = (
{
place = "{257, 58}";
type = Stem;
},
{
horizontal = 1;
place = "{96, 50}";
type = Stem;
}
);
layerId = UUID0;
paths = (
{
closed = 1;
nodes = (
"167 79 OFFCURVE",
"162 62 OFFCURVE",
"162 49 CURVE SMOOTH",
"162 18 OFFCURVE",
"191 5 OFFCURVE",
"228 5 CURVE SMOOTH",
"251 5 OFFCURVE",
"265 5 OFFCURVE",
"277 9 CURVE SMOOTH",
"351 30 OFFCURVE",
"423 49 OFFCURVE",
"492 72 CURVE SMOOTH",
"518 81 OFFCURVE",
"547 96 OFFCURVE",
"547 123 CURVE SMOOTH",
"547 138 OFFCURVE",
"529 146 OFFCURVE",
"513 146 CURVE SMOOTH",
"500 146 OFFCURVE",
"487 135 OFFCURVE",
"477 133 CURVE",
"399 108 OFFCURVE",
"320 78 OFFCURVE",
"237 70 CURVE",
"284 205 OFFCURVE",
"317 311 OFFCURVE",
"317 461 CURVE SMOOTH",
"317 484 OFFCURVE",
"316 512 OFFCURVE",
"314 548 CURVE SMOOTH",
"314 554 LINE",
"313 557 OFFCURVE",
"313 558 OFFCURVE",
"313 558 CURVE",
"311 589 OFFCURVE",
"270 623 OFFCURVE",
"220 623 CURVE SMOOTH",
"216 623 OFFCURVE",
"211 623 OFFCURVE",
"207 622 CURVE SMOOTH",
"130 604 OFFCURVE",
"75 550 OFFCURVE",
"16 509 CURVE SMOOTH",
"10 505 OFFCURVE",
"7 498 OFFCURVE",
"7 490 CURVE SMOOTH",
"7 473 OFFCURVE",
"18 461 OFFCURVE",
"37 461 CURVE SMOOTH",
"57 461 OFFCURVE",
"91 493 OFFCURVE",
"111 506 CURVE SMOOTH",
"145 528 OFFCURVE",
"210 564 OFFCURVE",
"237 564 CURVE SMOOTH",
"241 564 OFFCURVE",
"245 563 OFFCURVE",
"247 561 CURVE SMOOTH",
"256 554 OFFCURVE",
"258 541 OFFCURVE",
"258 528 CURVE SMOOTH",
"258 513 OFFCURVE",
"256 500 OFFCURVE",
"256 488 CURVE SMOOTH",
"256 353 OFFCURVE",
"229 217 OFFCURVE",
"175 97 CURVE SMOOTH",
"175 97 LINE"
);
}
);
width = 574;
}
);
},
{
glyphname = a;
lastChange = "2019-03-20 22:35:49 +0000";
layers = (
{
hints = (
{
place = "{26, 71}";
type = Stem;
},
{
horizontal = 1;
place = "{-34, 21}";
target = up;
type = BottomGhost;
},
{
horizontal = 1;
place = "{-11, 69}";
type = Stem;
},
{
horizontal = 1;
place = "{361, 75}";
type = Stem;
}
);
layerId = UUID0;
paths = (
{
closed = 1;
nodes = (
"354 108 OFFCURVE",
"361 69 OFFCURVE",
"383 39 CURVE SMOOTH",
"404 9 OFFCURVE",
"456 -34 OFFCURVE",
"472 -34 CURVE SMOOTH",
"492 -34 OFFCURVE",
"502 -17 OFFCURVE",
"502 -2 CURVE SMOOTH",
"502 9 OFFCURVE",
"495 26 OFFCURVE",
"485 36 CURVE",
"415 71 OFFCURVE",
"411 184 OFFCURVE",
"399 259 CURVE SMOOTH",
"385 347 OFFCURVE",
"399 436 OFFCURVE",
"296 436 CURVE SMOOTH",
"157 436 OFFCURVE",
"26 278 OFFCURVE",
"26 127 CURVE SMOOTH",
"26 44 OFFCURVE",
"81 -11 OFFCURVE",
"148 -11 CURVE SMOOTH",
"238 -11 OFFCURVE",
"302 91 OFFCURVE",
"337 151 CURVE",
"337 151 LINE"
);
},
{
closed = 1;
nodes = (
"311 249 OFFCURVE",
"233 58 OFFCURVE",
"149 58 CURVE SMOOTH",
"118 58 OFFCURVE",
"97 86 OFFCURVE",
"97 128 CURVE SMOOTH",
"97 218 OFFCURVE",
"187 361 OFFCURVE",
"285 361 CURVE SMOOTH",
"296 361 OFFCURVE",
"307 359 OFFCURVE",
"319 359 CURVE",
"319 359 LINE"
);
}
);
width = 525;
}
);
unicode = 0061;
},
{
glyphname = b;
lastChange = "2019-03-20 22:35:49 +0000";
layers = (
{
hints = (
{
horizontal = 1;
place = "{211, 74}";
type = Stem;
},
{
horizontal = 1;
place = "{264, 72}";
type = Stem;
},
{
horizontal = 1;
place = "{508, 79}";
type = Stem;
}
);
layerId = UUID0;
paths = (
{
closed = 1;
nodes = (
"464 383 OFFCURVE",
"481 406 OFFCURVE",
"481 446 CURVE SMOOTH",
"481 539 OFFCURVE",
"400 586 OFFCURVE",
"274 586 CURVE SMOOTH",
"187 586 OFFCURVE",
"24 556 OFFCURVE",
"24 495 CURVE SMOOTH",
"24 458 OFFCURVE",
"64 474 OFFCURVE",
"87 457 CURVE",
"105 357 OFFCURVE",
"120 258 OFFCURVE",
"136 159 CURVE SMOOTH",
"146 97 OFFCURVE",
"160 43 OFFCURVE",
"223 8 CURVE SMOOTH",
"259 -12 OFFCURVE",
"294 -27 OFFCURVE",
"333 -27 CURVE SMOOTH",
"473 -27 OFFCURVE",
"673 94 OFFCURVE",
"673 201 CURVE SMOOTH",
"673 328 OFFCURVE",
"531 331 OFFCURVE",
"457 333 CURVE SMOOTH",
"445 333 LINE",
"446 336 LINE"
);
},
{
closed = 1;
nodes = (
"293 229 OFFCURVE",
"388 259 OFFCURVE",
"476 259 CURVE SMOOTH",
"536 259 OFFCURVE",
"604 247 OFFCURVE",
"604 204 CURVE SMOOTH",
"604 130 OFFCURVE",
"415 40 OFFCURVE",
"324 40 CURVE SMOOTH",
"279 40 OFFCURVE",
"224 89 OFFCURVE",
"214 132 CURVE SMOOTH",
"209 153 OFFCURVE",
"205 174 OFFCURVE",
"201 208 CURVE",
"201 208 LINE"
);
},
{
closed = 1;
nodes = (
"202 505 OFFCURVE",
"245 510 OFFCURVE",
"287 510 CURVE SMOOTH",
"366 510 OFFCURVE",
"410 488 OFFCURVE",
"410 441 CURVE SMOOTH",
"410 384 OFFCURVE",
"343 337 OFFCURVE",
"281 303 CURVE SMOOTH",
"257 290 OFFCURVE",
"227 288 OFFCURVE",
"193 279 CURVE",
"157 504 LINE"
);
}
);
width = 700;
}
);
unicode = 0062;
},
{
glyphname = c;
lastChange = "2019-03-20 22:35:49 +0000";
layers = (
{
hints = (
{
horizontal = 1;
place = "{377, 81}";
type = Stem;
}
);
layerId = UUID0;
paths = (
{
closed = 1;
nodes = (
"162 379 OFFCURVE",
"172 377 OFFCURVE",
"178 377 CURVE SMOOTH",
"207 379 OFFCURVE",
"217 380 OFFCURVE",
"217 404 CURVE SMOOTH",
"217 431 OFFCURVE",
"199 460 OFFCURVE",
"167 460 CURVE SMOOTH",
"139 460 OFFCURVE",
"91 422 OFFCURVE",
"65 387 CURVE SMOOTH",
"31 341 OFFCURVE",
"23 284 OFFCURVE",
"23 228 CURVE SMOOTH",
"23 100 OFFCURVE",
"99 -8 OFFCURVE",
"247 -8 CURVE SMOOTH",
"331 -8 OFFCURVE",
"415 36 OFFCURVE",
"451 106 CURVE SMOOTH",
"457 116 OFFCURVE",
"461 126 OFFCURVE",
"461 136 CURVE SMOOTH",
"461 145 OFFCURVE",
"455 158 OFFCURVE",
"439 158 CURVE SMOOTH",
"396 158 OFFCURVE",
"375 114 OFFCURVE",
"344 90 CURVE SMOOTH",
"317 69 OFFCURVE",
"282 60 OFFCURVE",
"250 60 CURVE SMOOTH",
"162 60 OFFCURVE",
"90 124 OFFCURVE",
"90 225 CURVE SMOOTH",
"90 283 OFFCURVE",
"113 344 OFFCURVE",
"154 387 CURVE",
"156 383 LINE"
);
}
);
width = 487;
}
);
unicode = 0063;
},
{
glyphname = d;
lastChange = "2019-03-20 22:35:49 +0000";
layers = (
{
hints = (
{
horizontal = 1;
place = "{484, -20}";
target = down;
type = TopGhost;
}
);
layerId = UUID0;
paths = (
{
closed = 1;
nodes = (
"498 304 OFFCURVE",
"414 375 OFFCURVE",
"361 393 CURVE SMOOTH",
"264 425 OFFCURVE",
"163 456 OFFCURVE",
"64 483 CURVE",
"49 483 OFFCURVE",
"23 479 OFFCURVE",
"23 458 CURVE SMOOTH",
"23 448 OFFCURVE",
"27 437 OFFCURVE",
"35 432 CURVE",
"60 412 OFFCURVE",
"64 384 OFFCURVE",
"67 355 CURVE SMOOTH",
"78 257 OFFCURVE",
"86 159 OFFCURVE",
"103 61 CURVE SMOOTH",
"109 28 OFFCURVE",
"134 -18 OFFCURVE",
"156 -18 CURVE SMOOTH",
"169 -18 OFFCURVE",
"183 -7 OFFCURVE",
"197 -4 CURVE SMOOTH",
"209 -1 OFFCURVE",
"223 -2 OFFCURVE",
"237 1 CURVE SMOOTH",
"332 19 OFFCURVE",
"498 138 OFFCURVE",
"498 240 CURVE SMOOTH",
"498 240 LINE"
);
},
{
closed = 1;
nodes = (
"257 351 OFFCURVE",
"421 314 OFFCURVE",
"421 242 CURVE SMOOTH",
"421 170 OFFCURVE",
"293 71 OFFCURVE",
"191 71 CURVE SMOOTH",
"169 71 LINE",
"128 399 LINE"
);
}
);
width = 521;
}
);
unicode = 0064;
},
{
glyphname = e;
lastChange = "2019-03-20 22:35:49 +0000";
layers = (
{
hints = (
{
place = "{24, 65}";
type = Stem;
},
{
horizontal = 1;
place = "{516, -20}";
target = down;
type = TopGhost;
}
);
layerId = UUID0;
paths = (
{
closed = 1;
nodes = (
"171 437 OFFCURVE",
"327 466 OFFCURVE",
"327 525 CURVE SMOOTH",
"327 546 OFFCURVE",
"305 556 OFFCURVE",
"295 556 CURVE SMOOTH",
"280 556 OFFCURVE",
"266 543 OFFCURVE",
"251 537 CURVE SMOOTH",
"210 519 OFFCURVE",
"170 502 OFFCURVE",
"126 502 CURVE SMOOTH",
"109 502 OFFCURVE",
"91 505 OFFCURVE",
"72 512 CURVE SMOOTH",
"69 513 OFFCURVE",
"63 516 OFFCURVE",
"60 516 CURVE SMOOTH",
"24 516 OFFCURVE",
"22 454 OFFCURVE",
"22 421 CURVE SMOOTH",
"22 309 OFFCURVE",
"33 186 OFFCURVE",
"62 65 CURVE SMOOTH",
"75 10 OFFCURVE",
"107 -19 OFFCURVE",
"151 -19 CURVE SMOOTH",
"227 -19 OFFCURVE",
"391 82 OFFCURVE",
"420 161 CURVE",
"420 172 OFFCURVE",
"417 202 OFFCURVE",
"400 202 CURVE SMOOTH",
"366 202 OFFCURVE",
"361 182 OFFCURVE",
"348 168 CURVE SMOOTH",
"300 118 OFFCURVE",
"206 64 OFFCURVE",
"138 48 CURVE",
"128 99 OFFCURVE",
"109 150 OFFCURVE",
"109 185 CURVE SMOOTH",
"109 210 OFFCURVE",
"120 225 OFFCURVE",
"147 240 CURVE SMOOTH",
"214 277 OFFCURVE",
"320 343 OFFCURVE",
"320 378 CURVE SMOOTH",
"320 396 OFFCURVE",
"298 410 OFFCURVE",
"286 410 CURVE SMOOTH",
"269 410 OFFCURVE",
"256 393 OFFCURVE",
"241 383 CURVE SMOOTH",
"197 351 OFFCURVE",
"155 316 OFFCURVE",
"99 295 CURVE",
"89 432 LINE"
);
}
);
width = 447;
}
);
unicode = 0065;
},
{
glyphname = f;
lastChange = "2019-03-20 22:35:49 +0000";
layers = (
{
hints = (
{
place = "{63, 88}";
type = Stem;
},
{
horizontal = 1;
place = "{252, 65}";
type = Stem;
},
{
horizontal = 1;
place = "{420, 67}";
type = Stem;
}
);
layerId = UUID0;
paths = (
{
closed = 1;
nodes = (
"247 215 OFFCURVE",
"338 231 OFFCURVE",
"428 245 CURVE SMOOTH",
"464 250 OFFCURVE",
"511 248 OFFCURVE",
"511 285 CURVE SMOOTH",
"511 311 OFFCURVE",
"493 316 OFFCURVE",
"474 316 CURVE SMOOTH",
"364 316 OFFCURVE",
"253 285 OFFCURVE",
"140 264 CURVE",
"123 404 LINE",
"203 411 OFFCURVE",
"277 413 OFFCURVE",
"351 417 CURVE",
"366 417 LINE SMOOTH",
"388 417 OFFCURVE",
"413 419 OFFCURVE",
"413 451 CURVE SMOOTH",
"413 472 OFFCURVE",
"393 485 OFFCURVE",
"348 485 CURVE SMOOTH",
"328 485 LINE SMOOTH",
"266 485 OFFCURVE",
"204 478 OFFCURVE",
"142 474 CURVE SMOOTH",
"69 469 OFFCURVE",
"50 458 OFFCURVE",
"50 395 CURVE SMOOTH",
"50 379 OFFCURVE",
"53 355 OFFCURVE",
"53 339 CURVE SMOOTH",
"53 311 OFFCURVE",
"49 289 OFFCURVE",
"49 254 CURVE SMOOTH",
"49 180 OFFCURVE",
"61 151 OFFCURVE",
"61 98 CURVE SMOOTH",
"61 79 LINE SMOOTH",
"61 37 OFFCURVE",
"64 -26 OFFCURVE",
"106 -26 CURVE SMOOTH",
"130 -26 OFFCURVE",
"150 9 OFFCURVE",
"150 39 CURVE SMOOTH",
"151 198 LINE"
);
}
);
width = 537;
}
);
unicode = 0066;
},
{
glyphname = g;
lastChange = "2019-03-20 22:35:49 +0000";
layers = (
{
hints = (
{
place = "{618, 69}";
type = Stem;
}
);
layerId = UUID0;
paths = (
{
closed = 1;
nodes = (
"342 85 OFFCURVE",
"317 65 OFFCURVE",
"276 65 CURVE SMOOTH",
"170 65 OFFCURVE",
"94 165 OFFCURVE",
"94 262 CURVE SMOOTH",
"94 316 OFFCURVE",
"128 402 OFFCURVE",
"185 402 CURVE SMOOTH",
"226 402 OFFCURVE",
"226 327 OFFCURVE",
"252 327 CURVE SMOOTH",
"276 327 OFFCURVE",
"293 360 OFFCURVE",
"293 379 CURVE SMOOTH",
"293 428 OFFCURVE",
"240 470 OFFCURVE",
"184 470 CURVE SMOOTH",
"92 470 OFFCURVE",
"23 365 OFFCURVE",
"23 261 CURVE SMOOTH",
"23 132 OFFCURVE",
"126 -5 OFFCURVE",
"278 -5 CURVE SMOOTH",
"361 -5 OFFCURVE",
"421 53 OFFCURVE",
"433 151 CURVE",
"616 266 LINE",
"616 213 LINE SMOOTH",
"616 193 OFFCURVE",
"614 161 OFFCURVE",
"614 142 CURVE SMOOTH",
"614 95 OFFCURVE",
"614 -15 OFFCURVE",
"675 -15 CURVE SMOOTH",
"695 -15 OFFCURVE",
"700 8 OFFCURVE",
"700 25 CURVE",
"686 51 OFFCURVE",
"683 78 OFFCURVE",
"683 106 CURVE SMOOTH",
"683 182 OFFCURVE",
"691 259 OFFCURVE",
"691 336 CURVE SMOOTH",
"691 366 OFFCURVE",
"685 404 OFFCURVE",
"642 404 CURVE SMOOTH",
"614 404 OFFCURVE",
"600 374 OFFCURVE",
"586 353 CURVE SMOOTH",
"539 285 OFFCURVE",
"433 215 OFFCURVE",
"372 215 CURVE SMOOTH",
"342 215 OFFCURVE",
"310 241 OFFCURVE",
"274 241 CURVE SMOOTH",
"234 241 OFFCURVE",
"194 214 OFFCURVE",
"194 178 CURVE SMOOTH",
"194 127 OFFCURVE",
"246 121 OFFCURVE",
"300 121 CURVE",
"355 129 LINE"
);
}
);
width = 726;
}
);
unicode = 0067;
},
{
glyphname = h;
lastChange = "2019-03-20 22:35:49 +0000";
layers = (
{
hints = (
{
place = "{128, 68}";
type = Stem;
},
{
horizontal = 1;
place = "{540, -20}";
target = down;
type = TopGhost;
}
);
layerId = UUID0;
paths = (
{
closed = 1;
nodes = (
"196 389 LINE SMOOTH",
"196 442 OFFCURVE",
"195 510 OFFCURVE",
"155 510 CURVE SMOOTH",
"129 510 OFFCURVE",
"125 472 OFFCURVE",
"125 437 CURVE SMOOTH",
"125 423 OFFCURVE",
"126 410 OFFCURVE",
"126 400 CURVE SMOOTH",
"126 331 LINE",
"99 348 OFFCURVE",
"67 370 OFFCURVE",
"45 370 CURVE SMOOTH",
"27 370 OFFCURVE",
"23 338 OFFCURVE",
"23 328 CURVE SMOOTH",
"25 277 OFFCURVE",
"99 273 OFFCURVE",
"141 266 CURVE",
"146 245 LINE SMOOTH",
"168 159 OFFCURVE",
"188 79 OFFCURVE",
"229 -1 CURVE",
"238 -16 OFFCURVE",
"264 -35 OFFCURVE",
"281 -35 CURVE SMOOTH",
"322 -35 OFFCURVE",
"326 26 OFFCURVE",
"326 50 CURVE SMOOTH",
"326 96 OFFCURVE",
"312 141 OFFCURVE",
"273 167 CURVE SMOOTH",
"225 198 OFFCURVE",
"218 233 OFFCURVE",
"218 274 CURVE",
"380 361 LINE",
"405 257 OFFCURVE",
"428 157 OFFCURVE",
"452 54 CURVE SMOOTH",
"458 28 LINE SMOOTH",
"465 -1 OFFCURVE",
"483 -48 OFFCURVE",
"509 -48 CURVE SMOOTH",
"531 -48 OFFCURVE",
"545 -27 OFFCURVE",
"545 -12 CURVE SMOOTH",
"545 -6 OFFCURVE",
"544 1 OFFCURVE",
"542 9 CURVE",
"491 160 OFFCURVE",
"458 312 OFFCURVE",
"434 463 CURVE SMOOTH",
"428 497 OFFCURVE",
"412 530 OFFCURVE",
"380 537 CURVE",
"365 534 OFFCURVE",
"344 505 OFFCURVE",
"344 485 CURVE",
"333 403 OFFCURVE",
"278 373 OFFCURVE",
"196 356 CURVE",
"196 356 LINE"
);
}
);
width = 560;
}
);
unicode = 0068;
},
{
glyphname = i;
lastChange = "2019-03-20 22:35:49 +0000";
layers = (
{
hints = (
{
place = "{25, 60}";
type = Stem;
},
{
horizontal = 1;
place = "{93, 339}";
type = Stem;
}
);
layerId = UUID0;
paths = (
{
closed = 1;
nodes = (
"38 381 OFFCURVE",
"49 225 OFFCURVE",
"64 151 CURVE SMOOTH",
"71 114 OFFCURVE",
"92 92 OFFCURVE",
"131 92 CURVE",
"143 95 OFFCURVE",
"147 103 OFFCURVE",
"147 113 CURVE SMOOTH",
"147 120 OFFCURVE",
"145 127 OFFCURVE",
"143 134 CURVE SMOOTH",
"116 222 OFFCURVE",
"100 387 OFFCURVE",
"85 479 CURVE SMOOTH",
"82 494 OFFCURVE",
"75 510 OFFCURVE",
"60 510 CURVE SMOOTH",
"46 510 OFFCURVE",
"23 484 OFFCURVE",
"23 462 CURVE SMOOTH",
"23 457 OFFCURVE",
"24 450 OFFCURVE",
"26 442 CURVE SMOOTH",
"26 442 LINE"
);
}
);
width = 172;
}
);
unicode = 0069;
},
{
glyphname = j;
lastChange = "2019-03-20 22:35:49 +0000";
layers = (
{
hints = (
{
place = "{216, 71}";
type = Stem;
}
);
layerId = UUID0;
paths = (
{
closed = 1;
nodes = (
"171 46 LINE",
"145 98 OFFCURVE",
"121 154 OFFCURVE",
"98 213 CURVE SMOOTH",
"90 232 OFFCURVE",
"77 247 OFFCURVE",
"58 247 CURVE SMOOTH",
"36 247 OFFCURVE",
"22 233 OFFCURVE",
"22 213 CURVE SMOOTH",
"22 192 OFFCURVE",
"44 155 OFFCURVE",
"60 126 CURVE",
"82 70 OFFCURVE",
"110 -44 OFFCURVE",
"180 -44 CURVE SMOOTH",
"235 -44 OFFCURVE",
"247 2 OFFCURVE",
"256 41 CURVE SMOOTH",
"258 51 LINE SMOOTH",
"272 107 OFFCURVE",
"283 196 OFFCURVE",
"283 252 CURVE SMOOTH",
"283 365 OFFCURVE",
"254 471 OFFCURVE",
"230 580 CURVE SMOOTH",
"226 598 OFFCURVE",
"215 612 OFFCURVE",
"196 612 CURVE SMOOTH",
"169 612 OFFCURVE",
"161 593 OFFCURVE",
"161 580 CURVE SMOOTH",
"161 535 OFFCURVE",
"188 476 OFFCURVE",
"197 427 CURVE SMOOTH",
"205 382 OFFCURVE",
"214 309 OFFCURVE",
"214 264 CURVE SMOOTH",
"214 204 OFFCURVE",
"202 108 OFFCURVE",
"187 50 CURVE",
"187 50 LINE"
);
}
);
width = 309;
}
);
unicode = 006A;
},
{
glyphname = k;
lastChange = "2019-03-20 22:35:49 +0000";
layers = (
{
hints = (
{
place = "{25, 69}";
type = Stem;
},
{
horizontal = 1;
place = "{-3, 55}";
type = Stem;
}
);
layerId = UUID0;
paths = (
{
closed = 1;
nodes = (
"243 190 OFFCURVE",
"296 321 OFFCURVE",
"339 399 CURVE SMOOTH",
"347 414 OFFCURVE",
"362 428 OFFCURVE",
"362 444 CURVE SMOOTH",
"362 452 OFFCURVE",
"351 476 OFFCURVE",
"329 476 CURVE SMOOTH",
"274 476 OFFCURVE",
"182 223 OFFCURVE",
"153 151 CURVE",
"138 154 LINE",
"113 264 OFFCURVE",
"128 383 OFFCURVE",
"93 485 CURVE SMOOTH",
"89 497 OFFCURVE",
"68 509 OFFCURVE",
"52 509 CURVE SMOOTH",
"23 509 OFFCURVE",
"23 467 OFFCURVE",
"23 449 CURVE SMOOTH",
"23 392 OFFCURVE",
"41 352 OFFCURVE",
"47 307 CURVE SMOOTH",
"60 209 OFFCURVE",
"65 118 OFFCURVE",
"85 18 CURVE SMOOTH",
"89 -5 OFFCURVE",
"98 -35 OFFCURVE",
"134 -35 CURVE SMOOTH",
"169 -35 OFFCURVE",
"182 11 OFFCURVE",
"201 40 CURVE",
"271 24 OFFCURVE",
"341 7 OFFCURVE",
"413 -6 CURVE",
"430 -6 LINE SMOOTH",
"444 -6 OFFCURVE",
"460 -4 OFFCURVE",
"460 14 CURVE SMOOTH",
"460 83 OFFCURVE",
"301 88 OFFCURVE",
"216 101 CURVE",
"217 105 LINE"
);
}
);
width = 483;
}
);
unicode = 006B;
},
{
glyphname = l;
lastChange = "2019-03-20 22:35:49 +0000";
layers = (
{
hints = (
{
place = "{24, 73}";
type = Stem;
},
{
place = "{24, 85}";
type = Stem;
},
{
horizontal = 1;
place = "{63, 65}";
type = Stem;
}
);
layerId = UUID0;
paths = (
{
closed = 1;
nodes = (
"92 53 OFFCURVE",
"92 96 OFFCURVE",
"90 126 CURVE",
"109 504 LINE",
"108 521 OFFCURVE",
"104 542 OFFCURVE",
"77 542 CURVE SMOOTH",
"53 542 OFFCURVE",
"45 523 OFFCURVE",
"44 501 CURVE SMOOTH",
"36 364 OFFCURVE",
"23 226 OFFCURVE",
"23 87 CURVE SMOOTH",
"23 12 OFFCURVE",
"54 -19 OFFCURVE",
"119 -19 CURVE SMOOTH",
"137 -19 OFFCURVE",
"157 -16 OFFCURVE",
"181 -13 CURVE",
"491 51 LINE",
"516 62 OFFCURVE",
"555 63 OFFCURVE",
"555 90 CURVE SMOOTH",
"555 106 OFFCURVE",
"530 126 OFFCURVE",
"504 126 CURVE SMOOTH",
"498 126 OFFCURVE",
"490 122 OFFCURVE",
"484 121 CURVE SMOOTH",
"380 101 OFFCURVE",
"278 81 OFFCURVE",
"174 60 CURVE SMOOTH",
"155 56 OFFCURVE",
"121 46 OFFCURVE",
"105 46 CURVE SMOOTH",
"101 46 OFFCURVE",
"98 47 OFFCURVE",
"97 48 CURVE SMOOTH",
"97 48 LINE"
);
}
);
width = 582;
}
);
unicode = 006C;
},
{
glyphname = m;
lastChange = "2019-03-20 22:35:49 +0000";
layers = (
{
hints = (
{
place = "{48, 78}";
type = Stem;
},
{
place = "{219, 81}";
type = Stem;
}
);
layerId = UUID0;
paths = (
{
closed = 1;
nodes = (
"435 365 LINE",
"448 276 OFFCURVE",
"449 189 OFFCURVE",
"457 99 CURVE SMOOTH",
"460 62 OFFCURVE",
"472 0 OFFCURVE",
"522 0 CURVE SMOOTH",
"540 0 OFFCURVE",
"549 11 OFFCURVE",
"549 28 CURVE SMOOTH",
"549 31 OFFCURVE",
"549 36 OFFCURVE",
"548 38 CURVE SMOOTH",
"512 99 OFFCURVE",
"524 167 OFFCURVE",
"519 231 CURVE SMOOTH",
"513 322 OFFCURVE",
"503 449 OFFCURVE",
"436 449 CURVE SMOOTH",
"365 449 OFFCURVE",
"312 327 OFFCURVE",
"277 249 CURVE",
"255 325 OFFCURVE",
"244 411 OFFCURVE",
"188 411 CURVE SMOOTH",
"154 411 OFFCURVE",
"126 377 OFFCURVE",
"104 328 CURVE",
"39 350 LINE",
"38 350 OFFCURVE",
"36 351 OFFCURVE",
"35 351 CURVE SMOOTH",
"24 351 OFFCURVE",
"21 328 OFFCURVE",
"21 309 CURVE SMOOTH",
"21 199 OFFCURVE",
"37 90 OFFCURVE",
"46 -20 CURVE SMOOTH",
"50 -70 OFFCURVE",
"61 -97 OFFCURVE",
"82 -97 CURVE SMOOTH",
"131 -97 OFFCURVE",
"122 -43 OFFCURVE",
"124 -20 CURVE SMOOTH",
"132 68 OFFCURVE",
"140 155 OFFCURVE",
"150 243 CURVE SMOOTH",
"153 265 OFFCURVE",
"167 285 OFFCURVE",
"173 307 CURVE",
"187 304 LINE",
"205 210 OFFCURVE",
"209 112 OFFCURVE",
"216 14 CURVE SMOOTH",
"219 -38 OFFCURVE",
"227 -58 OFFCURVE",
"250 -58 CURVE SMOOTH",
"294 -58 OFFCURVE",
"289 -18 OFFCURVE",
"295 7 CURVE SMOOTH",
"316 97 OFFCURVE",
"339 186 OFFCURVE",
"366 275 CURVE SMOOTH",
"375 307 OFFCURVE",
"399 335 OFFCURVE",
"416 363 CURVE SMOOTH",
"419 369 LINE"
);
}
);
width = 574;
}
);
unicode = 006D;
},
{
glyphname = n;
lastChange = "2019-03-20 22:35:49 +0000";
layers = (
{
hints = (
{
place = "{340, 94}";
type = Stem;
}
);
layerId = UUID0;
paths = (
{
closed = 1;
nodes = (
"198 72 OFFCURVE",
"236 23 OFFCURVE",
"307 23 CURVE SMOOTH",
"384 23 OFFCURVE",
"402 83 OFFCURVE",
"419 135 CURVE SMOOTH",
"420 136 OFFCURVE",
"421 140 OFFCURVE",
"421 142 CURVE SMOOTH",
"425 229 OFFCURVE",
"434 316 OFFCURVE",
"434 403 CURVE SMOOTH",
"434 449 OFFCURVE",
"398 534 OFFCURVE",
"371 534 CURVE SMOOTH",
"359 534 OFFCURVE",
"341 519 OFFCURVE",
"341 495 CURVE SMOOTH",
"341 491 OFFCURVE",
"343 485 OFFCURVE",
"344 482 CURVE SMOOTH",
"365 429 OFFCURVE",
"372 376 OFFCURVE",
"372 322 CURVE SMOOTH",
"372 276 OFFCURVE",
"367 228 OFFCURVE",
"359 182 CURVE SMOOTH",
"353 148 OFFCURVE",
"353 91 OFFCURVE",
"300 91 CURVE SMOOTH",
"246 91 OFFCURVE",
"205 177 OFFCURVE",
"185 220 CURVE",
"170 259 OFFCURVE",
"159 300 OFFCURVE",
"146 339 CURVE SMOOTH",
"141 355 OFFCURVE",
"140 372 OFFCURVE",
"131 383 CURVE SMOOTH",
"119 397 OFFCURVE",
"99 414 OFFCURVE",
"82 414 CURVE SMOOTH",
"62 414 OFFCURVE",
"52 395 OFFCURVE",
"51 374 CURVE SMOOTH",
"42 238 OFFCURVE",
"31 101 OFFCURVE",
"24 -36 CURVE SMOOTH",
"24 -43 LINE SMOOTH",
"24 -87 OFFCURVE",
"42 -108 OFFCURVE",
"68 -108 CURVE SMOOTH",
"130 -108 OFFCURVE",
"127 33 OFFCURVE",
"138 147 CURVE",
"138 147 LINE"
);
}
);
width = 457;
}
);
unicode = 006E;
},
{
glyphname = o;
lastChange = "2019-03-20 22:35:49 +0000";
layers = (
{
hints = (
{
place = "{393, 67}";
type = Stem;
}
);
layerId = UUID0;
paths = (
{
closed = 1;
nodes = (
"194 484 OFFCURVE",
"164 472 OFFCURVE",
"128 435 CURVE SMOOTH",
"58 363 OFFCURVE",
"23 280 OFFCURVE",
"23 185 CURVE SMOOTH",
"23 75 OFFCURVE",
"103 -25 OFFCURVE",
"223 -25 CURVE SMOOTH",
"350 -25 OFFCURVE",
"458 75 OFFCURVE",
"458 206 CURVE SMOOTH",
"458 261 OFFCURVE",
"440 316 OFFCURVE",
"423 367 CURVE SMOOTH",
"419 379 LINE SMOOTH",
"400 437 OFFCURVE",
"369 487 OFFCURVE",
"311 487 CURVE SMOOTH",
"303 487 OFFCURVE",
"294 486 OFFCURVE",
"285 484 CURVE",
"251 484 LINE"
);
},
{
closed = 1;
nodes = (
"141 46 OFFCURVE",
"89 98 OFFCURVE",
"89 191 CURVE SMOOTH",
"89 285 OFFCURVE",
"167 420 OFFCURVE",
"243 420 CURVE SMOOTH",
"315 420 OFFCURVE",
"390 301 OFFCURVE",
"390 213 CURVE SMOOTH",
"390 121 OFFCURVE",
"315 46 OFFCURVE",
"225 45 CURVE",
"225 45 LINE"
);
}
);
width = 483;
}
);
unicode = 006F;
},
{
glyphname = p;
lastChange = "2019-03-20 22:35:49 +0000";
layers = (
{
hints = (
{
horizontal = 1;
place = "{182, 80}";
type = Stem;
},
{
horizontal = 1;
place = "{438, 61}";
type = Stem;
},
{
horizontal = 1;
place = "{533, -20}";
target = down;
type = TopGhost;
}
);
layerId = UUID0;
paths = (
{
closed = 1;
nodes = (
"78 508 OFFCURVE",
"24 494 OFFCURVE",
"24 464 CURVE SMOOTH",
"24 442 OFFCURVE",
"53 436 OFFCURVE",
"74 436 CURVE SMOOTH",
"85 436 OFFCURVE",
"95 441 OFFCURVE",
"113 446 CURVE",
"132 264 LINE",
"126 262 OFFCURVE",
"118 261 OFFCURVE",
"111 261 CURVE",
"101 263 OFFCURVE",
"91 267 OFFCURVE",
"82 267 CURVE SMOOTH",
"72 267 OFFCURVE",
"55 259 OFFCURVE",
"55 232 CURVE SMOOTH",
"55 195 OFFCURVE",
"93 185 OFFCURVE",
"146 178 CURVE",
"168 90 OFFCURVE",
"191 -64 OFFCURVE",
"250 -64 CURVE SMOOTH",
"276 -64 OFFCURVE",
"297 -34 OFFCURVE",
"297 -2 CURVE SMOOTH",
"297 24 OFFCURVE",
"285 52 OFFCURVE",
"264 67 CURVE",
"229 80 OFFCURVE",
"223 167 OFFCURVE",
"215 213 CURVE",
"306 275 OFFCURVE",
"409 348 OFFCURVE",
"409 428 CURVE SMOOTH",
"409 494 OFFCURVE",
"345 531 OFFCURVE",
"229 531 CURVE SMOOTH",
"180 531 LINE",
"164 553 OFFCURVE",
"165 588 OFFCURVE",
"136 588 CURVE SMOOTH",
"108 588 OFFCURVE",
"102 574 OFFCURVE",
"102 559 CURVE SMOOTH",
"102 548 OFFCURVE",
"105 533 OFFCURVE",
"106 522 CURVE",
"106 522 LINE"
);
},
{
closed = 1;
nodes = (
"339 427 OFFCURVE",
"340 425 OFFCURVE",
"340 424 CURVE SMOOTH",
"340 395 OFFCURVE",
"258 330 OFFCURVE",
"202 292 CURVE",
"182 454 LINE",
"203 459 OFFCURVE",
"224 462 OFFCURVE",
"244 462 CURVE SMOOTH",
"276 462 OFFCURVE",
"331 454 OFFCURVE",
"339 428 CURVE",
"339 428 LINE"
);
}
);
width = 433;
}
);
unicode = 0070;
},
{
glyphname = q;
lastChange = "2019-03-20 22:35:49 +0000";
layers = (
{
hints = (
{
place = "{180, 65}";
type = Stem;
},
{
horizontal = 1;
place = "{-3, 74}";
type = Stem;
}
);
layerId = UUID0;
paths = (
{
closed = 1;
nodes = (
"270 -43 OFFCURVE",
"325 -123 OFFCURVE",
"365 -123 CURVE SMOOTH",
"381 -123 OFFCURVE",
"401 -106 OFFCURVE",
"401 -89 CURVE SMOOTH",
"401 -74 OFFCURVE",
"383 -60 OFFCURVE",
"369 -50 CURVE SMOOTH",
"344 -33 OFFCURVE",
"312 3 OFFCURVE",
"301 35 CURVE",
"357 91 OFFCURVE",
"396 155 OFFCURVE",
"396 247 CURVE",
"387 328 OFFCURVE",
"333 377 OFFCURVE",
"253 377 CURVE SMOOTH",
"239 377 LINE SMOOTH",
"220 377 OFFCURVE",
"199 379 OFFCURVE",
"187 379 CURVE SMOOTH",
"92 379 OFFCURVE",
"5 300 OFFCURVE",
"5 168 CURVE SMOOTH",
"5 73 OFFCURVE",
"70 -6 OFFCURVE",
"192 -6 CURVE SMOOTH",
"204 -6 OFFCURVE",
"223 -4 OFFCURVE",
"235 -3 CURVE",
"235 -3 LINE"
);
},
{
closed = 1;
nodes = (
"194 68 OFFCURVE",
"187 68 OFFCURVE",
"181 68 CURVE SMOOTH",
"112 68 OFFCURVE",
"75 102 OFFCURVE",
"75 172 CURVE SMOOTH",
"75 239 OFFCURVE",
"118 293 OFFCURVE",
"185 306 CURVE",
"186 303 OFFCURVE",
"186 299 OFFCURVE",
"186 296 CURVE SMOOTH",
"186 283 OFFCURVE",
"181 269 OFFCURVE",
"181 257 CURVE SMOOTH",
"181 246 OFFCURVE",
"188 227 OFFCURVE",
"213 227 CURVE SMOOTH",
"236 227 OFFCURVE",
"243 258 OFFCURVE",
"261 274 CURVE",
"311 264 LINE SMOOTH",
"326 261 OFFCURVE",
"328 241 OFFCURVE",
"328 226 CURVE SMOOTH",
"328 214 LINE SMOOTH",
"328 176 OFFCURVE",
"308 144 OFFCURVE",
"265 104 CURVE",
"249 141 OFFCURVE",
"238 194 OFFCURVE",
"207 194 CURVE SMOOTH",
"182 194 OFFCURVE",
"175 174 OFFCURVE",
"175 159 CURVE SMOOTH",
"175 128 OFFCURVE",
"189 100 OFFCURVE",
"197 67 CURVE",
"201 69 LINE"
);
}
);
width = 443;
}
);
unicode = 0071;
},
{
glyphname = r;
lastChange = "2019-03-20 22:35:49 +0000";
layers = (
{
hints = (
{
place = "{98, 79}";
type = Stem;
}
);
layerId = UUID0;
paths = (
{
closed = 1;
nodes = (
"320 234 OFFCURVE",
"401 294 OFFCURVE",
"401 360 CURVE SMOOTH",
"401 466 OFFCURVE",
"205 467 OFFCURVE",
"99 467 CURVE",
"69 463 OFFCURVE",
"23 450 OFFCURVE",
"23 422 CURVE SMOOTH",
"23 415 OFFCURVE",
"26 408 OFFCURVE",
"35 403 CURVE SMOOTH",
"75 382 OFFCURVE",
"67 341 OFFCURVE",
"71 307 CURVE SMOOTH",
"81 206 OFFCURVE",
"87 106 OFFCURVE",
"96 4 CURVE SMOOTH",
"98 -24 OFFCURVE",
"114 -65 OFFCURVE",
"138 -65 CURVE SMOOTH",
"170 -65 OFFCURVE",
"184 -21 OFFCURVE",
"184 7 CURVE SMOOTH",
"184 23 OFFCURVE",
"179 37 OFFCURVE",
"170 52 CURVE SMOOTH",
"161 66 OFFCURVE",
"161 89 OFFCURVE",
"154 105 CURVE",
"208 101 OFFCURVE",
"250 95 OFFCURVE",
"291 79 CURVE SMOOTH",
"374 47 OFFCURVE",
"405 13 OFFCURVE",
"555 -20 CURVE SMOOTH",
"564 -22 OFFCURVE",
"573 -24 OFFCURVE",
"582 -24 CURVE SMOOTH",
"596 -24 OFFCURVE",
"615 -17 OFFCURVE",
"615 9 CURVE SMOOTH",
"615 40 OFFCURVE",
"537 56 OFFCURVE",
"501 71 CURVE SMOOTH",
"264 175 LINE"
);
},
{
closed = 1;
nodes = (
"129 390 LINE",
"154 392 OFFCURVE",
"179 394 OFFCURVE",
"204 394 CURVE SMOOTH",
"246 394 OFFCURVE",
"329 376 OFFCURVE",
"329 362 CURVE SMOOTH",
"329 335 OFFCURVE",
"223 240 OFFCURVE",
"145 192 CURVE",
"145 192 LINE"
);
}
);
width = 628;
}
);
unicode = 0072;
},
{
glyphname = s;
lastChange = "2019-03-20 22:35:49 +0000";
layers = (
{
hints = (
{
horizontal = 1;
place = "{420, 57}";
type = Stem;
}
);
layerId = UUID0;
paths = (
{
closed = 1;
nodes = (
"315 66 OFFCURVE",
"225 53 OFFCURVE",
"178 53 CURVE SMOOTH",
"145 53 OFFCURVE",
"112 61 OFFCURVE",
"81 81 CURVE",
"72 85 OFFCURVE",
"64 88 OFFCURVE",
"55 88 CURVE SMOOTH",
"42 88 OFFCURVE",
"23 76 OFFCURVE",
"23 53 CURVE SMOOTH",
"23 1 OFFCURVE",
"155 -20 OFFCURVE",
"183 -20 CURVE SMOOTH",
"283 -20 OFFCURVE",
"380 26 OFFCURVE",
"380 83 CURVE SMOOTH",
"380 146 OFFCURVE",
"288 209 OFFCURVE",
"225 259 CURVE SMOOTH",
"184 292 OFFCURVE",
"130 335 OFFCURVE",
"130 373 CURVE SMOOTH",
"130 407 OFFCURVE",
"159 430 OFFCURVE",
"203 430 CURVE SMOOTH",
"235 430 OFFCURVE",
"271 410 OFFCURVE",
"297 410 CURVE SMOOTH",
"308 410 OFFCURVE",
"322 421 OFFCURVE",
"322 441 CURVE SMOOTH",
"322 476 OFFCURVE",
"244 500 OFFCURVE",
"203 500 CURVE SMOOTH",
"132 500 OFFCURVE",
"60 449 OFFCURVE",
"60 372 CURVE SMOOTH",
"60 273 OFFCURVE",
"185 204 OFFCURVE",
"258 142 CURVE SMOOTH",
"275 128 OFFCURVE",
"315 102 OFFCURVE",
"315 88 CURVE SMOOTH",
"315 88 LINE"
);
}
);
width = 404;
}
);
unicode = 0073;
},
{
glyphname = t;
lastChange = "2019-03-20 22:35:49 +0000";
layers = (
{
hints = (
{
place = "{215, 68}";
type = Stem;
}
);
layerId = UUID0;
paths = (
{
closed = 1;
nodes = (
"216 402 OFFCURVE",
"214 347 OFFCURVE",
"214 293 CURVE SMOOTH",
"214 240 OFFCURVE",
"223 119 OFFCURVE",
"234 40 CURVE SMOOTH",
"241 -10 OFFCURVE",
"293 -78 OFFCURVE",
"328 -78 CURVE SMOOTH",
"339 -78 OFFCURVE",
"352 -72 OFFCURVE",
"352 -48 CURVE SMOOTH",
"352 -40 OFFCURVE",
"348 -26 OFFCURVE",
"341 -20 CURVE",
"286 40 OFFCURVE",
"282 135 OFFCURVE",
"282 209 CURVE SMOOTH",
"282 294 OFFCURVE",
"283 379 OFFCURVE",
"285 469 CURVE",
"380 479 OFFCURVE",
"480 478 OFFCURVE",
"480 512 CURVE SMOOTH",
"480 545 OFFCURVE",
"453 550 OFFCURVE",
"436 550 CURVE SMOOTH",
"366 550 OFFCURVE",
"296 537 OFFCURVE",
"227 532 CURVE SMOOTH",
"203 530 OFFCURVE",
"179 521 OFFCURVE",
"154 521 CURVE SMOOTH",
"135 521 OFFCURVE",
"115 535 OFFCURVE",
"96 535 CURVE SMOOTH",
"64 535 OFFCURVE",
"23 517 OFFCURVE",
"23 483 CURVE",
"31 450 OFFCURVE",
"69 446 OFFCURVE",
"101 446 CURVE SMOOTH",
"129 446 LINE SMOOTH",
"155 446 OFFCURVE",
"181 452 OFFCURVE",
"216 457 CURVE",
"217 461 LINE"
);
}
);
width = 505;
}
);
unicode = 0074;
},
{
glyphname = u;
lastChange = "2019-03-20 22:35:49 +0000";
layers = (
{
hints = (
{
place = "{315, 68}";
type = Stem;
},
{
horizontal = 1;
place = "{532, -20}";
target = down;
type = TopGhost;
}
);
layerId = UUID0;
paths = (
{
closed = 1;
nodes = (
"170 47 OFFCURVE",
"149 123 OFFCURVE",
"142 161 CURVE SMOOTH",
"124 258 OFFCURVE",
"112 356 OFFCURVE",
"98 456 CURVE",
"96 485 OFFCURVE",
"90 528 OFFCURVE",
"58 531 CURVE",
"34 527 OFFCURVE",
"24 507 OFFCURVE",
"24 478 CURVE",
"37 340 OFFCURVE",
"53 212 OFFCURVE",
"99 70 CURVE SMOOTH",
"114 24 OFFCURVE",
"137 -25 OFFCURVE",
"196 -25 CURVE SMOOTH",
"287 -25 OFFCURVE",
"304 110 OFFCURVE",
"325 177 CURVE",
"329 185 OFFCURVE",
"335 198 OFFCURVE",
"338 207 CURVE",
"375 143 OFFCURVE",
"441 1 OFFCURVE",
"479 1 CURVE SMOOTH",
"493 1 OFFCURVE",
"511 15 OFFCURVE",
"511 30 CURVE SMOOTH",
"511 63 OFFCURVE",
"448 137 OFFCURVE",
"427 190 CURVE SMOOTH",
"357 366 OFFCURVE",
"417 538 OFFCURVE",
"348 538 CURVE SMOOTH",
"316 538 OFFCURVE",
"310 498 OFFCURVE",
"306 467 CURVE",
"283 359 OFFCURVE",
"263 251 OFFCURVE",
"240 143 CURVE SMOOTH",
"232 109 OFFCURVE",
"224 44 OFFCURVE",
"204 45 CURVE SMOOTH",
"204 45 LINE"
);
}
);
width = 533;
}
);
unicode = 0075;
},
{
glyphname = v;
lastChange = "2019-03-20 22:35:49 +0000";
layers = (
{
hints = (
{
place = "{301, 64}";
type = Stem;
},
{
place = "{311, 67}";
type = Stem;
}
);
layerId = UUID0;
paths = (
{
closed = 1;
nodes = (
"269 103 OFFCURVE",
"235 142 OFFCURVE",
"218 174 CURVE SMOOTH",
"179 248 OFFCURVE",
"117 432 OFFCURVE",
"61 432 CURVE SMOOTH",
"44 432 OFFCURVE",
"24 414 OFFCURVE",
"24 396 CURVE SMOOTH",
"24 371 OFFCURVE",
"79 300 OFFCURVE",
"102 255 CURVE SMOOTH",
"144 172 OFFCURVE",
"209 -11 OFFCURVE",
"288 -11 CURVE SMOOTH",
"354 -11 OFFCURVE",
"359 65 OFFCURVE",
"362 125 CURVE SMOOTH",
"362 130 OFFCURVE",
"363 135 OFFCURVE",
"363 140 CURVE SMOOTH",
"369 250 OFFCURVE",
"376 360 OFFCURVE",
"378 470 CURVE SMOOTH",
"378 481 OFFCURVE",
"381 494 OFFCURVE",
"381 505 CURVE SMOOTH",
"381 519 OFFCURVE",
"374 544 OFFCURVE",
"344 544 CURVE SMOOTH",
"325 544 OFFCURVE",
"311 520 OFFCURVE",
"309 474 CURVE SMOOTH",
"303 341 OFFCURVE",
"304 230 OFFCURVE",
"287 73 CURVE",
"287 73 LINE"
);
}
);
width = 406;
}
);
unicode = 0076;
},
{
glyphname = w;
lastChange = "2019-03-20 22:35:49 +0000";
layers = (
{
hints = (
{
place = "{229, 88}";
type = Stem;
},
{
place = "{235, 80}";
type = Stem;
},
{
horizontal = 1;
place = "{484, -20}";
target = down;
type = TopGhost;
}
);
layerId = UUID0;
paths = (
{
closed = 1;
nodes = (
"162 40 OFFCURVE",
"128 102 OFFCURVE",
"123 136 CURVE SMOOTH",
"108 228 OFFCURVE",
"100 319 OFFCURVE",
"89 412 CURVE SMOOTH",
"85 441 OFFCURVE",
"86 483 OFFCURVE",
"52 483 CURVE SMOOTH",
"29 483 OFFCURVE",
"22 457 OFFCURVE",
"22 433 CURVE SMOOTH",
"22 299 OFFCURVE",
"23 153 OFFCURVE",
"86 38 CURVE SMOOTH",
"110 -7 OFFCURVE",
"140 -29 OFFCURVE",
"172 -29 CURVE SMOOTH",
"218 -29 OFFCURVE",
"245 6 OFFCURVE",
"285 76 CURVE",
"345 30 OFFCURVE",
"367 5 OFFCURVE",
"418 5 CURVE SMOOTH",
"517 5 OFFCURVE",
"575 117 OFFCURVE",
"575 269 CURVE SMOOTH",
"575 364 OFFCURVE",
"545 488 OFFCURVE",
"491 488 CURVE SMOOTH",
"469 488 OFFCURVE",
"455 470 OFFCURVE",
"455 460 CURVE SMOOTH",
"455 445 OFFCURVE",
"469 431 OFFCURVE",
"476 416 CURVE SMOOTH",
"499 368 OFFCURVE",
"509 318 OFFCURVE",
"509 269 CURVE SMOOTH",
"509 194 OFFCURVE",
"484 74 OFFCURVE",
"421 74 CURVE SMOOTH",
"363 74 OFFCURVE",
"314 161 OFFCURVE",
"313 235 CURVE",
"315 279 OFFCURVE",
"317 322 OFFCURVE",
"317 367 CURVE SMOOTH",
"317 395 OFFCURVE",
"315 443 OFFCURVE",
"282 443 CURVE SMOOTH",
"249 443 OFFCURVE",
"229 392 OFFCURVE",
"229 353 CURVE SMOOTH",
"229 303 OFFCURVE",
"235 254 OFFCURVE",
"235 205 CURVE SMOOTH",
"235 143 OFFCURVE",
"198 42 OFFCURVE",
"180 41 CURVE SMOOTH",
"180 41 LINE"
);
}
);
width = 602;
}
);
unicode = 0077;
},
{
glyphname = x;
lastChange = "2019-03-20 22:35:49 +0000";
layers = (
{
hints = (
{
horizontal = 1;
place = "{477, -20}";
target = down;
type = TopGhost;
}
);
layerId = UUID0;
paths = (
{
closed = 1;
nodes = (
"178 321 OFFCURVE",
"127 389 OFFCURVE",
"85 389 CURVE SMOOTH",
"66 389 OFFCURVE",
"59 376 OFFCURVE",
"59 366 CURVE SMOOTH",
"59 339 OFFCURVE",
"103 297 OFFCURVE",
"130 269 CURVE SMOOTH",
"190 206 LINE",
"132 94 OFFCURVE",
"82 -5 OFFCURVE",
"33 -110 CURVE SMOOTH",
"27 -122 OFFCURVE",
"21 -136 OFFCURVE",
"21 -147 CURVE SMOOTH",
"21 -159 OFFCURVE",
"31 -177 OFFCURVE",
"55 -177 CURVE SMOOTH",
"90 -177 OFFCURVE",
"104 -114 OFFCURVE",
"123 -82 CURVE",
"160 -4 OFFCURVE",
"198 71 OFFCURVE",
"240 154 CURVE",
"306 99 OFFCURVE",
"337 68 OFFCURVE",
"391 27 CURVE SMOOTH",
"404 17 OFFCURVE",
"420 6 OFFCURVE",
"435 6 CURVE SMOOTH",
"448 6 OFFCURVE",
"469 24 OFFCURVE",
"469 40 CURVE SMOOTH",
"469 57 OFFCURVE",
"449 69 OFFCURVE",
"435 82 CURVE SMOOTH",
"278 217 LINE",
"319 300 OFFCURVE",
"363 356 OFFCURVE",
"404 427 CURVE",
"408 432 OFFCURVE",
"409 439 OFFCURVE",
"409 447 CURVE SMOOTH",
"409 465 OFFCURVE",
"401 471 OFFCURVE",
"383 471 CURVE SMOOTH",
"335 471 OFFCURVE",
"275 351 OFFCURVE",
"227 274 CURVE",
"227 274 LINE"
);
}
);
width = 498;
}
);
unicode = 0078;
},
{
glyphname = y;
lastChange = "2019-03-20 22:35:49 +0000";
layers = (
{
hints = (
{
place = "{282, 62}";
type = Stem;
}
);
layerId = UUID0;
paths = (
{
closed = 1;
nodes = (
"294 159 OFFCURVE",
"294 125 OFFCURVE",
"304 94 CURVE SMOOTH",
"313 65 OFFCURVE",
"333 21 OFFCURVE",
"351 -4 CURVE SMOOTH",
"355 -11 OFFCURVE",
"370 -19 OFFCURVE",
"383 -19 CURVE SMOOTH",
"400 -19 OFFCURVE",
"407 -2 OFFCURVE",
"407 12 CURVE SMOOTH",
"407 21 OFFCURVE",
"405 28 OFFCURVE",
"401 33 CURVE SMOOTH",
"373 73 OFFCURVE",
"369 120 OFFCURVE",
"365 166 CURVE SMOOTH",
"365 171 LINE SMOOTH",
"357 257 OFFCURVE",
"352 343 OFFCURVE",
"344 428 CURVE SMOOTH",
"341 455 OFFCURVE",
"347 489 OFFCURVE",
"315 489 CURVE SMOOTH",
"311 489 LINE SMOOTH",
"285 488 OFFCURVE",
"280 472 OFFCURVE",
"280 454 CURVE SMOOTH",
"280 443 OFFCURVE",
"282 431 OFFCURVE",
"282 421 CURVE SMOOTH",
"283 391 OFFCURVE",
"285 359 OFFCURVE",
"287 329 CURVE",
"287 278 LINE",
"229 288 OFFCURVE",
"148 327 OFFCURVE",
"105 363 CURVE",
"96 374 OFFCURVE",
"81 387 OFFCURVE",
"69 395 CURVE",
"65 396 OFFCURVE",
"59 397 OFFCURVE",
"52 397 CURVE SMOOTH",
"47 397 OFFCURVE",
"39 395 OFFCURVE",
"35 392 CURVE SMOOTH",
"28 385 OFFCURVE",
"25 375 OFFCURVE",
"25 367 CURVE SMOOTH",
"25 365 OFFCURVE",
"26 360 OFFCURVE",
"27 357 CURVE",
"36 344 OFFCURVE",
"49 327 OFFCURVE",
"61 316 CURVE SMOOTH",
"125 257 OFFCURVE",
"202 219 OFFCURVE",
"290 196 CURVE",
"290 196 LINE"
);
}
);
width = 426;
}
);
unicode = 0079;
},
{
glyphname = z;
lastChange = "2019-03-20 22:35:49 +0000";
layers = (
{
hints = (
{
place = "{126, 67}";
type = Stem;
},
{
place = "{253, 60}";
type = Stem;
},
{
horizontal = 1;
place = "{-26, 64}";
type = Stem;
},
{
horizontal = 1;
place = "{-26, 21}";
target = up;
type = BottomGhost;
},
{
horizontal = 1;
place = "{424, 74}";
type = Stem;
}
);
layerId = UUID0;
paths = (
{
closed = 1;
nodes = (
"238 188 OFFCURVE",
"313 283 OFFCURVE",
"313 424 CURVE SMOOTH",
"313 465 OFFCURVE",
"282 498 OFFCURVE",
"231 498 CURVE SMOOTH",
"146 498 OFFCURVE",
"23 440 OFFCURVE",
"23 384 CURVE SMOOTH",
"23 361 OFFCURVE",
"43 350 OFFCURVE",
"62 350 CURVE",
"80 352 OFFCURVE",
"101 360 OFFCURVE",
"110 374 CURVE SMOOTH",
"137 416 OFFCURVE",
"169 419 OFFCURVE",
"215 423 CURVE SMOOTH",
"220 423 OFFCURVE",
"227 424 OFFCURVE",
"233 424 CURVE SMOOTH",
"246 424 OFFCURVE",
"253 424 OFFCURVE",
"253 413 CURVE SMOOTH",
"253 372 OFFCURVE",
"181 213 OFFCURVE",
"146 125 CURVE SMOOTH",
"133 92 OFFCURVE",
"126 65 OFFCURVE",
"126 43 CURVE SMOOTH",
"126 -3 OFFCURVE",
"155 -26 OFFCURVE",
"213 -26 CURVE SMOOTH",
"227 -26 OFFCURVE",
"242 -25 OFFCURVE",
"259 -22 CURVE SMOOTH",
"361 -6 OFFCURVE",
"348 -9 OFFCURVE",
"451 6 CURVE SMOOTH",
"475 9 OFFCURVE",
"523 21 OFFCURVE",
"523 51 CURVE SMOOTH",
"523 75 OFFCURVE",
"509 83 OFFCURVE",
"494 83 CURVE SMOOTH",
"487 83 OFFCURVE",
"479 82 OFFCURVE",
"472 80 CURVE",
"361 63 OFFCURVE",
"410 69 OFFCURVE",
"192 38 CURVE",
"194 49 LINE"
);
}
);
width = 537;
}
);
unicode = 007A;
},
{
glyphname = zero;
lastChange = "2019-03-20 22:35:49 +0000";
layers = (
{
hints = (
{
place = "{45, 84}";
type = Stem;
},
{
place = "{396, 83}";
type = Stem;
},
{
horizontal = 1;
place = "{40, 85}";
type = Stem;
},
{
horizontal = 1;
place = "{554, 83}";
type = Stem;
}
);
layerId = UUID0;
paths = (
{
closed = 1;
nodes = (
"479 462 OFFCURVE",
"381 637 OFFCURVE",
"285 637 CURVE SMOOTH",
"268 637 OFFCURVE",
"251 634 OFFCURVE",
"235 627 CURVE SMOOTH",
"115 578 OFFCURVE",
"45 438 OFFCURVE",
"45 286 CURVE SMOOTH",
"45 133 OFFCURVE",
"128 40 OFFCURVE",
"230 40 CURVE SMOOTH",
"261 40 OFFCURVE",
"294 48 OFFCURVE",
"327 66 CURVE SMOOTH",
"432 122 OFFCURVE",
"475 215 OFFCURVE",
"479 307 CURVE",
"479 307 LINE"
);
},
{
closed = 1;
nodes = (
"137 373 OFFCURVE",
"154 448 OFFCURVE",
"206 510 CURVE SMOOTH",
"230 539 OFFCURVE",
"250 554 OFFCURVE",
"269 554 CURVE SMOOTH",
"321 554 OFFCURVE",
"396 413 OFFCURVE",
"396 330 CURVE SMOOTH",
"396 252 OFFCURVE",
"337 125 OFFCURVE",
"229 125 CURVE SMOOTH",
"152 125 OFFCURVE",
"140 232 OFFCURVE",
"129 274 CURVE",
"129 274 LINE"
);
}
);
width = 499;
}
);
unicode = 0030;
},
{
glyphname = one;
lastChange = "2019-03-20 22:35:49 +0000";
layers = (
{
hints = (
{
place = "{51, 190}";
type = Stem;
},
{
horizontal = 1;
place = "{31, 673}";
type = Stem;
}
);
layerId = UUID0;
paths = (
{
closed = 1;
nodes = (
"51 475 OFFCURVE",
"60 348 OFFCURVE",
"78 194 CURVE SMOOTH",
"86 125 OFFCURVE",
"125 31 OFFCURVE",
"199 31 CURVE SMOOTH",
"222 31 OFFCURVE",
"241 44 OFFCURVE",
"241 64 CURVE SMOOTH",
"241 75 OFFCURVE",
"237 88 OFFCURVE",
"231 92 CURVE SMOOTH",
"175 130 OFFCURVE",
"167 188 OFFCURVE",
"162 247 CURVE SMOOTH",
"150 379 OFFCURVE",
"139 512 OFFCURVE",
"131 645 CURVE SMOOTH",
"129 672 OFFCURVE",
"135 704 OFFCURVE",
"97 704 CURVE SMOOTH",
"57 704 OFFCURVE",
"51 662 OFFCURVE",
"51 604 CURVE SMOOTH",
"51 604 LINE"
);
}
);
width = 263;
}
);
unicode = 0031;
},
{
glyphname = two;
lastChange = "2019-03-20 22:35:49 +0000";
layers = (
{
hints = (
{
place = "{30, 79}";
type = Stem;
},
{
place = "{231, 76}";
type = Stem;
},
{
horizontal = 1;
place = "{-3, 91}";
type = Stem;
},
{
horizontal = 1;
place = "{585, 87}";
type = Stem;
}
);
layerId = UUID0;
paths = (
{
closed = 1;
nodes = (
"241 239 OFFCURVE",
"307 373 OFFCURVE",
"307 537 CURVE SMOOTH",
"307 621 OFFCURVE",
"295 672 OFFCURVE",
"228 672 CURVE SMOOTH",
"141 672 OFFCURVE",
"30 543 OFFCURVE",
"30 462 CURVE SMOOTH",
"30 438 OFFCURVE",
"39 414 OFFCURVE",
"73 414 CURVE SMOOTH",
"94 414 OFFCURVE",
"109 440 OFFCURVE",
"109 460 CURVE",
"122 514 OFFCURVE",
"190 585 OFFCURVE",
"220 585 CURVE SMOOTH",
"229 585 OFFCURVE",
"231 578 OFFCURVE",
"231 568 CURVE SMOOTH",
"231 490 OFFCURVE",
"213 412 OFFCURVE",
"188 328 CURVE SMOOTH",
"165 249 OFFCURVE",
"118 149 OFFCURVE",
"118 77 CURVE SMOOTH",
"118 22 OFFCURVE",
"153 -3 OFFCURVE",
"245 -3 CURVE SMOOTH",
"309 -3 OFFCURVE",
"374 2 OFFCURVE",
"438 7 CURVE SMOOTH",
"470 9 OFFCURVE",
"491 37 OFFCURVE",
"491 61 CURVE SMOOTH",
"491 86 OFFCURVE",
"453 88 OFFCURVE",
"429 88 CURVE SMOOTH",
"417 88 LINE SMOOTH",
"347 88 OFFCURVE",
"284 85 OFFCURVE",
"204 82 CURVE",
"204 82 LINE"
);
}
);
width = 505;
}
);
unicode = 0032;
},
{
glyphname = three;
lastChange = "2019-03-20 22:35:49 +0000";
layers = (
{
hints = (
{
place = "{341, 87}";
type = Stem;
},
{
place = "{497, 78}";
type = Stem;
},
{
horizontal = 1;
place = "{-13, 72}";
type = Stem;
},
{
horizontal = 1;
place = "{592, 77}";
type = Stem;
}
);
layerId = UUID0;
paths = (
{
closed = 1;
nodes = (
"344 446 OFFCURVE",
"428 459 OFFCURVE",
"428 561 CURVE SMOOTH",
"428 637 OFFCURVE",
"341 669 OFFCURVE",
"252 669 CURVE SMOOTH",
"183 669 OFFCURVE",
"23 630 OFFCURVE",
"23 576 CURVE SMOOTH",
"23 553 OFFCURVE",
"42 534 OFFCURVE",
"68 534 CURVE SMOOTH",
"79 534 OFFCURVE",
"90 537 OFFCURVE",
"99 545 CURVE SMOOTH",
"140 583 OFFCURVE",
"187 592 OFFCURVE",
"236 592 CURVE SMOOTH",
"283 592 OFFCURVE",
"341 583 OFFCURVE",
"341 555 CURVE SMOOTH",
"341 503 OFFCURVE",
"186 456 OFFCURVE",
"105 401 CURVE SMOOTH",
"88 389 OFFCURVE",
"70 375 OFFCURVE",
"70 356 CURVE SMOOTH",
"70 321 OFFCURVE",
"96 314 OFFCURVE",
"117 314 CURVE SMOOTH",
"149 314 OFFCURVE",
"183 322 OFFCURVE",
"216 322 CURVE SMOOTH",
"313 322 OFFCURVE",
"497 308 OFFCURVE",
"497 234 CURVE SMOOTH",
"497 138 OFFCURVE",
"295 59 OFFCURVE",
"172 59 CURVE SMOOTH",
"138 59 OFFCURVE",
"131 71 OFFCURVE",
"108 120 CURVE",
"102 130 OFFCURVE",
"89 143 OFFCURVE",
"79 143 CURVE SMOOTH",
"51 143 OFFCURVE",
"37 104 OFFCURVE",
"37 82 CURVE SMOOTH",
"37 15 OFFCURVE",
"124 -13 OFFCURVE",
"184 -13 CURVE SMOOTH",
"338 -13 OFFCURVE",
"575 86 OFFCURVE",
"575 239 CURVE SMOOTH",
"575 362 OFFCURVE",
"394 386 OFFCURVE",
"255 405 CURVE",
"255 405 LINE"
);
}
);
width = 604;
}
);
unicode = 0033;
},
{
glyphname = four;
lastChange = "2019-03-20 22:35:49 +0000";
layers = (
{
hints = (
{
place = "{38, 89}";
type = Stem;
},
{
horizontal = 1;
place = "{44, 606}";
type = Stem;
}
);
layerId = UUID0;
paths = (
{
closed = 1;
nodes = (
"129 434 OFFCURVE",
"130 470 OFFCURVE",
"133 507 CURVE SMOOTH",
"135 539 OFFCURVE",
"144 570 OFFCURVE",
"144 602 CURVE SMOOTH",
"144 622 OFFCURVE",
"124 633 OFFCURVE",
"114 633 CURVE SMOOTH",
"101 633 OFFCURVE",
"87 629 OFFCURVE",
"81 622 CURVE SMOOTH",
"58 595 OFFCURVE",
"38 452 OFFCURVE",
"38 380 CURVE SMOOTH",
"38 328 OFFCURVE",
"60 305 OFFCURVE",
"110 305 CURVE SMOOTH",
"121 305 OFFCURVE",
"134 306 OFFCURVE",
"148 308 CURVE SMOOTH",
"368 345 LINE",
"379 275 OFFCURVE",
"391 209 OFFCURVE",
"402 144 CURVE",
"402 112 OFFCURVE",
"418 44 OFFCURVE",
"463 44 CURVE SMOOTH",
"480 44 OFFCURVE",
"497 77 OFFCURVE",
"497 93 CURVE",
"496 105 OFFCURVE",
"492 119 OFFCURVE",
"490 132 CURVE SMOOTH",
"464 288 OFFCURVE",
"455 436 OFFCURVE",
"442 587 CURVE SMOOTH",
"440 616 OFFCURVE",
"437 650 OFFCURVE",
"399 650 CURVE SMOOTH",
"351 650 OFFCURVE",
"351 605 OFFCURVE",
"351 566 CURVE SMOOTH",
"351 538 OFFCURVE",
"353 509 OFFCURVE",
"353 481 CURVE SMOOTH",
"353 447 OFFCURVE",
"339 426 OFFCURVE",
"303 421 CURVE SMOOTH",
"247 413 OFFCURVE",
"192 402 OFFCURVE",
"127 392 CURVE",
"127 392 LINE"
);
}
);
width = 533;
}
);
unicode = 0034;
},
{
glyphname = five;
lastChange = "2019-03-20 22:35:49 +0000";
layers = (
{
hints = (
{
place = "{399, 90}";
type = Stem;
},
{
horizontal = 1;
place = "{-4, 88}";
type = Stem;
},
{
horizontal = 1;
place = "{268, 83}";
type = Stem;
}
);
layerId = UUID0;
paths = (
{
closed = 1;
nodes = (
"224 556 OFFCURVE",
"354 566 OFFCURVE",
"354 609 CURVE SMOOTH",
"354 631 OFFCURVE",
"328 647 OFFCURVE",
"300 647 CURVE SMOOTH",
"244 647 OFFCURVE",
"188 639 OFFCURVE",
"132 636 CURVE SMOOTH",
"93 634 OFFCURVE",
"73 611 OFFCURVE",
"69 576 CURVE SMOOTH",
"58 480 OFFCURVE",
"48 384 OFFCURVE",
"40 288 CURVE SMOOTH",
"40 285 OFFCURVE",
"39 281 OFFCURVE",
"39 278 CURVE SMOOTH",
"39 244 OFFCURVE",
"57 225 OFFCURVE",
"88 225 CURVE SMOOTH",
"117 225 OFFCURVE",
"142 241 OFFCURVE",
"170 248 CURVE SMOOTH",
"223 261 OFFCURVE",
"276 266 OFFCURVE",
"328 268 CURVE",
"363 267 OFFCURVE",
"399 249 OFFCURVE",
"399 209 CURVE SMOOTH",
"399 132 OFFCURVE",
"317 84 OFFCURVE",
"275 84 CURVE SMOOTH",
"244 84 OFFCURVE",
"212 99 OFFCURVE",
"179 129 CURVE SMOOTH",
"166 140 OFFCURVE",
"152 151 OFFCURVE",
"139 151 CURVE SMOOTH",
"127 151 OFFCURVE",
"109 141 OFFCURVE",
"109 111 CURVE SMOOTH",
"109 100 OFFCURVE",
"111 89 OFFCURVE",
"116 82 CURVE",
"145 28 OFFCURVE",
"191 -4 OFFCURVE",
"253 -4 CURVE SMOOTH",
"365 -4 OFFCURVE",
"489 93 OFFCURVE",
"489 195 CURVE SMOOTH",
"489 311 OFFCURVE",
"403 351 OFFCURVE",
"310 351 CURVE SMOOTH",
"252 351 OFFCURVE",
"202 347 OFFCURVE",
"136 335 CURVE",
"142 409 OFFCURVE",
"149 474 OFFCURVE",
"155 542 CURVE",
"155 542 LINE"
);
}
);
width = 523;
}
);
unicode = 0035;
},
{
glyphname = six;
lastChange = "2019-03-20 22:35:49 +0000";
layers = (
{
hints = (
{
place = "{28, 87}";
type = Stem;
},
{
place = "{407, 86}";
type = Stem;
},
{
horizontal = 1;
place = "{37, 87}";
type = Stem;
},
{
horizontal = 1;
place = "{273, 86}";
type = Stem;
},
{
horizontal = 1;
place = "{575, 78}";
type = Stem;
}
);
layerId = UUID0;
paths = (
{
closed = 1;
nodes = (
"124 288 OFFCURVE",
"115 325 OFFCURVE",
"115 360 CURVE SMOOTH",
"115 447 OFFCURVE",
"161 575 OFFCURVE",
"261 575 CURVE SMOOTH",
"275 575 OFFCURVE",
"289 570 OFFCURVE",
"304 570 CURVE SMOOTH",
"320 570 OFFCURVE",
"331 590 OFFCURVE",
"331 598 CURVE SMOOTH",
"331 612 OFFCURVE",
"326 630 OFFCURVE",
"318 634 CURVE",
"293 643 OFFCURVE",
"265 653 OFFCURVE",
"239 653 CURVE SMOOTH",
"100 653 OFFCURVE",
"28 477 OFFCURVE",
"28 367 CURVE SMOOTH",
"28 281 OFFCURVE",
"37 216 OFFCURVE",
"86 140 CURVE SMOOTH",
"127 76 OFFCURVE",
"188 37 OFFCURVE",
"302 37 CURVE SMOOTH",
"412 37 OFFCURVE",
"493 119 OFFCURVE",
"493 210 CURVE SMOOTH",
"493 301 OFFCURVE",
"418 359 OFFCURVE",
"344 359 CURVE SMOOTH",
"269 359 OFFCURVE",
"219 307 OFFCURVE",
"130 245 CURVE",
"130 245 LINE"
);
},
{
closed = 1;
nodes = (
"226 224 OFFCURVE",
"296 273 OFFCURVE",
"343 273 CURVE SMOOTH",
"375 273 OFFCURVE",
"407 247 OFFCURVE",
"407 209 CURVE SMOOTH",
"407 167 OFFCURVE",
"363 124 OFFCURVE",
"309 124 CURVE SMOOTH",
"275 124 OFFCURVE",
"238 139 OFFCURVE",
"201 170 CURVE",
"201 170 LINE"
);
}
);
width = 533;
}
);
unicode = 0036;
},
{
glyphname = seven;
lastChange = "2019-03-20 22:35:49 +0000";
layers = (
{
hints = (
{
place = "{329, 77}";
type = Stem;
},
{
place = "{379, 76}";
type = Stem;
},
{
horizontal = 1;
place = "{14, 653}";
type = Stem;
}
);
layerId = UUID0;
paths = (
{
closed = 1;
nodes = (
"365 442 OFFCURVE",
"344 298 OFFCURVE",
"330 151 CURVE SMOOTH",
"329 144 OFFCURVE",
"329 136 OFFCURVE",
"329 129 CURVE SMOOTH",
"329 86 OFFCURVE",
"331 14 OFFCURVE",
"375 14 CURVE SMOOTH",
"403 14 OFFCURVE",
"410 33 OFFCURVE",
"410 53 CURVE SMOOTH",
"410 84 OFFCURVE",
"406 114 OFFCURVE",
"406 145 CURVE SMOOTH",
"406 268 OFFCURVE",
"428 389 OFFCURVE",
"446 511 CURVE SMOOTH",
"450 537 OFFCURVE",
"455 564 OFFCURVE",
"455 591 CURVE SMOOTH",
"455 645 OFFCURVE",
"434 667 OFFCURVE",
"383 667 CURVE SMOOTH",
"377 667 OFFCURVE",
"371 666 OFFCURVE",
"364 666 CURVE",
"263 651 OFFCURVE",
"162 630 OFFCURVE",
"61 615 CURVE SMOOTH",
"40 612 OFFCURVE",
"19 609 OFFCURVE",
"19 581 CURVE SMOOTH",
"19 557 OFFCURVE",
"38 548 OFFCURVE",
"58 548 CURVE SMOOTH",
"163 548 OFFCURVE",
"259 569 OFFCURVE",
"379 590 CURVE",
"379 590 LINE"
);
}
);
width = 483;
}
);
unicode = 0037;
},
{
glyphname = eight;
lastChange = "2019-03-20 22:35:49 +0000";
layers = (
{
hints = (
{
place = "{10, 76}";
type = Stem;
},
{
place = "{180, 77}";
type = Stem;
},
{
place = "{326, 75}";
type = Stem;
},
{
place = "{499, 79}";
type = Stem;
},
{
horizontal = 1;
place = "{-32, 75}";
type = Stem;
},
{
horizontal = 1;
place = "{563, 100}";
type = Stem;
}
);
layerId = UUID0;
paths = (
{
closed = 1;
nodes = (
"393 381 OFFCURVE",
"401 415 OFFCURVE",
"401 444 CURVE SMOOTH",
"401 532 OFFCURVE",
"339 663 OFFCURVE",
"242 663 CURVE SMOOTH",
"229 663 OFFCURVE",
"217 660 OFFCURVE",
"207 654 CURVE SMOOTH",
"102 589 OFFCURVE",
"10 519 OFFCURVE",
"10 427 CURVE SMOOTH",
"10 369 OFFCURVE",
"45 313 OFFCURVE",
"113 275 CURVE SMOOTH",
"147 256 OFFCURVE",
"186 246 OFFCURVE",
"226 231 CURVE",
"204 186 OFFCURVE",
"180 145 OFFCURVE",
"180 101 CURVE SMOOTH",
"180 29 OFFCURVE",
"241 -32 OFFCURVE",
"339 -32 CURVE SMOOTH",
"463 -32 OFFCURVE",
"578 59 OFFCURVE",
"578 179 CURVE SMOOTH",
"578 271 OFFCURVE",
"476 308 OFFCURVE",
"389 364 CURVE",
"389 364 LINE"
);
},
{
closed = 1;
nodes = (
"326 376 OFFCURVE",
"281 317 OFFCURVE",
"225 317 CURVE SMOOTH",
"162 317 OFFCURVE",
"86 375 OFFCURVE",
"86 430 CURVE SMOOTH",
"86 490 OFFCURVE",
"182 563 OFFCURVE",
"248 563 CURVE SMOOTH",
"303 563 OFFCURVE",
"326 493 OFFCURVE",
"326 460 CURVE SMOOTH",
"326 460 LINE"
);
},
{
closed = 1;
nodes = (
"294 43 OFFCURVE",
"257 68 OFFCURVE",
"257 106 CURVE SMOOTH",
"257 169 OFFCURVE",
"333 242 OFFCURVE",
"409 242 CURVE SMOOTH",
"454 242 OFFCURVE",
"499 207 OFFCURVE",
"499 156 CURVE SMOOTH",
"499 93 OFFCURVE",
"399 43 OFFCURVE",
"362 43 CURVE SMOOTH",
"362 43 LINE"
);
}
);
width = 619;
}
);
unicode = 0038;
},
{
glyphname = nine;
lastChange = "2019-03-20 22:35:49 +0000";
layers = (
{
hints = (
{
place = "{21, 88}";
type = Stem;
},
{
place = "{284, 91}";
type = Stem;
},
{
horizontal = 1;
place = "{-10, 21}";
target = up;
type = BottomGhost;
},
{
horizontal = 1;
place = "{281, 88}";
type = Stem;
},
{
horizontal = 1;
place = "{576, 91}";
type = Stem;
}
);
layerId = UUID0;
paths = (
{
closed = 1;
nodes = (
"292 255 OFFCURVE",
"296 172 OFFCURVE",
"306 90 CURVE SMOOTH",
"311 49 OFFCURVE",
"325 -10 OFFCURVE",
"375 -10 CURVE SMOOTH",
"398 -10 OFFCURVE",
"413 -9 OFFCURVE",
"413 36 CURVE SMOOTH",
"413 80 OFFCURVE",
"387 126 OFFCURVE",
"383 170 CURVE SMOOTH",
"378 227 OFFCURVE",
"375 285 OFFCURVE",
"375 342 CURVE SMOOTH",
"375 367 OFFCURVE",
"377 393 OFFCURVE",
"377 418 CURVE SMOOTH",
"377 452 OFFCURVE",
"366 487 OFFCURVE",
"366 522 CURVE SMOOTH",
"366 551 OFFCURVE",
"390 592 OFFCURVE",
"390 595 CURVE SMOOTH",
"390 636 OFFCURVE",
"320 667 OFFCURVE",
"275 667 CURVE SMOOTH",
"254 667 OFFCURVE",
"232 663 OFFCURVE",
"211 655 CURVE SMOOTH",
"111 617 OFFCURVE",
"48 545 OFFCURVE",
"25 440 CURVE SMOOTH",
"22 428 OFFCURVE",
"21 416 OFFCURVE",
"21 405 CURVE SMOOTH",
"21 343 OFFCURVE",
"78 281 OFFCURVE",
"147 281 CURVE SMOOTH",
"195 281 OFFCURVE",
"228 309 OFFCURVE",
"284 348 CURVE",
"284 348 LINE"
);
},
{
closed = 1;
nodes = (
"294 531 OFFCURVE",
"274 494 OFFCURVE",
"250 461 CURVE SMOOTH",
"223 424 OFFCURVE",
"184 369 OFFCURVE",
"148 369 CURVE SMOOTH",
"126 369 OFFCURVE",
"109 388 OFFCURVE",
"109 417 CURVE SMOOTH",
"109 502 OFFCURVE",
"199 576 OFFCURVE",
"286 576 CURVE SMOOTH",
"297 576 OFFCURVE",
"308 574 OFFCURVE",
"319 572 CURVE",
"319 572 LINE"
);
}
);
width = 467;
}
);
unicode = 0039;
},
{
glyphname = period;
lastChange = "2019-03-20 22:35:49 +0000";
layers = (
{
hints = (
{
place = "{8, 99}";
type = Stem;
},
{
horizontal = 1;
place = "{-16, 102}";
type = Stem;
},
{
horizontal = 1;
place = "{-16, 21}";
target = up;
type = BottomGhost;
}
);
layerId = UUID0;
paths = (
{
closed = 1;
nodes = (
"107 71 OFFCURVE",
"67 86 OFFCURVE",
"53 86 CURVE SMOOTH",
"27 86 OFFCURVE",
"8 53 OFFCURVE",
"8 29 CURVE SMOOTH",
"8 7 OFFCURVE",
"29 -16 OFFCURVE",
"51 -16 CURVE SMOOTH",
"62 -16 OFFCURVE",
"107 -4 OFFCURVE",
"107 34 CURVE SMOOTH",
"107 34 LINE"
);
}
);
width = 134;
}
);
unicode = 002E;
},
{
glyphname = comma;
lastChange = "2019-03-20 22:35:49 +0000";
layers = (
{
hints = (
{
place = "{98, 83}";
type = Stem;
},
{
horizontal = 1;
place = "{-178, 313}";
type = Stem;
}
);
layerId = UUID0;
paths = (
{
closed = 1;
nodes = (
"181 64 OFFCURVE",
"151 135 OFFCURVE",
"117 135 CURVE SMOOTH",
"96 135 OFFCURVE",
"81 121 OFFCURVE",
"81 98 CURVE SMOOTH",
"81 95 OFFCURVE",
"82 93 OFFCURVE",
"83 91 CURVE SMOOTH",
"94 69 OFFCURVE",
"98 48 OFFCURVE",
"98 28 CURVE SMOOTH",
"98 -31 OFFCURVE",
"79 -30 OFFCURVE",
"54 -83 CURVE SMOOTH",
"44 -104 OFFCURVE",
"21 -119 OFFCURVE",
"21 -142 CURVE SMOOTH",
"21 -167 OFFCURVE",
"43 -178 OFFCURVE",
"62 -178 CURVE SMOOTH",
"65 -178 OFFCURVE",
"68 -178 OFFCURVE",
"70 -177 CURVE SMOOTH",
"145 -146 OFFCURVE",
"181 -64 OFFCURVE",
"181 48 CURVE SMOOTH",
"181 48 LINE"
);
}
);
width = 203;
}
);
unicode = 002C;
},
{
glyphname = colon;
lastChange = "2019-03-20 22:35:49 +0000";
layers = (
{
hints = (
{
place = "{82, 91}";
type = Stem;
},
{
place = "{85, 77}";
type = Stem;
},
{
horizontal = 1;
place = "{-23, 21}";
target = up;
type = BottomGhost;
}
);
layerId = UUID0;
paths = (
{
closed = 1;
nodes = (
"162 382 OFFCURVE",
"137 395 OFFCURVE",
"126 396 CURVE",
"113 396 OFFCURVE",
"85 381 OFFCURVE",
"85 354 CURVE SMOOTH",
"85 332 OFFCURVE",
"109 314 OFFCURVE",
"120 314 CURVE SMOOTH",
"127 314 OFFCURVE",
"162 322 OFFCURVE",
"162 353 CURVE SMOOTH",
"162 353 LINE"
);
},
{
closed = 1;
nodes = (
"173 58 OFFCURVE",
"144 73 OFFCURVE",
"131 74 CURVE",
"115 74 OFFCURVE",
"82 57 OFFCURVE",
"82 25 CURVE SMOOTH",
"82 -1 OFFCURVE",
"110 -23 OFFCURVE",
"123 -23 CURVE SMOOTH",
"132 -23 OFFCURVE",
"173 -13 OFFCURVE",
"173 23 CURVE SMOOTH",
"173 23 LINE"
);
}
);
width = 256;
}
);
unicode = 003A;
},
{
glyphname = semicolon;
lastChange = "2019-03-20 22:35:49 +0000";
layers = (
{
hints = (
{
place = "{85, 77}";
type = Stem;
},
{
place = "{129, 83}";
type = Stem;
},
{
horizontal = 1;
place = "{-227, 623}";
type = Stem;
}
);
layerId = UUID0;
paths = (
{
closed = 1;
nodes = (
"212 64 OFFCURVE",
"182 135 OFFCURVE",
"148 135 CURVE SMOOTH",
"127 135 OFFCURVE",
"112 121 OFFCURVE",
"112 98 CURVE SMOOTH",
"112 95 OFFCURVE",
"113 93 OFFCURVE",
"114 91 CURVE SMOOTH",
"125 69 OFFCURVE",
"129 48 OFFCURVE",
"129 28 CURVE SMOOTH",
"129 -31 OFFCURVE",
"89 -79 OFFCURVE",
"64 -132 CURVE SMOOTH",
"54 -153 OFFCURVE",
"31 -168 OFFCURVE",
"31 -191 CURVE SMOOTH",
"31 -216 OFFCURVE",
"53 -227 OFFCURVE",
"72 -227 CURVE SMOOTH",
"75 -227 OFFCURVE",
"78 -227 OFFCURVE",
"80 -226 CURVE SMOOTH",
"155 -195 OFFCURVE",
"212 -64 OFFCURVE",
"212 48 CURVE SMOOTH",
"212 48 LINE"
);
},
{
closed = 1;
nodes = (
"162 382 OFFCURVE",
"137 395 OFFCURVE",
"126 396 CURVE",
"113 396 OFFCURVE",
"85 381 OFFCURVE",
"85 354 CURVE SMOOTH",
"85 332 OFFCURVE",
"109 314 OFFCURVE",
"120 314 CURVE SMOOTH",
"127 314 OFFCURVE",
"162 322 OFFCURVE",
"162 353 CURVE SMOOTH",
"162 353 LINE"
);
}
);
width = 283;
}
);
unicode = 003B;
},
{
glyphname = exclam;
lastChange = "2019-03-20 22:35:49 +0000";
layers = (
{
hints = (
{
place = "{35, 76}";
type = Stem;
},
{
place = "{66, 71}";
type = Stem;
},
{
horizontal = 1;
place = "{-19, 88}";
type = Stem;
},
{
horizontal = 1;
place = "{-19, 21}";
target = up;
type = BottomGhost;
}
);
layerId = UUID0;
paths = (
{
closed = 1;
nodes = (
"37 611 OFFCURVE",
"35 551 OFFCURVE",
"35 508 CURVE SMOOTH",
"35 413 OFFCURVE",
"52 350 OFFCURVE",
"66 265 CURVE SMOOTH",
"71 235 OFFCURVE",
"87 191 OFFCURVE",
"121 191 CURVE SMOOTH",
"135 191 OFFCURVE",
"153 219 OFFCURVE",
"153 234 CURVE SMOOTH",
"153 240 OFFCURVE",
"148 250 OFFCURVE",
"146 258 CURVE SMOOTH",
"120 355 OFFCURVE",
"111 453 OFFCURVE",
"111 555 CURVE SMOOTH",
"111 578 OFFCURVE",
"113 602 OFFCURVE",
"113 630 CURVE SMOOTH",
"113 649 OFFCURVE",
"99 688 OFFCURVE",
"76 688 CURVE SMOOTH",
"59 688 OFFCURVE",
"42 664 OFFCURVE",
"41 651 CURVE SMOOTH",
"41 651 LINE"
);
},
{
closed = 1;
nodes = (
"75 69 OFFCURVE",
"66 34 OFFCURVE",
"66 19 CURVE SMOOTH",
"66 -1 OFFCURVE",
"94 -19 OFFCURVE",
"110 -19 CURVE SMOOTH",
"126 -19 OFFCURVE",
"137 -5 OFFCURVE",
"137 9 CURVE SMOOTH",
"137 21 OFFCURVE",
"135 68 OFFCURVE",
"103 69 CURVE SMOOTH",
"103 69 LINE"
);
}
);
width = 185;
}
);
unicode = 0021;
},
{
glyphname = question;
lastChange = "2019-03-20 22:35:49 +0000";
layers = (
{
hints = (
{
place = "{194, 114}";
type = Stem;
},
{
place = "{242, 68}";
type = Stem;
},
{
place = "{286, 67}";
type = Stem;
},
{
horizontal = 1;
place = "{-9, 77}";
type = Stem;
},
{
horizontal = 1;
place = "{-9, 21}";
target = up;
type = BottomGhost;
},
{
horizontal = 1;
place = "{618, 77}";
type = Stem;
}
);
layerId = UUID0;
paths = (
{
closed = 1;
nodes = (
"273 288 OFFCURVE",
"288 324 OFFCURVE",
"299 362 CURVE SMOOTH",
"319 430 OFFCURVE",
"353 501 OFFCURVE",
"353 573 CURVE SMOOTH",
"353 654 OFFCURVE",
"321 695 OFFCURVE",
"257 695 CURVE SMOOTH",
"165 695 OFFCURVE",
"16 566 OFFCURVE",
"16 481 CURVE SMOOTH",
"16 459 OFFCURVE",
"31 444 OFFCURVE",
"54 444 CURVE SMOOTH",
"76 444 OFFCURVE",
"97 460 OFFCURVE",
"102 487 CURVE SMOOTH",
"116 560 OFFCURVE",
"188 618 OFFCURVE",
"265 618 CURVE SMOOTH",
"282 618 OFFCURVE",
"286 587 OFFCURVE",
"286 575 CURVE SMOOTH",
"286 563 OFFCURVE",
"283 550 OFFCURVE",
"279 538 CURVE SMOOTH",
"258 471 OFFCURVE",
"235 407 OFFCURVE",
"216 342 CURVE SMOOTH",
"207 311 OFFCURVE",
"194 275 OFFCURVE",
"194 243 CURVE SMOOTH",
"194 201 OFFCURVE",
"234 163 OFFCURVE",
"275 163 CURVE SMOOTH",
"294 163 OFFCURVE",
"308 171 OFFCURVE",
"308 189 CURVE SMOOTH",
"308 219 OFFCURVE",
"283 229 OFFCURVE",
"261 250 CURVE",
"261 250 LINE"
);
},
{
closed = 1;
nodes = (
"293 -9 OFFCURVE",
"310 28 OFFCURVE",
"310 41 CURVE SMOOTH",
"310 52 OFFCURVE",
"289 68 OFFCURVE",
"276 68 CURVE SMOOTH",
"257 68 OFFCURVE",
"243 53 OFFCURVE",
"242 35 CURVE SMOOTH",
"242 25 OFFCURVE",
"244 -7 OFFCURVE",
"269 -9 CURVE",
"269 -9 LINE"
);
}
);
width = 397;
}
);
unicode = 003F;
},
{
glyphname = bullet;
lastChange = "2019-03-20 22:35:49 +0000";
layers = (
{
layerId = UUID0;
paths = (
{
closed = 1;
nodes = (
"201 393 OFFCURVE",
"132 419 OFFCURVE",
"107 419 CURVE SMOOTH",
"62 419 OFFCURVE",
"29 362 OFFCURVE",
"29 320 CURVE SMOOTH",
"29 282 OFFCURVE",
"65 242 OFFCURVE",
"104 242 CURVE SMOOTH",
"123 242 OFFCURVE",
"201 262 OFFCURVE",
"201 329 CURVE SMOOTH",
"201 329 LINE"
);
}
);
width = 231;
}
);
unicode = 2022;
},
{
glyphname = asterisk;
lastChange = "2019-03-20 22:35:49 +0000";
layers = (
{
hints = (
{
place = "{27, 516}";
type = Stem;
},
{
horizontal = 1;
place = "{291, 202}";
type = Stem;
},
{
horizontal = 1;
place = "{449, -20}";
target = down;
type = TopGhost;
},
{
horizontal = 1;
place = "{487, -20}";
target = down;
type = TopGhost;
}
);
layerId = UUID0;
paths = (
{
closed = 1;
nodes = (
"228 538 OFFCURVE",
"180 583 OFFCURVE",
"146 583 CURVE SMOOTH",
"133 583 OFFCURVE",
"107 568 OFFCURVE",
"107 541 CURVE SMOOTH",
"107 522 OFFCURVE",
"125 511 OFFCURVE",
"144 499 CURVE SMOOTH",
"162 487 OFFCURVE",
"177 470 OFFCURVE",
"201 449 CURVE",
"123 426 OFFCURVE",
"27 414 OFFCURVE",
"27 366 CURVE SMOOTH",
"27 331 OFFCURVE",
"52 323 OFFCURVE",
"74 323 CURVE SMOOTH",
"115 323 OFFCURVE",
"152 357 OFFCURVE",
"194 357 CURVE SMOOTH",
"203 357 OFFCURVE",
"212 356 OFFCURVE",
"222 351 CURVE",
"206 310 OFFCURVE",
"183 266 OFFCURVE",
"183 235 CURVE SMOOTH",
"183 220 OFFCURVE",
"193 196 OFFCURVE",
"226 196 CURVE SMOOTH",
"267 196 OFFCURVE",
"293 301 OFFCURVE",
"323 358 CURVE",
"362 338 LINE SMOOTH",
"391 324 OFFCURVE",
"438 291 OFFCURVE",
"470 291 CURVE SMOOTH",
"490 291 OFFCURVE",
"511 305 OFFCURVE",
"511 320 CURVE SMOOTH",
"511 360 OFFCURVE",
"483 370 OFFCURVE",
"436 400 CURVE",
"490 411 OFFCURVE",
"543 413 OFFCURVE",
"543 454 CURVE SMOOTH",
"543 488 OFFCURVE",
"519 493 OFFCURVE",
"497 493 CURVE SMOOTH",
"458 493 OFFCURVE",
"419 489 OFFCURVE",
"376 487 CURVE",
"388 546 OFFCURVE",
"399 593 OFFCURVE",
"408 640 CURVE SMOOTH",
"409 646 OFFCURVE",
"410 653 OFFCURVE",
"410 659 CURVE SMOOTH",
"410 678 OFFCURVE",
"401 697 OFFCURVE",
"372 697 CURVE SMOOTH",
"347 697 OFFCURVE",
"338 676 OFFCURVE",
"332 653 CURVE SMOOTH",
"319 604 OFFCURVE",
"304 556 OFFCURVE",
"287 495 CURVE",
"287 495 LINE"
);
}
);
width = 582;
}
);
unicode = 002A;
},
{
glyphname = numbersign;
lastChange = "2019-03-20 22:35:49 +0000";
layers = (
{
hints = (
{
place = "{25, 545}";
type = Stem;
},
{
place = "{322, 248}";
type = Stem;
},
{
horizontal = 1;
place = "{432, -20}";
target = down;
type = TopGhost;
}
);
layerId = UUID0;
paths = (
{
closed = 1;
nodes = (
"128 261 OFFCURVE",
"51 253 OFFCURVE",
"51 216 CURVE SMOOTH",
"51 182 OFFCURVE",
"71 174 OFFCURVE",
"87 174 CURVE SMOOTH",
"119 174 OFFCURVE",
"152 183 OFFCURVE",
"186 190 CURVE",
"207 157 OFFCURVE",
"215 118 OFFCURVE",
"258 118 CURVE SMOOTH",
"279 118 OFFCURVE",
"294 133 OFFCURVE",
"294 160 CURVE SMOOTH",
"294 177 OFFCURVE",
"287 193 OFFCURVE",
"282 216 CURVE",
"371 240 LINE",
"379 212 OFFCURVE",
"382 186 OFFCURVE",
"395 167 CURVE SMOOTH",
"404 153 OFFCURVE",
"419 133 OFFCURVE",
"437 133 CURVE",
"469 138 OFFCURVE",
"472 167 OFFCURVE",
"472 195 CURVE SMOOTH",
"472 219 OFFCURVE",
"465 243 OFFCURVE",
"462 268 CURVE",
"507 289 OFFCURVE",
"570 311 OFFCURVE",
"570 343 CURVE SMOOTH",
"570 366 OFFCURVE",
"545 378 OFFCURVE",
"515 378 CURVE SMOOTH",
"492 378 OFFCURVE",
"473 368 OFFCURVE",
"442 359 CURVE",
"424 496 LINE",
"488 514 OFFCURVE",
"570 525 OFFCURVE",
"570 569 CURVE SMOOTH",
"570 602 OFFCURVE",
"551 611 OFFCURVE",
"534 611 CURVE SMOOTH",
"503 611 OFFCURVE",
"457 597 OFFCURVE",
"417 587 CURVE",
"406 632 OFFCURVE",
"400 687 OFFCURVE",
"358 687 CURVE SMOOTH",
"327 687 OFFCURVE",
"322 635 OFFCURVE",
"322 615 CURVE SMOOTH",
"322 596 OFFCURVE",
"324 577 OFFCURVE",
"324 554 CURVE",
"295 545 OFFCURVE",
"264 534 OFFCURVE",
"230 523 CURVE",
"214 575 OFFCURVE",
"206 615 OFFCURVE",
"175 615 CURVE SMOOTH",
"150 615 OFFCURVE",
"140 587 OFFCURVE",
"137 559 CURVE",
"137 538 OFFCURVE",
"143 518 OFFCURVE",
"148 494 CURVE",
"97 479 OFFCURVE",
"25 473 OFFCURVE",
"25 436 CURVE SMOOTH",
"25 402 OFFCURVE",
"48 394 OFFCURVE",
"69 394 CURVE SMOOTH",
"96 394 OFFCURVE",
"125 400 OFFCURVE",
"162 404 CURVE",
"168 362 OFFCURVE",
"174 324 OFFCURVE",
"182 277 CURVE",
"182 277 LINE"
);
},
{
closed = 1;
nodes = (
"258 348 OFFCURVE",
"252 386 OFFCURVE",
"244 432 CURVE",
"338 468 LINE",
"345 420 OFFCURVE",
"352 380 OFFCURVE",
"360 332 CURVE",
"267 299 LINE"
);
}
);
width = 606;
}
);
unicode = 0023;
},
{
glyphname = slash;
lastChange = "2019-03-20 22:35:49 +0000";
layers = (
{
layerId = UUID0;
paths = (
{
closed = 1;
nodes = (
"331 580 OFFCURVE",
"344 601 OFFCURVE",
"344 618 CURVE SMOOTH",
"344 644 OFFCURVE",
"332 665 OFFCURVE",
"301 665 CURVE SMOOTH",
"276 665 OFFCURVE",
"272 638 OFFCURVE",
"265 615 CURVE SMOOTH",
"208 441 OFFCURVE",
"103 115 OFFCURVE",
"40 -54 CURVE",
"26 -83 OFFCURVE",
"5 -119 OFFCURVE",
"5 -151 CURVE SMOOTH",
"5 -171 OFFCURVE",
"5 -185 OFFCURVE",
"29 -185 CURVE SMOOTH",
"93 -185 OFFCURVE",
"128 -42 OFFCURVE",
"152 18 CURVE SMOOTH",
"208 163 OFFCURVE",
"292 431 OFFCURVE",
"325 556 CURVE SMOOTH",
"325 556 LINE"
);
}
);
width = 364;
}
);
unicode = 002F;
},
{
glyphname = backslash;
lastChange = "2019-03-20 22:35:49 +0000";
layers = (
{
layerId = UUID0;
paths = (
{
closed = 1;
nodes = (
"53 453 OFFCURVE",
"141 163 OFFCURVE",
"197 18 CURVE SMOOTH",
"221 -42 OFFCURVE",
"256 -185 OFFCURVE",
"320 -185 CURVE SMOOTH",
"344 -185 OFFCURVE",
"344 -171 OFFCURVE",
"344 -151 CURVE SMOOTH",
"344 -119 OFFCURVE",
"323 -83 OFFCURVE",
"309 -54 CURVE",
"246 115 OFFCURVE",
"137 463 OFFCURVE",
"80 637 CURVE SMOOTH",
"73 660 OFFCURVE",
"69 687 OFFCURVE",
"44 687 CURVE SMOOTH",
"13 687 OFFCURVE",
"1 666 OFFCURVE",
"1 640 CURVE SMOOTH",
"1 623 OFFCURVE",
"14 602 OFFCURVE",
"20 578 CURVE SMOOTH",
"20 578 LINE"
);
}
);
width = 329;
}
);
unicode = 005C;
},
{
glyphname = parenleft;
lastChange = "2019-03-20 22:35:49 +0000";
layers = (
{
hints = (
{
place = "{26, 83}";
type = Stem;
},
{
horizontal = 1;
place = "{-131, 772}";
type = Stem;
}
);
layerId = UUID0;
paths = (
{
closed = 1;
nodes = (
"26 119 OFFCURVE",
"103 -131 OFFCURVE",
"317 -131 CURVE SMOOTH",
"352 -131 OFFCURVE",
"378 -117 OFFCURVE",
"378 -94 CURVE SMOOTH",
"378 -57 OFFCURVE",
"343 -52 OFFCURVE",
"314 -48 CURVE SMOOTH",
"221 -35 OFFCURVE",
"165 21 OFFCURVE",
"141 108 CURVE SMOOTH",
"123 174 OFFCURVE",
"109 240 OFFCURVE",
"109 304 CURVE SMOOTH",
"109 393 OFFCURVE",
"136 478 OFFCURVE",
"215 554 CURVE SMOOTH",
"227 565 OFFCURVE",
"235 580 OFFCURVE",
"235 595 CURVE SMOOTH",
"235 617 OFFCURVE",
"211 641 OFFCURVE",
"190 641 CURVE SMOOTH",
"177 641 OFFCURVE",
"162 632 OFFCURVE",
"150 621 CURVE SMOOTH",
"59 537 OFFCURVE",
"27 408 OFFCURVE",
"26 256 CURVE SMOOTH",
"26 256 LINE"
);
}
);
width = 418;
}
);
unicode = 0028;
},
{
glyphname = parenright;
lastChange = "2019-03-20 22:35:49 +0000";
layers = (
{
hints = (
{
place = "{267, 86}";
type = Stem;
},
{
horizontal = 1;
place = "{-213, 934}";
type = Stem;
}
);
layerId = UUID0;
paths = (
{
closed = 1;
nodes = (
"353 470 OFFCURVE",
"286 596 OFFCURVE",
"174 703 CURVE SMOOTH",
"163 713 OFFCURVE",
"151 721 OFFCURVE",
"139 721 CURVE SMOOTH",
"122 721 OFFCURVE",
"111 705 OFFCURVE",
"111 678 CURVE SMOOTH",
"111 642 OFFCURVE",
"129 634 OFFCURVE",
"150 612 CURVE SMOOTH",
"227 529 OFFCURVE",
"267 429 OFFCURVE",
"267 317 CURVE SMOOTH",
"267 166 OFFCURVE",
"212 38 OFFCURVE",
"124 -79 CURVE SMOOTH",
"99 -113 OFFCURVE",
"52 -154 OFFCURVE",
"52 -185 CURVE SMOOTH",
"52 -195 OFFCURVE",
"60 -213 OFFCURVE",
"79 -213 CURVE SMOOTH",
"101 -213 OFFCURVE",
"127 -202 OFFCURVE",
"143 -185 CURVE SMOOTH",
"271 -51 OFFCURVE",
"341 111 OFFCURVE",
"353 297 CURVE",
"353 297 LINE"
);
}
);
width = 430;
}
);
unicode = 0029;
},
{
glyphname = bracketleft;
lastChange = "2019-03-20 22:35:49 +0000";
layers = (
{
layerId = UUID0;
paths = (
{
closed = 1;
nodes = (
"130 -79 OFFCURVE",
"149 -80 OFFCURVE",
"167 -80 CURVE SMOOTH",
"226 -80 OFFCURVE",
"254 -70 OFFCURVE",
"303 -70 CURVE SMOOTH",
"322 -70 OFFCURVE",
"335 -85 OFFCURVE",
"335 -102 CURVE SMOOTH",
"335 -120 OFFCURVE",
"315 -132 OFFCURVE",
"302 -138 CURVE",
"268 -156 OFFCURVE",
"132 -160 OFFCURVE",
"91 -160 CURVE SMOOTH",
"35 -160 OFFCURVE",
"23 -137 OFFCURVE",
"23 -79 CURVE",
"23 94 LINE",
"23 243 OFFCURVE",
"22 384 OFFCURVE",
"10 554 CURVE",
"6 562 OFFCURVE",
"4 570 OFFCURVE",
"4 577 CURVE SMOOTH",
"4 597 OFFCURVE",
"19 613 OFFCURVE",
"46 613 CURVE",
"107 633 OFFCURVE",
"163 647 OFFCURVE",
"221 647 CURVE",
"236 647 OFFCURVE",
"249 647 OFFCURVE",
"249 647 CURVE",
"264 641 OFFCURVE",
"277 626 OFFCURVE",
"277 611 CURVE SMOOTH",
"277 598 OFFCURVE",
"264 582 OFFCURVE",
"249 582 CURVE",
"194 566 OFFCURVE",
"159 570 OFFCURVE",
"103 554 CURVE",
"103 382 OFFCURVE",
"110 109 OFFCURVE",
"110 -79 CURVE",
"110 -79 LINE"
);
}
);
width = 345;
}
);
unicode = 005B;
},
{
glyphname = bracketright;
lastChange = "2019-03-20 22:35:49 +0000";
layers = (
{
layerId = UUID0;
paths = (
{
closed = 1;
nodes = (
"226 133 OFFCURVE",
"209 237 OFFCURVE",
"209 368 CURVE SMOOTH",
"209 432 OFFCURVE",
"213 502 OFFCURVE",
"223 591 CURVE",
"136 573 OFFCURVE",
"142 565 OFFCURVE",
"46 565 CURVE",
"21 565 OFFCURVE",
"7 584 OFFCURVE",
"7 597 CURVE SMOOTH",
"7 604 OFFCURVE",
"12 611 OFFCURVE",
"26 615 CURVE SMOOTH",
"72 628 OFFCURVE",
"151 647 OFFCURVE",
"223 656 CURVE SMOOTH",
"233 657 OFFCURVE",
"242 658 OFFCURVE",
"249 658 CURVE SMOOTH",
"276 658 OFFCURVE",
"287 647 OFFCURVE",
"287 607 CURVE SMOOTH",
"287 510 OFFCURVE",
"283 446 OFFCURVE",
"283 382 CURVE SMOOTH",
"283 267 OFFCURVE",
"293 113 OFFCURVE",
"319 -31 CURVE",
"321 -39 OFFCURVE",
"321 -48 OFFCURVE",
"321 -55 CURVE SMOOTH",
"321 -85 OFFCURVE",
"309 -106 OFFCURVE",
"284 -115 CURVE",
"209 -129 OFFCURVE",
"188 -151 OFFCURVE",
"111 -151 CURVE SMOOTH",
"75 -151 OFFCURVE",
"39 -137 OFFCURVE",
"39 -99 CURVE SMOOTH",
"39 -76 OFFCURVE",
"70 -76 OFFCURVE",
"83 -76 CURVE",
"95 -76 LINE",
"144 -76 OFFCURVE",
"180 -65 OFFCURVE",
"239 -51 CURVE",
"239 -51 LINE"
);
}
);
width = 343;
}
);
unicode = 005D;
},
{
glyphname = hyphen;
lastChange = "2019-03-20 22:35:49 +0000";
layers = (
{
hints = (
{
place = "{62, 419}";
type = Stem;
},
{
horizontal = 1;
place = "{206, 93}";
type = Stem;
}
);
layerId = UUID0;
paths = (
{
closed = 1;
nodes = (
"272 299 OFFCURVE",
"165 290 OFFCURVE",
"108 286 CURVE SMOOTH",
"85 284 OFFCURVE",
"62 275 OFFCURVE",
"62 252 CURVE SMOOTH",
"62 228 OFFCURVE",
"99 205 OFFCURVE",
"122 205 CURVE SMOOTH",
"134 205 OFFCURVE",
"147 208 OFFCURVE",
"159 208 CURVE SMOOTH",
"261 208 OFFCURVE",
"272 206 OFFCURVE",
"374 206 CURVE SMOOTH",
"395 206 LINE SMOOTH",
"436 206 OFFCURVE",
"481 209 OFFCURVE",
"481 246 CURVE SMOOTH",
"481 298 OFFCURVE",
"381 299 OFFCURVE",
"326 299 CURVE SMOOTH",
"326 299 LINE"
);
}
);
width = 538;
}
);
unicode = 002D;
},
{
glyphname = endash;
lastChange = "2019-03-20 22:35:49 +0000";
layers = (
{
hints = (
{
place = "{62, 580}";
type = Stem;
},
{
horizontal = 1;
place = "{206, 93}";
type = Stem;
}
);
layerId = UUID0;
paths = (
{
closed = 1;
nodes = (
"433 299 OFFCURVE",
"165 290 OFFCURVE",
"108 286 CURVE SMOOTH",
"85 284 OFFCURVE",
"62 275 OFFCURVE",
"62 252 CURVE SMOOTH",
"62 228 OFFCURVE",
"99 205 OFFCURVE",
"122 205 CURVE SMOOTH",
"134 205 OFFCURVE",
"147 208 OFFCURVE",
"159 208 CURVE SMOOTH",
"261 208 OFFCURVE",
"433 206 OFFCURVE",
"535 206 CURVE SMOOTH",
"556 206 LINE SMOOTH",
"597 206 OFFCURVE",
"642 209 OFFCURVE",
"642 246 CURVE SMOOTH",
"642 298 OFFCURVE",
"542 299 OFFCURVE",
"487 299 CURVE SMOOTH",
"487 299 LINE"
);
}
);
width = 833;
}
);
unicode = 2013;
},
{
glyphname = emdash;
lastChange = "2019-03-20 22:35:49 +0000";
layers = (
{
hints = (
{
place = "{62, 679}";
type = Stem;
},
{
horizontal = 1;
place = "{206, 93}";
type = Stem;
}
);
layerId = UUID0;
paths = (
{
closed = 1;
nodes = (
"532 299 OFFCURVE",
"165 290 OFFCURVE",
"108 286 CURVE SMOOTH",
"85 284 OFFCURVE",
"62 275 OFFCURVE",
"62 252 CURVE SMOOTH",
"62 228 OFFCURVE",
"99 205 OFFCURVE",
"122 205 CURVE SMOOTH",
"134 205 OFFCURVE",
"147 208 OFFCURVE",
"159 208 CURVE SMOOTH",
"261 208 OFFCURVE",
"532 206 OFFCURVE",
"634 206 CURVE SMOOTH",
"655 206 LINE SMOOTH",
"696 206 OFFCURVE",
"741 209 OFFCURVE",
"741 246 CURVE SMOOTH",
"741 298 OFFCURVE",
"641 299 OFFCURVE",
"586 299 CURVE SMOOTH",
"586 299 LINE"
);
}
);
width = 833;
}
);
unicode = 2014;
},
{
glyphname = underscore;
lastChange = "2019-03-20 22:35:49 +0000";
layers = (
{
layerId = UUID0;
paths = (
{
closed = 1;
nodes = (
"392 2 OFFCURVE",
"371 2 OFFCURVE",
"346 2 CURVE SMOOTH",
"305 2 OFFCURVE",
"251 3 OFFCURVE",
"203 3 CURVE",
"189 3 LINE",
"92 3 OFFCURVE",
"44 2 OFFCURVE",
"44 -38 CURVE",
"46 -61 OFFCURVE",
"80 -81 OFFCURVE",
"104 -81 CURVE SMOOTH",
"117 -81 OFFCURVE",
"131 -77 OFFCURVE",
"144 -76 CURVE SMOOTH",
"169 -74 OFFCURVE",
"195 -74 OFFCURVE",
"220 -74 CURVE SMOOTH",
"272 -74 OFFCURVE",
"324 -76 OFFCURVE",
"376 -76 CURVE SMOOTH",
"402 -76 OFFCURVE",
"427 -76 OFFCURVE",
"453 -74 CURVE SMOOTH",
"474 -73 LINE SMOOTH",
"514 -71 OFFCURVE",
"557 -65 OFFCURVE",
"557 -32 CURVE SMOOTH",
"557 2 OFFCURVE",
"525 8 OFFCURVE",
"486 8 CURVE SMOOTH",
"460 8 OFFCURVE",
"428 4 OFFCURVE",
"405 3 CURVE SMOOTH",
"405 3 LINE"
);
}
);
width = 613;
}
);
unicode = 005F;
},
{
glyphname = quotedblleft;
lastChange = "2019-03-20 22:35:49 +0000";
layers = (
{
hints = (
{
place = "{19, 75}";
type = Stem;
},
{
place = "{168, 78}";
type = Stem;
},
{
horizontal = 1;
place = "{424, 281}";
type = Stem;
}
);
layerId = UUID0;
paths = (
{
closed = 1;
nodes = (
"96 630 OFFCURVE",
"98 647 OFFCURVE",
"98 663 CURVE SMOOTH",
"98 685 OFFCURVE",
"94 705 OFFCURVE",
"70 705 CURVE SMOOTH",
"23 705 OFFCURVE",
"19 643 OFFCURVE",
"19 593 CURVE SMOOTH",
"19 564 LINE SMOOTH",
"19 485 OFFCURVE",
"39 424 OFFCURVE",
"105 424 CURVE SMOOTH",
"125 424 OFFCURVE",
"153 438 OFFCURVE",
"153 459 CURVE SMOOTH",
"153 471 OFFCURVE",
"148 487 OFFCURVE",
"142 489 CURVE SMOOTH",
"100 508 OFFCURVE",
"94 540 OFFCURVE",
"94 574 CURVE SMOOTH",
"94 587 OFFCURVE",
"95 601 OFFCURVE",
"95 614 CURVE SMOOTH",
"95 614 LINE"
);
},
{
closed = 1;
nodes = (
"170 680 OFFCURVE",
"168 621 OFFCURVE",
"168 589 CURVE SMOOTH",
"169 532 OFFCURVE",
"208 428 OFFCURVE",
"254 428 CURVE SMOOTH",
"270 428 OFFCURVE",
"286 441 OFFCURVE",
"286 472 CURVE SMOOTH",
"286 480 OFFCURVE",
"285 488 OFFCURVE",
"282 494 CURVE SMOOTH",
"262 534 OFFCURVE",
"246 574 OFFCURVE",
"246 619 CURVE SMOOTH",
"246 626 OFFCURVE",
"247 634 OFFCURVE",
"247 641 CURVE SMOOTH",
"247 657 OFFCURVE",
"236 685 OFFCURVE",
"209 685 CURVE",
"209 685 LINE"
);
}
);
width = 320;
}
);
unicode = 201C;
},
{
glyphname = quotedblright;
lastChange = "2019-03-20 22:35:49 +0000";
layers = (
{
hints = (
{
place = "{9, 103}";
type = Stem;
},
{
place = "{192, 86}";
type = Stem;
},
{
horizontal = 1;
place = "{408, 266}";
type = Stem;
},
{
horizontal = 1;
place = "{477, 197}";
type = Stem;
}
);
layerId = UUID0;
paths = (
{
closed = 1;
nodes = (
"246 640 OFFCURVE",
"226 672 OFFCURVE",
"207 672 CURVE SMOOTH",
"184 672 OFFCURVE",
"170 651 OFFCURVE",
"170 639 CURVE SMOOTH",
"170 614 OFFCURVE",
"192 589 OFFCURVE",
"192 560 CURVE SMOOTH",
"192 492 OFFCURVE",
"99 487 OFFCURVE",
"99 440 CURVE SMOOTH",
"99 426 OFFCURVE",
"127 408 OFFCURVE",
"140 408 CURVE SMOOTH",
"188 408 OFFCURVE",
"241 443 OFFCURVE",
"261 484 CURVE SMOOTH",
"272 507 OFFCURVE",
"278 530 OFFCURVE",
"278 552 CURVE SMOOTH",
"278 576 OFFCURVE",
"271 600 OFFCURVE",
"256 624 CURVE SMOOTH",
"256 624 LINE"
);
},
{
closed = 1;
nodes = (
"111 633 OFFCURVE",
"102 674 OFFCURVE",
"66 674 CURVE SMOOTH",
"25 674 OFFCURVE",
"33 639 OFFCURVE",
"30 613 CURVE SMOOTH",
"26 578 OFFCURVE",
"9 546 OFFCURVE",
"9 510 CURVE SMOOTH",
"9 486 OFFCURVE",
"16 477 OFFCURVE",
"39 477 CURVE SMOOTH",
"90 477 OFFCURVE",
"112 531 OFFCURVE",
"112 579 CURVE SMOOTH",
"112 586 OFFCURVE",
"112 594 OFFCURVE",
"111 602 CURVE",
"111 602 LINE"
);
}
);
width = 360;
}
);
unicode = 201D;
},
{
glyphname = quoteleft;
lastChange = "2019-03-20 22:35:49 +0000";
layers = (
{
hints = (
{
place = "{28, 78}";
type = Stem;
},
{
horizontal = 1;
place = "{428, 257}";
type = Stem;
}
);
layerId = UUID0;
paths = (
{
closed = 1;
nodes = (
"30 680 OFFCURVE",
"28 621 OFFCURVE",
"28 589 CURVE SMOOTH",
"29 532 OFFCURVE",
"68 428 OFFCURVE",
"114 428 CURVE SMOOTH",
"130 428 OFFCURVE",
"146 441 OFFCURVE",
"146 472 CURVE SMOOTH",
"146 480 OFFCURVE",
"145 488 OFFCURVE",
"142 494 CURVE SMOOTH",
"122 534 OFFCURVE",
"106 574 OFFCURVE",
"106 619 CURVE SMOOTH",
"106 626 OFFCURVE",
"107 634 OFFCURVE",
"107 641 CURVE SMOOTH",
"107 657 OFFCURVE",
"96 685 OFFCURVE",
"69 685 CURVE",
"69 685 LINE"
);
}
);
width = 194;
}
);
unicode = 2018;
},
{
glyphname = quoteright;
lastChange = "2019-03-20 22:35:49 +0000";
layers = (
{
hints = (
{
place = "{113, 86}";
type = Stem;
},
{
horizontal = 1;
place = "{409, 264}";
type = Stem;
}
);
layerId = UUID0;
paths = (
{
closed = 1;
nodes = (
"167 641 OFFCURVE",
"147 673 OFFCURVE",
"128 673 CURVE SMOOTH",
"105 673 OFFCURVE",
"91 652 OFFCURVE",
"91 640 CURVE SMOOTH",
"91 615 OFFCURVE",
"113 590 OFFCURVE",
"113 561 CURVE SMOOTH",
"113 493 OFFCURVE",
"20 488 OFFCURVE",
"20 441 CURVE SMOOTH",
"20 427 OFFCURVE",
"48 409 OFFCURVE",
"61 409 CURVE SMOOTH",
"109 409 OFFCURVE",
"162 444 OFFCURVE",
"182 485 CURVE SMOOTH",
"193 508 OFFCURVE",
"199 531 OFFCURVE",
"199 553 CURVE SMOOTH",
"199 577 OFFCURVE",
"192 601 OFFCURVE",
"177 625 CURVE SMOOTH",
"177 625 LINE"
);
}
);
width = 230;
}
);
unicode = 2019;
},
{
glyphname = quotedbl;
lastChange = "2019-03-20 22:35:49 +0000";
layers = (
{
hints = (
{
place = "{32, 82}";
type = Stem;
},
{
place = "{190, 76}";
type = Stem;
},
{
horizontal = 1;
place = "{379, 294}";
type = Stem;
}
);
layerId = UUID0;
paths = (
{
closed = 1;
nodes = (
"35 489 OFFCURVE",
"30 462 OFFCURVE",
"41 417 CURVE SMOOTH",
"47 391 OFFCURVE",
"69 380 OFFCURVE",
"87 380 CURVE SMOOTH",
"91 380 OFFCURVE",
"96 381 OFFCURVE",
"99 382 CURVE",
"115 383 OFFCURVE",
"122 405 OFFCURVE",
"122 421 CURVE SMOOTH",
"122 450 OFFCURVE",
"114 479 OFFCURVE",
"114 517 CURVE SMOOTH",
"114 550 OFFCURVE",
"116 584 OFFCURVE",
"121 618 CURVE",
"121 624 LINE SMOOTH",
"121 641 OFFCURVE",
"112 664 OFFCURVE",
"100 669 CURVE SMOOTH",
"95 672 OFFCURVE",
"90 673 OFFCURVE",
"85 673 CURVE SMOOTH",
"66 673 OFFCURVE",
"53 654 OFFCURVE",
"47 635 CURVE SMOOTH",
"38 605 OFFCURVE",
"37 573 OFFCURVE",
"32 541 CURVE",
"32 541 LINE"
);
},
{
closed = 1;
nodes = (
"268 462 OFFCURVE",
"266 491 OFFCURVE",
"266 521 CURVE SMOOTH",
"266 545 OFFCURVE",
"268 569 OFFCURVE",
"269 594 CURVE SMOOTH",
"270 603 OFFCURVE",
"270 626 OFFCURVE",
"270 635 CURVE SMOOTH",
"270 650 OFFCURVE",
"265 662 OFFCURVE",
"245 668 CURVE SMOOTH",
"240 669 OFFCURVE",
"236 670 OFFCURVE",
"232 670 CURVE SMOOTH",
"206 670 OFFCURVE",
"194 646 OFFCURVE",
"192 623 CURVE SMOOTH",
"190 602 OFFCURVE",
"190 578 OFFCURVE",
"190 554 CURVE SMOOTH",
"190 518 OFFCURVE",
"191 482 OFFCURVE",
"195 450 CURVE SMOOTH",
"197 429 OFFCURVE",
"197 398 OFFCURVE",
"215 386 CURVE SMOOTH",
"222 381 OFFCURVE",
"230 379 OFFCURVE",
"238 379 CURVE SMOOTH",
"246 379 OFFCURVE",
"255 381 OFFCURVE",
"264 385 CURVE SMOOTH",
"270 387 OFFCURVE",
"276 408 OFFCURVE",
"276 424 CURVE SMOOTH",
"276 428 OFFCURVE",
"276 431 OFFCURVE",
"275 434 CURVE SMOOTH",
"275 434 LINE"
);
}
);
width = 302;
}
);
unicode = 0022;
},
{
glyphname = quotesingle;
lastChange = "2019-03-20 22:35:49 +0000";
layers = (
{
hints = (
{
place = "{36, 76}";
type = Stem;
},
{
horizontal = 1;
place = "{379, 291}";
type = Stem;
}
);
layerId = UUID0;
paths = (
{
closed = 1;
nodes = (
"114 462 OFFCURVE",
"112 491 OFFCURVE",
"112 521 CURVE SMOOTH",
"112 545 OFFCURVE",
"114 569 OFFCURVE",
"115 594 CURVE SMOOTH",
"116 603 OFFCURVE",
"116 626 OFFCURVE",
"116 635 CURVE SMOOTH",
"116 650 OFFCURVE",
"111 662 OFFCURVE",
"91 668 CURVE SMOOTH",
"86 669 OFFCURVE",
"82 670 OFFCURVE",
"78 670 CURVE SMOOTH",
"52 670 OFFCURVE",
"40 646 OFFCURVE",
"38 623 CURVE SMOOTH",
"36 602 OFFCURVE",
"36 578 OFFCURVE",
"36 554 CURVE SMOOTH",
"36 518 OFFCURVE",
"37 482 OFFCURVE",
"41 450 CURVE SMOOTH",
"43 429 OFFCURVE",
"43 398 OFFCURVE",
"61 386 CURVE SMOOTH",
"68 381 OFFCURVE",
"76 379 OFFCURVE",
"84 379 CURVE SMOOTH",
"92 379 OFFCURVE",
"101 381 OFFCURVE",
"110 385 CURVE SMOOTH",
"116 387 OFFCURVE",
"122 408 OFFCURVE",
"122 424 CURVE SMOOTH",
"122 428 OFFCURVE",
"122 431 OFFCURVE",
"121 434 CURVE SMOOTH",
"121 434 LINE"
);
}
);
width = 152;
}
);
unicode = 0027;
},
{
glyphname = .notdef;
lastChange = "2019-03-20 22:35:49 +0000";
layers = (
{
hints = (
{
place = "{61, 60}";
type = Stem;
},
{
place = "{485, 61}";
type = Stem;
},
{
horizontal = 1;
place = "{0, 61}";
type = Stem;
},
{
horizontal = 1;
place = "{586, 60}";
type = Stem;
}
);
layerId = UUID0;
paths = (
{
closed = 1;
nodes = (
"546 0 LINE",
"546 646 LINE",
"61 646 LINE",
"61 0 LINE"
);
},
{
closed = 1;
nodes = (
"121 586 LINE",
"485 586 LINE",
"485 61 LINE",
"121 61 LINE"
);
}
);
width = 606;
}
);
},
{
glyphname = dollar;
lastChange = "2019-03-20 22:35:49 +0000";
layers = (
{
hints = (
{
place = "{160, 72}";
type = Stem;
},
{
horizontal = 1;
place = "{-20, 71}";
type = Stem;
},
{
horizontal = 1;
place = "{502, 69}";
type = Stem;
}
);
layerId = UUID0;
paths = (
{
closed = 1;
nodes = (
"116 51 OFFCURVE",
"110 51 OFFCURVE",
"71 73 CURVE",
"61 77 OFFCURVE",
"51 82 OFFCURVE",
"42 82 CURVE SMOOTH",
"27 82 OFFCURVE",
"13 63 OFFCURVE",
"13 50 CURVE SMOOTH",
"13 -11 OFFCURVE",
"115 -20 OFFCURVE",
"158 -20 CURVE SMOOTH",
"187 -20 OFFCURVE",
"223 -16 OFFCURVE",
"260 -10 CURVE",
"275 -57 OFFCURVE",
"297 -98 OFFCURVE",
"332 -98 CURVE SMOOTH",
"355 -98 OFFCURVE",
"374 -85 OFFCURVE",
"374 -65 CURVE SMOOTH",
"374 -54 OFFCURVE",
"370 -41 OFFCURVE",
"364 -37 CURVE SMOOTH",
"350 -27 OFFCURVE",
"338 -12 OFFCURVE",
"330 6 CURVE",
"396 26 OFFCURVE",
"450 56 OFFCURVE",
"450 96 CURVE SMOOTH",
"450 165 OFFCURVE",
"372 214 OFFCURVE",
"294 261 CURVE",
"287 341 OFFCURVE",
"281 421 OFFCURVE",
"275 501 CURVE",
"299 499 OFFCURVE",
"340 493 OFFCURVE",
"362 478 CURVE SMOOTH",
"371 473 OFFCURVE",
"384 466 OFFCURVE",
"394 466 CURVE SMOOTH",
"408 466 OFFCURVE",
"413 481 OFFCURVE",
"413 494 CURVE SMOOTH",
"413 544 OFFCURVE",
"314 569 OFFCURVE",
"270 571 CURVE",
"270 586 LINE",
"268 613 OFFCURVE",
"274 645 OFFCURVE",
"236 645 CURVE SMOOTH",
"204 645 OFFCURVE",
"201 617 OFFCURVE",
"201 576 CURVE SMOOTH",
"201 561 LINE",
"133 542 OFFCURVE",
"65 494 OFFCURVE",
"65 412 CURVE SMOOTH",
"65 343 OFFCURVE",
"143 287 OFFCURVE",
"224 235 CURVE",
"236 131 LINE",
"237 115 OFFCURVE",
"240 87 OFFCURVE",
"245 56 CURVE",
"211 52 OFFCURVE",
"178 51 OFFCURVE",
"155 51 CURVE SMOOTH",
"155 51 LINE"
);
},
{
closed = 1;
nodes = (
"137 454 OFFCURVE",
"169 478 OFFCURVE",
"202 491 CURVE",
"204 432 OFFCURVE",
"209 373 OFFCURVE",
"216 310 CURVE",
"170 342 OFFCURVE",
"137 374 OFFCURVE",
"137 414 CURVE SMOOTH",
"137 414 LINE"
);
},
{
closed = 1;
nodes = (
"377 89 OFFCURVE",
"348 77 OFFCURVE",
"313 68 CURVE",
"305 110 OFFCURVE",
"304 155 OFFCURVE",
"301 185 CURVE",
"337 160 OFFCURVE",
"368 134 OFFCURVE",
"386 108 CURVE",
"386 108 LINE"
);
}
);
width = 470;
}
);
unicode = 0024;
},
{
glyphname = plus;
lastChange = "2019-03-20 22:35:49 +0000";
layers = (
{
layerId = UUID0;
paths = (
{
closed = 1;
nodes = (
"277 468 LINE SMOOTH",
"277 509 OFFCURVE",
"268 556 OFFCURVE",
"231 556 CURVE SMOOTH",
"197 556 OFFCURVE",
"189 510 OFFCURVE",
"189 463 CURVE SMOOTH",
"189 441 OFFCURVE",
"191 419 OFFCURVE",
"192 401 CURVE SMOOTH",
"192 385 LINE",
"67 376 LINE SMOOTH",
"44 374 OFFCURVE",
"21 365 OFFCURVE",
"21 342 CURVE SMOOTH",
"21 318 OFFCURVE",
"42 298 OFFCURVE",
"65 298 CURVE",
"118 298 LINE",
"152 298 OFFCURVE",
"175 298 OFFCURVE",
"196 297 CURVE",
"196 237 LINE SMOOTH",
"196 217 OFFCURVE",
"196 192 OFFCURVE",
"197 175 CURVE SMOOTH",
"199 152 OFFCURVE",
"208 129 OFFCURVE",
"231 129 CURVE SMOOTH",
"255 129 OFFCURVE",
"278 166 OFFCURVE",
"278 189 CURVE SMOOTH",
"278 201 OFFCURVE",
"281 230 OFFCURVE",
"281 242 CURVE SMOOTH",
"281 264 OFFCURVE",
"281 281 OFFCURVE",
"280 296 CURVE",
"354 296 LINE SMOOTH",
"395 296 OFFCURVE",
"454 302 OFFCURVE",
"454 339 CURVE SMOOTH",
"454 389 OFFCURVE",
"348 389 OFFCURVE",
"291 389 CURVE",
"277 389 LINE"
);
}
);
width = 480;
}
);
unicode = 002B;
},
{
glyphname = equal;
lastChange = "2019-03-20 22:35:49 +0000";
layers = (
{
layerId = UUID0;
paths = (
{
closed = 1;
nodes = (
"231 299 OFFCURVE",
"124 290 OFFCURVE",
"67 286 CURVE SMOOTH",
"44 284 OFFCURVE",
"21 275 OFFCURVE",
"21 252 CURVE SMOOTH",
"21 228 OFFCURVE",
"58 205 OFFCURVE",
"81 205 CURVE SMOOTH",
"93 205 OFFCURVE",
"106 208 OFFCURVE",
"118 208 CURVE SMOOTH",
"220 208 OFFCURVE",
"231 206 OFFCURVE",
"333 206 CURVE SMOOTH",
"354 206 LINE SMOOTH",
"395 206 OFFCURVE",
"440 209 OFFCURVE",
"440 246 CURVE SMOOTH",
"440 298 OFFCURVE",
"340 299 OFFCURVE",
"285 299 CURVE SMOOTH",
"285 299 LINE"
);
},
{
closed = 1;
nodes = (
"123 459 LINE",
"103 459 OFFCURVE",
"84 459 OFFCURVE",
"67 458 CURVE SMOOTH",
"44 456 OFFCURVE",
"21 447 OFFCURVE",
"21 424 CURVE SMOOTH",
"21 400 OFFCURVE",
"58 377 OFFCURVE",
"81 377 CURVE SMOOTH",
"93 377 OFFCURVE",
"116 374 OFFCURVE",
"128 374 CURVE SMOOTH",
"230 374 OFFCURVE",
"231 378 OFFCURVE",
"333 378 CURVE SMOOTH",
"354 378 LINE SMOOTH",
"395 378 OFFCURVE",
"442 387 OFFCURVE",
"442 424 CURVE SMOOTH",
"442 458 OFFCURVE",
"396 466 OFFCURVE",
"349 466 CURVE SMOOTH",
"327 466 OFFCURVE",
"305 464 OFFCURVE",
"287 463 CURVE SMOOTH",
"253 463 OFFCURVE",
"220 459 OFFCURVE",
"187 459 CURVE SMOOTH",
"187 459 LINE"
);
}
);
width = 461;
}
);
unicode = 003D;
},
{
glyphname = asciitilde;
lastChange = "2019-03-20 22:35:49 +0000";
layers = (
{
layerId = UUID0;
paths = (
{
closed = 1;
nodes = (
"263 241 OFFCURVE",
"276 314 OFFCURVE",
"407 314 CURVE SMOOTH",
"463 314 OFFCURVE",
"528 299 OFFCURVE",
"528 261 CURVE SMOOTH",
"528 244 OFFCURVE",
"515 235 OFFCURVE",
"495 235 CURVE SMOOTH",
"469 235 OFFCURVE",
"429 245 OFFCURVE",
"399 245 CURVE SMOOTH",
"322 245 OFFCURVE",
"281 152 OFFCURVE",
"137 152 CURVE SMOOTH",
"84 152 OFFCURVE",
"8 164 OFFCURVE",
"8 204 CURVE SMOOTH",
"8 221 OFFCURVE",
"24 240 OFFCURVE",
"40 240 CURVE SMOOTH",
"57 240 OFFCURVE",
"107 221 OFFCURVE",
"145 221 CURVE SMOOTH",
"150 221 OFFCURVE",
"156 222 OFFCURVE",
"161 223 CURVE SMOOTH",
"161 223 LINE"
);
}
);
width = 556;
}
);
unicode = 007E;
},
{
glyphname = percent;
lastChange = "2019-03-20 22:35:49 +0000";
layers = (
{
hints = (
{
place = "{17, 58}";
type = Stem;
},
{
place = "{328, 67}";
type = Stem;
},
{
place = "{469, 60}";
type = Stem;
},
{
horizontal = 1;
place = "{-37, 21}";
target = up;
type = BottomGhost;
},
{
horizontal = 1;
place = "{93, 64}";
type = Stem;
},
{
horizontal = 1;
place = "{217, 65}";
type = Stem;
},
{
horizontal = 1;
place = "{427, 57}";
type = Stem;
}
);
layerId = UUID0;
paths = (
{
closed = 1;
nodes = (
"263 645 OFFCURVE",
"232 667 OFFCURVE",
"199 667 CURVE SMOOTH",
"117 667 OFFCURVE",
"17 576 OFFCURVE",
"17 495 CURVE SMOOTH",
"17 452 OFFCURVE",
"43 427 OFFCURVE",
"91 427 CURVE SMOOTH",
"172 427 OFFCURVE",
"241 484 OFFCURVE",
"263 559 CURVE",
"307 572 OFFCURVE",
"351 584 OFFCURVE",
"401 598 CURVE",
"371 420 OFFCURVE",
"328 236 OFFCURVE",
"328 51 CURVE SMOOTH",
"328 20 OFFCURVE",
"331 -37 OFFCURVE",
"362 -37 CURVE SMOOTH",
"374 -37 OFFCURVE",
"395 -12 OFFCURVE",
"395 -3 CURVE SMOOTH",
"395 37 OFFCURVE",
"390 77 OFFCURVE",
"390 116 CURVE SMOOTH",
"390 127 OFFCURVE",
"391 139 OFFCURVE",
"392 150 CURVE SMOOTH",
"409 312 OFFCURVE",
"432 472 OFFCURVE",
"474 629 CURVE",
"475 637 OFFCURVE",
"479 647 OFFCURVE",
"479 655 CURVE SMOOTH",
"479 676 OFFCURVE",
"469 689 OFFCURVE",
"451 689 CURVE SMOOTH",
"433 689 OFFCURVE",
"418 675 OFFCURVE",
"403 669 CURVE SMOOTH",
"358 652 OFFCURVE",
"313 635 OFFCURVE",
"268 619 CURVE",
"268 619 LINE"
);
},
{
closed = 1;
nodes = (
"170 517 OFFCURVE",
"119 484 OFFCURVE",
"91 484 CURVE SMOOTH",
"82 484 OFFCURVE",
"75 487 OFFCURVE",
"75 496 CURVE SMOOTH",
"75 514 OFFCURVE",
"99 549 OFFCURVE",
"120 566 CURVE",
"193 550 LINE"
);
},
{
closed = 1;
nodes = (
"662 243 OFFCURVE",
"616 279 OFFCURVE",
"566 282 CURVE",
"524 282 OFFCURVE",
"503 268 OFFCURVE",
"481 216 CURVE SMOOTH",
"473 197 OFFCURVE",
"469 179 OFFCURVE",
"469 164 CURVE SMOOTH",
"469 123 OFFCURVE",
"505 93 OFFCURVE",
"545 93 CURVE SMOOTH",
"601 93 OFFCURVE",
"662 147 OFFCURVE",
"662 205 CURVE SMOOTH",
"662 205 LINE"
);
},
{
closed = 1;
nodes = (
"584 171 OFFCURVE",
"575 160 OFFCURVE",
"536 157 CURVE SMOOTH",
"534 157 OFFCURVE",
"529 167 OFFCURVE",
"529 173 CURVE SMOOTH",
"529 191 OFFCURVE",
"550 217 OFFCURVE",
"567 217 CURVE SMOOTH",
"585 217 OFFCURVE",
"597 217 OFFCURVE",
"605 197 CURVE",
"605 197 LINE"
);
}
);
width = 682;
}
);
unicode = 0025;
},
{
glyphname = at;
lastChange = "2019-03-20 22:35:49 +0000";
layers = (
{
layerId = UUID0;
paths = (
{
closed = 1;
nodes = (
"554 249 OFFCURVE",
"476 58 OFFCURVE",
"392 58 CURVE SMOOTH",
"361 58 OFFCURVE",
"340 86 OFFCURVE",
"340 128 CURVE SMOOTH",
"340 218 OFFCURVE",
"430 361 OFFCURVE",
"528 361 CURVE SMOOTH",
"539 361 OFFCURVE",
"550 359 OFFCURVE",
"562 359 CURVE",
"562 359 LINE"
);
},
{
closed = 1;
nodes = (
"835 -44 OFFCURVE",
"852 98 OFFCURVE",
"852 239 CURVE SMOOTH",
"852 444 OFFCURVE",
"705 614 OFFCURVE",
"445 614 CURVE SMOOTH",
"259 614 OFFCURVE",
"107 466 OFFCURVE",
"107 192 CURVE",
"107 -133 OFFCURVE",
"346 -175 OFFCURVE",
"453 -175 CURVE SMOOTH",
"521 -175 OFFCURVE",
"586 -125 OFFCURVE",
"592 -120 CURVE SMOOTH",
"596 -117 OFFCURVE",
"603 -106 OFFCURVE",
"603 -97 CURVE SMOOTH",
"603 -84 OFFCURVE",
"590 -72 OFFCURVE",
"578 -72 CURVE SMOOTH",
"540 -72 OFFCURVE",
"504 -119 OFFCURVE",
"452 -119 CURVE SMOOTH",
"291 -119 OFFCURVE",
"157 21 OFFCURVE",
"157 175 CURVE SMOOTH",
"157 362 OFFCURVE",
"284 554 OFFCURVE",
"444 554 CURVE SMOOTH",
"693 554 OFFCURVE",
"783 397 OFFCURVE",
"783 245 CURVE SMOOTH",
"783 169 OFFCURVE",
"779 36 OFFCURVE",
"728 36 CURVE SMOOTH",
"676 36 OFFCURVE",
"654 184 OFFCURVE",
"642 259 CURVE SMOOTH",
"628 347 OFFCURVE",
"642 436 OFFCURVE",
"539 436 CURVE SMOOTH",
"400 436 OFFCURVE",
"269 278 OFFCURVE",
"269 127 CURVE SMOOTH",
"269 44 OFFCURVE",
"324 -11 OFFCURVE",
"391 -11 CURVE SMOOTH",
"481 -11 OFFCURVE",
"545 91 OFFCURVE",
"580 151 CURVE",
"597 108 OFFCURVE",
"604 69 OFFCURVE",
"626 39 CURVE SMOOTH",
"647 9 OFFCURVE",
"687 -44 OFFCURVE",
"749 -44 CURVE SMOOTH",
"749 -44 LINE"
);
}
);
width = 969;
}
);
unicode = 0040;
},
{
glyphname = ampersand;
lastChange = "2019-03-20 22:35:49 +0000";
layers = (
{
layerId = UUID0;
paths = (
{
closed = 1;
nodes = (
"619 -80 OFFCURVE",
"639 -86 OFFCURVE",
"653 -86 CURVE SMOOTH",
"669 -86 OFFCURVE",
"689 -68 OFFCURVE",
"689 -50 CURVE SMOOTH",
"689 -41 OFFCURVE",
"679 -32 OFFCURVE",
"647 -18 CURVE SMOOTH",
"581 11 OFFCURVE",
"499 50 OFFCURVE",
"448 107 CURVE",
"473 129 OFFCURVE",
"519 160 OFFCURVE",
"530 180 CURVE",
"544 195 OFFCURVE",
"558 239 OFFCURVE",
"558 259 CURVE SMOOTH",
"558 273 OFFCURVE",
"537 284 OFFCURVE",
"523 284 CURVE SMOOTH",
"516 284 OFFCURVE",
"509 281 OFFCURVE",
"503 273 CURVE SMOOTH",
"484 250 OFFCURVE",
"502 263 OFFCURVE",
"472 211 CURVE SMOOTH",
"465 199 OFFCURVE",
"417 166 OFFCURVE",
"396 151 CURVE",
"350 191 OFFCURVE",
"309 225 OFFCURVE",
"270 272 CURVE",
"341 319 OFFCURVE",
"461 440 OFFCURVE",
"461 534 CURVE SMOOTH",
"461 611 OFFCURVE",
"410 647 OFFCURVE",
"346 647 CURVE SMOOTH",
"240 647 OFFCURVE",
"128 558 OFFCURVE",
"128 450 CURVE SMOOTH",
"128 436 OFFCURVE",
"125 411 OFFCURVE",
"125 382 CURVE SMOOTH",
"125 343 OFFCURVE",
"131 298 OFFCURVE",
"156 274 CURVE",
"81 235 OFFCURVE",
"27 196 OFFCURVE",
"27 115 CURVE SMOOTH",
"27 52 OFFCURVE",
"73 -15 OFFCURVE",
"168 -15 CURVE SMOOTH",
"242 -15 OFFCURVE",
"307 6 OFFCURVE",
"384 56 CURVE",
"438 1 OFFCURVE",
"530 -33 OFFCURVE",
"591 -65 CURVE SMOOTH",
"591 -65 LINE"
);
},
{
closed = 1;
nodes = (
"135 72 OFFCURVE",
"107 87 OFFCURVE",
"107 128 CURVE SMOOTH",
"107 188 OFFCURVE",
"186 209 OFFCURVE",
"206 214 CURVE",
"226 192 OFFCURVE",
"274 150 OFFCURVE",
"333 112 CURVE",
"271 80 OFFCURVE",
"228 72 OFFCURVE",
"175 72 CURVE SMOOTH",
"175 72 LINE"
);
},
{
closed = 1;
nodes = (
"382 466 OFFCURVE",
"274 334 OFFCURVE",
"218 321 CURVE",
"202 321 OFFCURVE",
"196 348 OFFCURVE",
"196 379 CURVE SMOOTH",
"196 416 OFFCURVE",
"204 460 OFFCURVE",
"208 472 CURVE SMOOTH",
"226 526 OFFCURVE",
"253 584 OFFCURVE",
"314 584 CURVE SMOOTH",
"348 584 OFFCURVE",
"382 564 OFFCURVE",
"382 527 CURVE SMOOTH",
"382 527 LINE"
);
}
);
width = 718;
}
);
unicode = 0026;
},
{
glyphname = copyright;
lastChange = "2019-03-20 22:35:49 +0000";
layers = (
{
layerId = UUID0;
paths = (
{
closed = 1;
nodes = (
"573 9 OFFCURVE",
"426 -61 OFFCURVE",
"374 -61 CURVE SMOOTH",
"213 -61 OFFCURVE",
"79 79 OFFCURVE",
"79 233 CURVE SMOOTH",
"79 420 OFFCURVE",
"206 612 OFFCURVE",
"366 612 CURVE SMOOTH",
"615 612 OFFCURVE",
"705 455 OFFCURVE",
"705 303 CURVE SMOOTH",
"705 227 OFFCURVE",
"680 82 OFFCURVE",
"599 27 CURVE SMOOTH",
"599 27 LINE"
);
},
{
closed = 1;
nodes = (
"730 23 OFFCURVE",
"774 156 OFFCURVE",
"774 297 CURVE SMOOTH",
"774 502 OFFCURVE",
"627 672 OFFCURVE",
"367 672 CURVE SMOOTH",
"181 672 OFFCURVE",
"29 524 OFFCURVE",
"29 250 CURVE SMOOTH",
"29 -75 OFFCURVE",
"268 -117 OFFCURVE",
"375 -117 CURVE SMOOTH",
"443 -117 OFFCURVE",
"617 -43 OFFCURVE",
"624 -39 CURVE SMOOTH",
"624 -39 LINE"
);
},
{
closed = 1;
nodes = (
"490 56 OFFCURVE",
"611 120 OFFCURVE",
"611 174 CURVE SMOOTH",
"611 190 OFFCURVE",
"593 206 OFFCURVE",
"580 206 CURVE SMOOTH",
"564 206 OFFCURVE",
"550 189 OFFCURVE",
"536 177 CURVE SMOOTH",
"496 142 OFFCURVE",
"455 125 OFFCURVE",
"414 125 CURVE SMOOTH",
"335 125 OFFCURVE",
"236 202 OFFCURVE",
"236 301 CURVE SMOOTH",
"236 379 OFFCURVE",
"316 450 OFFCURVE",
"389 464 CURVE SMOOTH",
"406 467 OFFCURVE",
"429 477 OFFCURVE",
"429 495 CURVE",
"424 514 OFFCURVE",
"406 527 OFFCURVE",
"388 527 CURVE SMOOTH",
"320 527 OFFCURVE",
"202 446 OFFCURVE",
"181 382 CURVE SMOOTH",
"172 354 OFFCURVE",
"167 327 OFFCURVE",
"167 300 CURVE SMOOTH",
"167 171 OFFCURVE",
"272 56 OFFCURVE",
"416 56 CURVE SMOOTH",
"416 56 LINE"
);
}
);
width = 811;
}
);
unicode = 00A9;
},
{
glyphname = registered;
lastChange = "2019-03-20 22:35:49 +0000";
layers = (
{
layerId = UUID0;
paths = (
{
closed = 1;
nodes = (
"682 -5 OFFCURVE",
"721 50 OFFCURVE",
"745 117 CURVE",
"750 117 LINE SMOOTH",
"768 117 OFFCURVE",
"791 121 OFFCURVE",
"791 154 CURVE SMOOTH",
"791 167 OFFCURVE",
"781 176 OFFCURVE",
"763 180 CURVE",
"770 217 OFFCURVE",
"774 257 OFFCURVE",
"774 297 CURVE SMOOTH",
"774 502 OFFCURVE",
"627 672 OFFCURVE",
"367 672 CURVE SMOOTH",
"181 672 OFFCURVE",
"29 524 OFFCURVE",
"29 250 CURVE SMOOTH",
"29 -75 OFFCURVE",
"268 -117 OFFCURVE",
"375 -117 CURVE SMOOTH",
"443 -117 OFFCURVE",
"617 -43 OFFCURVE",
"624 -39 CURVE SMOOTH",
"624 -39 LINE"
);
},
{
closed = 1;
nodes = (
"347 106 OFFCURVE",
"388 101 OFFCURVE",
"429 101 CURVE SMOOTH",
"453 101 OFFCURVE",
"477 102 OFFCURVE",
"501 104 CURVE SMOOTH",
"551 108 OFFCURVE",
"610 109 OFFCURVE",
"665 112 CURVE",
"649 77 OFFCURVE",
"627 46 OFFCURVE",
"599 27 CURVE SMOOTH",
"573 9 OFFCURVE",
"426 -61 OFFCURVE",
"374 -61 CURVE SMOOTH",
"213 -61 OFFCURVE",
"79 79 OFFCURVE",
"79 233 CURVE SMOOTH",
"79 420 OFFCURVE",
"206 612 OFFCURVE",
"366 612 CURVE SMOOTH",
"615 612 OFFCURVE",
"705 455 OFFCURVE",
"705 303 CURVE SMOOTH",
"705 271 OFFCURVE",
"700 227 OFFCURVE",
"689 182 CURVE",
"613 180 OFFCURVE",
"542 172 OFFCURVE",
"468 172 CURVE SMOOTH",
"444 172 OFFCURVE",
"419 175 OFFCURVE",
"385 176 CURVE",
"469 268 OFFCURVE",
"548 343 OFFCURVE",
"548 434 CURVE SMOOTH",
"548 498 OFFCURVE",
"497 538 OFFCURVE",
"418 538 CURVE SMOOTH",
"341 538 OFFCURVE",
"269 513 OFFCURVE",
"200 479 CURVE",
"182 474 OFFCURVE",
"168 453 OFFCURVE",
"168 442 CURVE SMOOTH",
"168 426 OFFCURVE",
"180 416 OFFCURVE",
"210 403 CURVE",
"219 296 OFFCURVE",
"229 192 OFFCURVE",
"240 91 CURVE SMOOTH",
"245 45 OFFCURVE",
"258 -29 OFFCURVE",
"296 -29 CURVE SMOOTH",
"321 -29 OFFCURVE",
"330 -12 OFFCURVE",
"330 2 CURVE SMOOTH",
"330 27 OFFCURVE",
"311 89 OFFCURVE",
"303 129 CURVE",
"303 129 LINE"
);
},
{
closed = 1;
nodes = (
"277 433 LINE",
"311 452 OFFCURVE",
"368 465 OFFCURVE",
"406 465 CURVE SMOOTH",
"451 465 OFFCURVE",
"474 456 OFFCURVE",
"474 428 CURVE SMOOTH",
"474 402 OFFCURVE",
"440 344 OFFCURVE",
"417 317 CURVE SMOOTH",
"381 273 OFFCURVE",
"343 232 OFFCURVE",
"295 181 CURVE",
"295 185 LINE"
);
}
);
width = 833;
}
);
unicode = 00AE;
},
